<svg xmlns="http://www.w3.org/2000/svg" viewBox="0 0 500 500"><g id="freepik--background-complete--inject-115"><path d="M423.24,210c.59-4.26-5.42-7.76-9.94-8.12-2.15-.17-4.39.15-6.43-.56-4.41-1.54-6.18-7.25-10.49-9.06-3.22-1.36-6.94-.15-10.06,1.42s-6.21,3.55-9.71,3.77c-3,.2-6.33-.93-9,.56-2,1.1-3,3.38-4.84,4.73s-4.11,1.6-6.33,1.72-4.51.14-6.53,1.06-3.68,3.06-3.26,5.24Z" style="fill:#f5f5f5"></path><polygon points="443.66 284.35 456.67 276.88 460.98 254.48 464.62 255.47 461.47 276.64 473.93 268.21 476.66 271.34 460.16 281.84 443.66 289.57 443.66 284.35" style="fill:#ebebeb"></polygon><rect x="435.93" y="251.66" width="9.53" height="145.73" transform="translate(881.4 649.06) rotate(180)" style="fill:#ebebeb"></rect><path d="M443.3,15.52c0,1.3,25.59,82,25.59,82l-12.8-13,18.43,56.37-12.14-16.91,14.31,70.68-6.94-7.37,12.14,49.86-10.4-13,10.4,37.29-82.39-6.07L419,185.07l-11.79,13,15.26-51.17-7.81,4.33,17.78-65.91L424.22,91Z" style="fill:#e0e0e0"></path><path d="M440.54,159.48a7.18,7.18,0,0,0,.41,1.2c.33.83.76,1.93,1.28,3.27l4.62,11.29.2.5.26-.48a57.59,57.59,0,0,0,3.36-7.47c.37-1,.7-2,1-3l-.5,0c2.27,5.79,4.5,10.84,6.17,14.42.84,1.8,1.54,3.22,2,4.2l.58,1.12c.14.25.22.38.24.37a11.31,11.31,0,0,0-.64-1.57l-1.88-4.26c-1.59-3.62-3.75-8.69-6-14.48l-.27-.71-.23.73c-.29,1-.62,1.94-1,2.93a58.83,58.83,0,0,1-3.3,7.42l.46,0-4.8-11.21c-.58-1.32-1-2.4-1.42-3.22A7.39,7.39,0,0,0,440.54,159.48Z" style="fill:#ebebeb"></path><path d="M431.76,129.37a3.61,3.61,0,0,0,.46-.87l1.19-2.46c1-2.1,2.52-5,4.46-8.29l-.47-.06,1.31,5.06c.29,1.11.58,2.19.85,3.23l.19.72.31-.68c1.75-3.91,3.28-7.35,4.34-9.83l1.24-2.92a5.57,5.57,0,0,0,.38-1.08,5.83,5.83,0,0,0-.56,1l-1.37,2.85c-1.16,2.44-2.74,5.85-4.51,9.75l.49,0c-.27-1-.55-2.12-.84-3.22l-1.34-5.07-.15-.6-.32.54a85.21,85.21,0,0,0-4.3,8.41c-.48,1.08-.83,1.94-1.05,2.53A4,4,0,0,0,431.76,129.37Z" style="fill:#ebebeb"></path><path d="M443.43,67.58a21,21,0,0,0,1.46,2.87c1,1.76,2.33,4.2,3.91,7l.36.63.13-.71c.14-.8.29-1.63.45-2.48.25-1.47.5-2.88.73-4.19l-.47.09c1.47,2.33,2.75,4.32,3.67,5.72a15.84,15.84,0,0,0,1.55,2.18,16.76,16.76,0,0,0-1.28-2.35c-.84-1.44-2.07-3.47-3.51-5.82l-.35-.57-.12.66c-.23,1.31-.49,2.72-.75,4.18-.15.85-.3,1.68-.44,2.49l.49-.09c-1.61-2.76-3-5.16-4.08-6.87A20.89,20.89,0,0,0,443.43,67.58Z" style="fill:#ebebeb"></path><polygon points="57.43 293.7 70.44 286.84 74.75 266.26 78.38 267.17 75.23 286.62 87.7 278.87 90.43 281.75 73.93 291.39 57.43 298.5 57.43 293.7" style="fill:#ebebeb"></polygon><rect x="49.7" y="263.67" width="9.53" height="133.87" transform="translate(108.93 661.22) rotate(180)" style="fill:#ebebeb"></rect><path d="M57.07,46.74c0,1.2,25.58,75.29,25.58,75.29l-12.79-12,18.43,51.78L76.15,146.33l14.31,64.93-6.94-6.77L95.66,250.3l-10.41-12,10.41,34.26L13.27,267,32.78,202.5,21,214.45l15.25-47-7.8,4,17.78-60.54L38,116.05Z" style="fill:#e0e0e0"></path><path d="M54.3,179a7.14,7.14,0,0,0,.41,1.1l1.29,3,4.61,10.38.21.45.25-.43a49.9,49.9,0,0,0,3.36-6.87c.37-.92.71-1.84,1-2.72l-.51,0c2.28,5.33,4.5,10,6.18,13.25.84,1.65,1.53,3,2,3.86l.58,1a1.93,1.93,0,0,0,.23.35A9.71,9.71,0,0,0,73.3,201L71.43,197c-1.59-3.33-3.75-8-6-13.3l-.28-.65-.22.67c-.29.87-.63,1.78-1,2.69a52.75,52.75,0,0,1-3.31,6.82l.46,0L56.29,183,54.87,180A5.59,5.59,0,0,0,54.3,179Z" style="fill:#ebebeb"></path><path d="M45.53,151.33a4.42,4.42,0,0,0,.46-.8l1.19-2.26c1-1.92,2.51-4.61,4.45-7.61l-.47-.06,1.32,4.65c.29,1,.57,2,.85,3l.19.67.3-.63c1.76-3.59,3.28-6.75,4.35-9l1.23-2.69a4.73,4.73,0,0,0,.39-1,4.54,4.54,0,0,0-.56.92c-.36.7-.82,1.57-1.38,2.62-1.15,2.24-2.73,5.38-4.51,9l.5,0c-.27-1-.55-2-.84-3l-1.34-4.65-.16-.56-.31.5a75.83,75.83,0,0,0-4.31,7.73c-.47,1-.82,1.77-1.05,2.32A3.13,3.13,0,0,0,45.53,151.33Z" style="fill:#ebebeb"></path><path d="M57.2,94.57a18,18,0,0,0,1.45,2.63c1,1.62,2.33,3.86,3.92,6.4l.36.58.13-.66.44-2.28c.26-1.35.5-2.64.73-3.84l-.46.08c1.47,2.14,2.75,4,3.67,5.26a15.65,15.65,0,0,0,1.55,2,14.69,14.69,0,0,0-1.28-2.16c-.85-1.33-2.07-3.19-3.51-5.35l-.35-.52-.12.6c-.24,1.2-.49,2.5-.76,3.85-.15.78-.29,1.54-.43,2.28l.48-.08c-1.6-2.53-3-4.74-4.07-6.32A20.46,20.46,0,0,0,57.2,94.57Z" style="fill:#ebebeb"></path><path d="M481.75,397.21c0,.14-100,.26-223.28.26s-223.3-.12-223.3-.26,100-.26,223.3-.26S481.75,397.06,481.75,397.21Z" style="fill:#e0e0e0"></path><path d="M261.63,372.78a4.89,4.89,0,0,1,.61.82c.36.54.86,1.34,1.44,2.36a64.5,64.5,0,0,1,6.7,16.91c.27,1.14.46,2.06.56,2.7a4.23,4.23,0,0,1,.12,1c-.08,0-.41-1.38-1-3.62a87.16,87.16,0,0,0-2.88-8.59,89.32,89.32,0,0,0-3.78-8.24A37.56,37.56,0,0,1,261.63,372.78Z" style="fill:#e0e0e0"></path><path d="M272.08,364.58a6.54,6.54,0,0,1,.07,1.28c0,.93,0,2.1,0,3.5.06,2.94.21,7,.61,11.49s1,8.51,1.46,11.42c.23,1.37.42,2.53.58,3.44A6.28,6.28,0,0,1,275,397a5.7,5.7,0,0,1-.36-1.24c-.2-.8-.46-2-.74-3.42a112.76,112.76,0,0,1-1.61-11.43,110.66,110.66,0,0,1-.46-11.54c0-1.48.06-2.68.11-3.5A5.31,5.31,0,0,1,272.08,364.58Z" style="fill:#e0e0e0"></path><path d="M283.25,369.05c.08,0-.38,1.54-1,4a78.6,78.6,0,0,0-1.74,9.82,79.67,79.67,0,0,0-.44,9.95c.05,2.56.16,4.14.08,4.15a4.51,4.51,0,0,1-.19-1.1c-.1-.72-.19-1.75-.26-3A62.9,62.9,0,0,1,281.91,373c.35-1.23.67-2.22.91-2.9A5.45,5.45,0,0,1,283.25,369.05Z" style="fill:#e0e0e0"></path><path d="M334.39,91.1c.83-6-7.68-11-14.07-11.5-3-.25-6.21.22-9.1-.79C305,76.63,302.47,68.55,296.37,66c-4.57-1.93-9.82-.21-14.24,2s-8.8,5-13.74,5.35c-4.3.27-9-1.32-12.73.78-2.8,1.56-4.27,4.79-6.85,6.7s-5.83,2.26-9,2.43-6.39.2-9.24,1.51-5.22,4.32-4.63,7.41Z" style="fill:#f5f5f5"></path><path d="M162.19,48.45c.59-4.26-5.42-7.76-9.94-8.13-2.15-.17-4.39.16-6.43-.55-4.42-1.54-6.19-7.25-10.5-9.07-3.23-1.36-6.94-.15-10.07,1.42s-6.22,3.55-9.71,3.78c-3,.19-6.34-.93-9,.55-2,1.11-3,3.39-4.85,4.74s-4.12,1.59-6.33,1.71-4.51.15-6.53,1.07S85.15,47,85.57,49.21Z" style="fill:#f5f5f5"></path><path d="M208.64,158.31c.35-2.53-3.23-4.62-5.93-4.84a15.27,15.27,0,0,1-3.83-.33c-2.64-.92-3.69-4.33-6.26-5.41-1.92-.81-4.14-.09-6,.85s-3.71,2.12-5.79,2.25c-1.81.12-3.78-.55-5.36.33-1.18.66-1.8,2-2.89,2.82a6.9,6.9,0,0,1-3.77,1,10.64,10.64,0,0,0-3.9.63,3.08,3.08,0,0,0-1.95,3.12Z" style="fill:#ebebeb"></path><path d="M417,54.45c.35-2.54-3.23-4.63-5.93-4.84a15.27,15.27,0,0,1-3.83-.34c-2.64-.91-3.69-4.32-6.26-5.4-1.92-.82-4.14-.09-6,.84s-3.71,2.12-5.79,2.26c-1.81.11-3.78-.56-5.36.33-1.18.66-1.8,2-2.89,2.82a6.92,6.92,0,0,1-3.78,1,10.6,10.6,0,0,0-3.89.64,3.08,3.08,0,0,0-1.95,3.12Z" style="fill:#ebebeb"></path></g><g id="freepik--Floor--inject-115"><path d="M473.11,476c0,.14-99,.26-221.11.26S30.87,476.13,30.87,476s99-.26,221.13-.26S473.11,475.84,473.11,476Z" style="fill:#263238"></path></g><g id="freepik--Sun--inject-115"><circle cx="142.43" cy="94.02" r="14.68" transform="translate(1.24 189.89) rotate(-67.61)" style="fill:#FF725E"></circle><path d="M142.43,108.72a14.61,14.61,0,0,1-10.39-4.3,14.71,14.71,0,0,1,4.67-23.94A14.7,14.7,0,0,1,157.13,94a14.73,14.73,0,0,1-9,13.55A14.68,14.68,0,0,1,142.43,108.72Z" style="fill:#FF725E"></path><path d="M140.34,126.85c-.08,0-.15-2.71-.15-6s.07-6.06.15-6.06a57,57,0,0,1,.16,6.06A56.83,56.83,0,0,1,140.34,126.85Z" style="fill:#FF725E"></path><path d="M140.34,126.87s-.08,0-.12-1.79c0-1.14-.05-2.66-.05-4.28s0-3.14.05-4.29c0-1.78.09-1.78.12-1.78s.08,0,.13,1.78c0,1.15,0,2.67,0,4.29s0,3.14,0,4.28C140.42,126.87,140.37,126.87,140.34,126.87Zm0-12.1c-.07.22-.14,2.52-.14,6s.07,5.8.14,6c.07-.23.14-2.53.14-6S140.41,115,140.34,114.77Z" style="fill:#FF725E"></path><path d="M131.88,111.33c.07,0-1.31,2.57-3.08,5.65a62.24,62.24,0,0,1-3.36,5.49c-.07,0,1.31-2.57,3.09-5.65S131.81,111.28,131.88,111.33Z" style="fill:#FF725E"></path><path d="M125.45,122.49h0s-.07,0,.84-1.71c.58-1.07,1.38-2.48,2.24-4s1.68-2.87,2.31-3.91c.89-1.47,1-1.59,1-1.59h0s.07,0-.84,1.71c-.59,1.07-1.38,2.48-2.24,4-1.52,2.63-3.22,5.46-3.36,5.5Zm6.42-11.14c-.18.18-1.47,2.26-3.33,5.48s-3,5.37-3.08,5.62c.18-.18,1.46-2.26,3.32-5.48S131.8,111.6,131.87,111.35Z" style="fill:#FF725E"></path><path d="M123.2,105.92a31.74,31.74,0,0,1-3.43,2.92,32.69,32.69,0,0,1-3.62,2.68,33.27,33.27,0,0,1,3.43-2.92A30.66,30.66,0,0,1,123.2,105.92Z" style="fill:#FF725E"></path><path d="M116.15,111.54s0,0,0,0,0-.06,1-.92c.65-.56,1.52-1.27,2.47-2a35.91,35.91,0,0,1,3.62-2.69h0v0a35.89,35.89,0,0,1-3.43,2.93c-.94.74-1.84,1.44-2.52,1.94A4.83,4.83,0,0,1,116.15,111.54Zm7-5.6a39.71,39.71,0,0,0-3.59,2.67,39.48,39.48,0,0,0-3.43,2.9,36.58,36.58,0,0,0,3.6-2.68A39.77,39.77,0,0,0,123.18,105.94Zm0,0Z" style="fill:#FF725E"></path><path d="M155,120.89a8.06,8.06,0,0,1-.39-1.49c-.21-.93-.51-2.2-.88-3.6s-.76-2.64-1-3.55a7.93,7.93,0,0,1-.41-1.48,7.52,7.52,0,0,1,.62,1.41c.33.89.75,2.14,1.12,3.54s.65,2.7.81,3.63A7.31,7.31,0,0,1,155,120.89Z" style="fill:#FF725E"></path><path d="M155,120.9c-.05,0-.11-.22-.4-1.5-.2-.86-.51-2.17-.89-3.59s-.78-2.73-1-3.56h0c-.37-1.21-.45-1.47-.4-1.49s.05,0,.22.38.26.63.42,1c.23.61.68,1.88,1.13,3.55s.69,3,.8,3.63a7.38,7.38,0,0,1,.17,1.54,0,0,0,0,1,0,0Zm-2.72-10.11c0,.11.19.7.42,1.44v0c.26.82.65,2.1,1,3.55s.69,2.73.89,3.59a14.3,14.3,0,0,0,.36,1.47,8.78,8.78,0,0,0-.18-1.5c-.11-.64-.35-2-.8-3.63s-.9-2.94-1.13-3.55A8.56,8.56,0,0,0,152.27,110.79Z" style="fill:#FF725E"></path><path d="M169.88,110.32a50.86,50.86,0,0,1-4.34-3.59,50.85,50.85,0,0,1-4.14-3.82,50.86,50.86,0,0,1,4.34,3.59A53.14,53.14,0,0,1,169.88,110.32Z" style="fill:#FF725E"></path><path d="M169.87,110.34c-.15,0-2.34-1.85-4.34-3.6-1.13-1-2.19-1.93-3-2.65-1.22-1.13-1.19-1.17-1.17-1.19h0a54.6,54.6,0,0,1,4.34,3.6c1.13,1,2.19,1.93,3,2.65,1.22,1.13,1.19,1.17,1.17,1.19h0Zm-8.45-7.41c.11.18,1.68,1.65,4.13,3.79s4.11,3.5,4.31,3.58c-.11-.18-1.67-1.64-4.13-3.79S161.62,103,161.42,102.93Z" style="fill:#FF725E"></path><path d="M175.58,95.8a11.91,11.91,0,0,1-1.77-.26c-1.09-.18-2.59-.41-4.26-.6s-3.19-.31-4.29-.38a11.58,11.58,0,0,1-1.78-.15,8.67,8.67,0,0,1,1.79-.06c1.11,0,2.64.09,4.32.28a42,42,0,0,1,4.26.7A9.11,9.11,0,0,1,175.58,95.8Z" style="fill:#FF725E"></path><path d="M175.53,95.82c-.13,0-.49-.06-1.37-.2l-.35-.06c-1.49-.25-2.92-.45-4.26-.61s-2.78-.27-4.29-.37l-.35,0c-1.21-.08-1.45-.1-1.44-.15h0a9.75,9.75,0,0,1,1.8-.07c.76,0,2.34.06,4.32.29a39.87,39.87,0,0,1,4.27.7,9.12,9.12,0,0,1,1.73.47h0S175.58,95.82,175.53,95.82Zm-12-1.41c.1,0,.66.07,1.4.12l.35,0c1.52.09,3,.22,4.29.37s2.78.36,4.26.61l.35.06c.71.12,1.24.2,1.38.2h0a14.33,14.33,0,0,0-1.71-.45,46.48,46.48,0,0,0-8.58-1A13.36,13.36,0,0,0,163.51,94.41Z" style="fill:#FF725E"></path><path d="M175.6,81.52c0,.08-3.16.93-7.1,1.89s-7.15,1.67-7.17,1.59,3.16-.93,7.1-1.89S175.58,81.44,175.6,81.52Z" style="fill:#FF725E"></path><path d="M161.36,85s0,0,0,0,0-.08,2.07-.63c1.34-.36,3.13-.81,5-1.28s3.7-.88,5-1.18c2.12-.47,2.13-.42,2.14-.39h0s0,.07-2.08.63c-1.34.36-3.13.81-5,1.27s-3.7.89-5.06,1.19A19,19,0,0,1,161.36,85Zm14.21-3.49c-.29,0-3,.59-7.14,1.59s-6.81,1.73-7.07,1.87c.29,0,3-.59,7.14-1.6S175.31,81.66,175.57,81.53Z" style="fill:#FF725E"></path><path d="M159,64.88c.07.05-1.45,2.47-3.39,5.42S152,75.59,152,75.55s1.45-2.48,3.4-5.42A63.8,63.8,0,0,1,159,64.88Z" style="fill:#FF725E"></path><path d="M152,75.56h0a0,0,0,0,0,0,0c0-.14,1.73-2.9,3.4-5.43.95-1.42,1.85-2.75,2.53-3.75,1.07-1.52,1.12-1.52,1.15-1.5h0s.07,0-.94,1.64c-.64,1-1.51,2.37-2.45,3.8s-1.84,2.75-2.53,3.74C152.13,75.44,152,75.56,152,75.56Zm7-10.65c-.19.16-1.59,2.14-3.63,5.23s-3.32,5.15-3.39,5.38c.19-.16,1.58-2.14,3.62-5.23S158.92,65.14,159,64.91Z" style="fill:#FF725E"></path><path d="M142.55,61.41a14.66,14.66,0,0,1,0,2c0,1.25,0,3,0,4.86s0,3.61.05,4.85a13,13,0,0,1,0,2,12.75,12.75,0,0,1-.2-2c-.08-1.24-.14-3-.14-4.86s.06-3.62.13-4.87A11.19,11.19,0,0,1,142.55,61.41Z" style="fill:#FF725E"></path><path d="M142.56,75.16s-.05,0-.1-.55c0-.37-.08-.88-.11-1.47-.06-.83-.14-2.58-.15-4.86s.08-4,.13-4.87c0-.59.08-1.1.12-1.47.05-.53.08-.55.09-.55h0s.06.19,0,2c0,1.17,0,3,0,4.86s0,3.54.05,4.77v.08c0,1.85,0,2,0,2Zm0-13.72a15.25,15.25,0,0,0-.18,2c-.05.84-.14,2.59-.14,4.87s.09,4,.15,4.86a18,18,0,0,0,.18,2c0-.17,0-1.25,0-2v-.07c0-1.24-.05-2.93-.05-4.78s0-3.69,0-4.86C142.56,62.69,142.58,61.61,142.55,61.44Z" style="fill:#FF725E"></path><path d="M130.08,76.93c-.07,0-1.62-2.35-3.46-5.35s-3.26-5.47-3.19-5.52,1.62,2.35,3.46,5.36S130.15,76.89,130.08,76.93Z" style="fill:#FF725E"></path><path d="M130.08,77s-.17-.12-1.08-1.54c-.65-1-1.5-2.37-2.39-3.82-1.57-2.58-3.23-5.39-3.19-5.53s0,0,0,0,.06,0,1.08,1.54c.66,1,1.5,2.37,2.39,3.82s1.71,2.83,2.31,3.87c.94,1.63.9,1.65.88,1.67h0Zm-6.63-10.86c.06.23,1.26,2.33,3.19,5.48s3.24,5.17,3.42,5.34c-.06-.24-1.26-2.34-3.18-5.48S123.63,66.25,123.45,66.09Z" style="fill:#FF725E"></path><path d="M122.63,83.26a6.32,6.32,0,0,1-1.56-.24c-1-.2-2.27-.52-3.69-.94s-2.71-.87-3.62-1.22a6.9,6.9,0,0,1-1.44-.64,9.28,9.28,0,0,1,1.52.44c.92.29,2.2.7,3.62,1.12s2.72.77,3.66,1A9.86,9.86,0,0,1,122.63,83.26Z" style="fill:#FF725E"></path><path d="M122.58,83.29l-.38,0c-.29,0-.68-.12-1.13-.22-.65-.13-2-.44-3.7-.94s-3-1-3.61-1.21l-1.07-.44c-.4-.18-.39-.2-.39-.22s.22,0,1.54.42c.74.24,2.13.68,3.63,1.12s2.6.75,3.65,1c1.34.36,1.54.43,1.53.48h0S122.64,83.29,122.58,83.29Zm-10.24-3.06a10.32,10.32,0,0,0,1.43.62c.62.24,1.9.71,3.61,1.21s3.05.81,3.69.94a10.71,10.71,0,0,0,1.51.26h0a14.2,14.2,0,0,0-1.48-.44c-1.06-.29-2.29-.62-3.66-1s-2.89-.88-3.63-1.12C113.25,80.49,112.47,80.24,112.34,80.23Z" style="fill:#FF725E"></path><path d="M119.38,94.54a35.08,35.08,0,0,1-4.69.61,37.48,37.48,0,0,1-4.71.3,34.76,34.76,0,0,1,4.68-.61A37.51,37.51,0,0,1,119.38,94.54Z" style="fill:#FF725E"></path><path d="M110.24,95.49a1.09,1.09,0,0,1-.27,0v0a0,0,0,0,1,0,0,39,39,0,0,1,4.69-.6,40,40,0,0,1,4.72-.3,0,0,0,0,1,0,0h0v0a40.63,40.63,0,0,1-4.7.61C112.89,95.34,111,95.49,110.24,95.49Zm-.24,0a43.61,43.61,0,0,0,4.69-.31,45.05,45.05,0,0,0,4.66-.59,43.74,43.74,0,0,0-4.69.31A39.71,39.71,0,0,0,110,95.45Z" style="fill:#FF725E"></path></g><g id="freepik--Birds--inject-115"><path d="M392.35,153.42s-.6-.2-1.71-.45a13.55,13.55,0,0,0-4.77-.18,12.72,12.72,0,0,0-6.42,2.77,13.34,13.34,0,0,0-4.53,7.19l0,.08-.13.52-.2-.49a14.29,14.29,0,0,0-5.42-6.55,13.75,13.75,0,0,0-6.63-2.21,14.8,14.8,0,0,0-4.73.43c-1.1.29-1.67.54-1.69.51a2.63,2.63,0,0,1,.42-.2,9.8,9.8,0,0,1,1.23-.44A14.12,14.12,0,0,1,369.32,156a14.51,14.51,0,0,1,5.57,6.69l-.33,0,0-.08a13.51,13.51,0,0,1,4.66-7.36,13,13,0,0,1,6.59-2.77,13.13,13.13,0,0,1,4.83.3,8.67,8.67,0,0,1,1.26.4Z" style="fill:#263238"></path><path d="M397.28,127.56s-.34-.09-.95-.22a7.6,7.6,0,0,0-2.6-.07,7,7,0,0,0-3.5,1.52,7.31,7.31,0,0,0-2.46,3.92v0l-.13.52-.2-.49a7.79,7.79,0,0,0-2.95-3.57,7.61,7.61,0,0,0-3.61-1.22,8,8,0,0,0-2.59.21c-.6.15-.92.28-.93.25s.07,0,.22-.12a3.75,3.75,0,0,1,.67-.26,7.71,7.71,0,0,1,6.41.87,8,8,0,0,1,3.1,3.71l-.33,0,0-.05a7.49,7.49,0,0,1,2.59-4.09A7.18,7.18,0,0,1,393.7,127a7,7,0,0,1,2.66.19,5.43,5.43,0,0,1,.69.23A.82.82,0,0,1,397.28,127.56Z" style="fill:#263238"></path><path d="M364,109.8a11.16,11.16,0,0,1-.91,1,22.23,22.23,0,0,0-5.56,14.77v.15l-.35,0a19.32,19.32,0,0,0-2.14-6.36A20.28,20.28,0,0,0,351.8,115a20.53,20.53,0,0,0-2.84-2.4c-.72-.5-1.14-.75-1.13-.78a1.16,1.16,0,0,1,.32.15c.21.12.52.27.89.52a18,18,0,0,1,2.93,2.34,19.41,19.41,0,0,1,5.59,10.9l-.35,0v-.15a21.61,21.61,0,0,1,3.46-11.88,19.9,19.9,0,0,1,2.35-3c.3-.33.57-.55.73-.72S364,109.79,364,109.8Z" style="fill:#263238"></path></g><g id="freepik--Plants--inject-115"><path d="M394.56,476.11c-.13.06-2.24-4.66-4.71-10.54s-4.37-10.7-4.24-10.76,2.24,4.67,4.72,10.55S394.69,476.06,394.56,476.11Z" style="fill:#263238"></path><path d="M399,476.14c-.15,0-1.11-7.66-2.16-17.15s-1.78-17.19-1.64-17.2,1.11,7.66,2.16,17.15S399.17,476.12,399,476.14Z" style="fill:#263238"></path><path d="M406.06,476.11a4.6,4.6,0,0,1-.15-1.08c-.07-.69-.14-1.71-.2-3-.13-2.5-.2-6-.09-9.78s.36-7.27.62-9.76c.13-1.25.25-2.25.36-2.95a4.8,4.8,0,0,1,.21-1.07,4.21,4.21,0,0,1,0,1.09c-.05.82-.12,1.8-.19,3-.17,2.49-.37,5.94-.47,9.75s-.09,7.25-.06,9.75c0,1.16,0,2.15,0,3A4.26,4.26,0,0,1,406.06,476.11Z" style="fill:#263238"></path><path d="M446.39,448.39c.09,0-.11,1.57-.24,4.1a64.25,64.25,0,0,0,.23,9.85,65.53,65.53,0,0,0,1.8,9.69c.65,2.44,1.17,3.93,1.09,4a4.13,4.13,0,0,1-.46-1c-.27-.66-.61-1.63-1-2.85a52,52,0,0,1-2-9.74,52.77,52.77,0,0,1-.09-9.93c.12-1.26.25-2.29.37-3A5.82,5.82,0,0,1,446.39,448.39Z" style="fill:#263238"></path><path d="M455.84,447a6,6,0,0,1-.1,1.14c-.11.84-.24,1.87-.4,3.08-.33,2.61-.69,6.22-.87,10.22s-.12,7.63,0,10.25c.05,1.23.1,2.26.13,3.11a4.32,4.32,0,0,1,0,1.15,5.83,5.83,0,0,1-.2-1.13c-.1-.73-.2-1.8-.3-3.11a92.12,92.12,0,0,1,.89-20.54c.21-1.3.41-2.35.57-3.07A4.37,4.37,0,0,1,455.84,447Z" style="fill:#263238"></path><path d="M471.25,446.57c.08,0-.77,1.53-1.88,4.05a49.77,49.77,0,0,0-3.2,10.23,50.55,50.55,0,0,0-.9,10.68c.07,2.75.3,4.44.21,4.46a5.93,5.93,0,0,1-.24-1.18c-.13-.77-.25-1.88-.34-3.27a44.07,44.07,0,0,1,.76-10.79A43.32,43.32,0,0,1,469,450.47a32.38,32.38,0,0,1,1.54-2.9A5.25,5.25,0,0,1,471.25,446.57Z" style="fill:#263238"></path><path d="M227.74,440.61a8.21,8.21,0,0,1,.81,1.24c.5.82,1.18,2,2,3.54a81.29,81.29,0,0,1,8.1,25.32c.24,1.69.39,3.07.45,4a7.87,7.87,0,0,1,.06,1.48,7.46,7.46,0,0,1-.26-1.46c-.12-.94-.33-2.31-.62-4a96.32,96.32,0,0,0-3.13-12.9,97.54,97.54,0,0,0-4.93-12.32c-.74-1.53-1.36-2.76-1.8-3.6A8.06,8.06,0,0,1,227.74,440.61Z" style="fill:#263238"></path><path d="M242.08,436.38a9.91,9.91,0,0,1,.19,1.57c.09,1.1.21,2.54.36,4.28.3,3.62.77,8.61,1.43,14.11s1.4,10.46,2,14.05l.66,4.25a8.18,8.18,0,0,1,.19,1.57,9.6,9.6,0,0,1-.38-1.53c-.22-1-.51-2.44-.84-4.23-.65-3.57-1.44-8.54-2.11-14.05s-1.07-10.51-1.28-14.14c-.11-1.82-.17-3.29-.2-4.3A8.77,8.77,0,0,1,242.08,436.38Z" style="fill:#263238"></path><path d="M261.06,428a1.52,1.52,0,0,1-.06.49c-.08.38-.18.83-.29,1.38-.27,1.19-.62,2.93-1,5.08A112,112,0,0,0,258,452a110.73,110.73,0,0,0,1,17c.3,2.16.58,3.91.81,5.11.09.56.17,1,.23,1.39a1.7,1.7,0,0,1,0,.5,1.71,1.71,0,0,1-.15-.48c-.09-.37-.2-.82-.33-1.37-.29-1.19-.63-2.93-1-5.1a97.46,97.46,0,0,1,.65-34.12c.43-2.15.83-3.88,1.16-5.06.15-.54.28-1,.38-1.36A3.17,3.17,0,0,1,261.06,428Z" style="fill:#263238"></path><path d="M76.66,476a2.79,2.79,0,0,1-.15-.52c-.1-.4-.21-.9-.35-1.5s-.32-1.46-.56-2.38-.47-2-.81-3.12c-.61-2.31-1.45-5-2.5-8s-2.35-6.2-3.88-9.51-3.19-6.37-4.77-9.1-3.15-5.11-4.52-7.07c-.66-1-1.32-1.86-1.87-2.63s-1-1.42-1.46-1.95L54.87,429a2.26,2.26,0,0,1-.3-.45s.15.12.38.39l1,1.17c.44.51,1,1.14,1.53,1.91s1.26,1.6,1.94,2.59c1.42,1.93,3,4.32,4.63,7s3.28,5.8,4.83,9.12,2.82,6.58,3.87,9.57,1.83,5.75,2.4,8.08c.31,1.15.53,2.22.73,3.15s.37,1.73.48,2.4.18,1.11.25,1.52A2,2,0,0,1,76.66,476Z" style="fill:#263238"></path><path d="M87.72,476.4a11.74,11.74,0,0,1-.57-1.67c-.37-1.17-.85-2.71-1.43-4.59-1.22-3.87-3-9.18-5.11-15s-4.27-11-5.86-14.71c-.78-1.8-1.41-3.29-1.9-4.41a10.91,10.91,0,0,1-.64-1.64,12.53,12.53,0,0,1,.83,1.55c.51,1,1.21,2.5,2,4.35,1.67,3.7,3.86,8.87,6,14.68s3.84,11.17,5,15.07c.56,1.95,1,3.53,1.27,4.63A10.25,10.25,0,0,1,87.72,476.4Z" style="fill:#263238"></path><path d="M90.94,418.68a2.39,2.39,0,0,1,0,.58c0,.44,0,1,0,1.67,0,1.51,0,3.58-.06,6.11,0,5.16,0,12.29.22,20.16s.68,15,1.05,20.14c.19,2.52.34,4.58.45,6.09.05.68.08,1.23.11,1.66a2.27,2.27,0,0,1,0,.59,3.52,3.52,0,0,1-.1-.58q-.09-.64-.21-1.65c-.17-1.43-.38-3.51-.62-6.08-.46-5.15-1-12.27-1.2-20.15s-.21-15-.07-20.19c.07-2.58.15-4.67.23-6.11,0-.68.08-1.22.1-1.66A3.39,3.39,0,0,1,90.94,418.68Z" style="fill:#263238"></path><path d="M106.74,443.14a5.68,5.68,0,0,1-.27,1.29c-.24.92-.54,2.09-.89,3.47-.74,2.93-1.69,7-2.52,11.54s-1.37,8.68-1.72,11.68c-.15,1.42-.29,2.62-.39,3.56a5.89,5.89,0,0,1-.2,1.31,7.54,7.54,0,0,1,0-1.32c0-.85.1-2.07.23-3.58.25-3,.74-7.19,1.57-11.74s1.84-8.63,2.67-11.54c.42-1.46.78-2.63,1-3.43A6.82,6.82,0,0,1,106.74,443.14Z" style="fill:#263238"></path><path d="M309.76,434.57a7.6,7.6,0,0,1,3.49,4.87,13.42,13.42,0,0,1-.09,6.11c-.85,3.88-3.49,7.62-6.21,10.51-3-3.23-3.26-8.34-3.22-10.94.06-4.11,2.66-11.51,6-10.55" style="fill:#FF725E"></path><path d="M310.13,462.94a6.52,6.52,0,0,1,2.73-6,8.64,8.64,0,0,1,6.57-1.34,3.64,3.64,0,0,1,2.66,1.54,2.81,2.81,0,0,1-.24,2.82,5.78,5.78,0,0,1-2.3,1.84c-3.05,1.5-6.27,2.4-9.42,1.1" style="fill:#FF725E"></path><path d="M304.66,474.55a5.17,5.17,0,0,1,.2-.8l.62-2.14a23.12,23.12,0,0,1,3-6.74,14,14,0,0,1,5.54-4.8,9.26,9.26,0,0,1,2.13-.69,5.62,5.62,0,0,1,.61-.09.49.49,0,0,1,.21,0,14.65,14.65,0,0,0-2.86,1,14.47,14.47,0,0,0-5.4,4.79,24.67,24.67,0,0,0-3,6.63c-.29.9-.53,1.62-.71,2.12A4.75,4.75,0,0,1,304.66,474.55Z" style="fill:#263238"></path><path d="M308.28,440.38a1.55,1.55,0,0,1,0,.35c0,.27,0,.6,0,1,0,.88-.12,2.16-.23,3.74-.22,3.16-.59,7.52-1.1,12.32s-1.07,9.15-1.52,12.28c-.23,1.57-.42,2.83-.56,3.7-.08.42-.13.75-.18,1a1.5,1.5,0,0,1-.08.35,1.61,1.61,0,0,1,0-.36c0-.26.07-.6.11-1,.12-.91.28-2.18.48-3.72.39-3.14.92-7.48,1.44-12.28s.9-9.15,1.17-12.3c.14-1.55.25-2.82.33-3.74,0-.41.07-.75.09-1A1.51,1.51,0,0,1,308.28,440.38Z" style="fill:#263238"></path><path d="M304.17,464.74a15.29,15.29,0,0,0-7.16-12c-1.05-.65-2.46-1.14-3.45-.41s-.95,2.23-.62,3.42a13,13,0,0,0,11.12,9.28" style="fill:#FF725E"></path><path d="M297.16,456.55a3.2,3.2,0,0,1,.67.37,5.9,5.9,0,0,1,.75.51,11.67,11.67,0,0,1,.95.73c.33.3.71.61,1.06,1a15.42,15.42,0,0,1,1.12,1.24,17,17,0,0,1,2,3.24,16.54,16.54,0,0,1,1.18,3.64,15,15,0,0,1,.23,1.66,12.25,12.25,0,0,1,.05,1.45,10.5,10.5,0,0,1-.07,1.2,6,6,0,0,1-.12.89,3.7,3.7,0,0,1-.16.76c-.06,0,.16-1.09.15-2.85,0-.44,0-.92-.09-1.43a14.71,14.71,0,0,0-.25-1.63,16.86,16.86,0,0,0-1.18-3.56,17.41,17.41,0,0,0-2-3.2,13.53,13.53,0,0,0-1.08-1.24,11.92,11.92,0,0,0-1-1C298.08,457.15,297.13,456.6,297.16,456.55Z" style="fill:#263238"></path></g><g id="freepik--Character--inject-115"><path d="M74.76,175.07c-.57-.53-1.38-1.06-2.06-.69s-.71,1.17-.71,1.88q0,6.36-.07,12.71l9.92-1.4A23.87,23.87,0,0,0,74.76,175.07Z" style="fill:#66433d"></path><path d="M198.47,230.6c7-4.16,16.31-12.58,14.67-21.66l-41.45,24.27c5.83,2.48,14.84,10.3,20.39,13.36s12.11,5.18,18.2,3.43c5.13-1.48,9.2-5.54,11.84-10.18s4-9.87,5.4-15A42.71,42.71,0,0,1,198.47,230.6Z" style="fill:#263238"></path><path d="M203.18,208.51a40,40,0,0,1-10.3-3,14.92,14.92,0,0,0-8.85-.9l-8.82,1.79a24.54,24.54,0,0,0,10.59-13.73h0l-13,3.8,4.31-7.48s-3.87.41-14.65,2-16.15-4.83-26.28-5.22c-6.31-.24-9.55,1.06-11.09,2.08,3.11-2.7,8.33-6.72,9.89-9.56-3.55,1.81-7.85.83-11.59-.55s-7.51-3.18-11.49-2.9c-6.52.46-12,6.41-18.53,5.69-2.41-.27-4.67-1.46-7.09-1.57a10.49,10.49,0,0,0-7.69,3.37c-2,2-3.41,6.67-4.6,9.29l100.17,41.6c11.5-1.07,39.28-24.7,39.28-24.7S210.2,209.39,203.18,208.51Z" style="fill:#263238"></path><path d="M84.16,172.54c-.42,2.51-2.83,4.2-5.23,5.05s-5,1.17-7.21,2.42a10,10,0,0,0-4,12.48l5.42-1C78.37,186.24,88,179.19,84.16,172.54Z" style="fill:#263238"></path><path d="M57.58,201c-2.54-.54-4.23-3.22-4.27-5.82a11.14,11.14,0,0,1,2.94-7c1.66-2,3.69-3.65,5.48-5.54A13.49,13.49,0,0,0,65.59,176c.87,5.18,1.74,10.47.85,15.65s-3.23,7.56-8.09,9.54" style="fill:#263238"></path><path d="M135,178.28s-.09.15-.3.4-.53.61-1,1a17,17,0,0,1-4.27,3.06,19.53,19.53,0,0,1-7.54,1.92,66.27,66.27,0,0,1-9.52-.31,42.17,42.17,0,0,0-9.42.05,18.48,18.48,0,0,0-7.14,2.62,12.05,12.05,0,0,0-3.65,3.61c-.64,1-.85,1.69-.91,1.67a1.57,1.57,0,0,1,.14-.48,9.28,9.28,0,0,1,.6-1.3,11.58,11.58,0,0,1,3.62-3.8,18.1,18.1,0,0,1,7.27-2.79,40.76,40.76,0,0,1,9.53-.1,72.3,72.3,0,0,0,9.45.36,19.78,19.78,0,0,0,7.41-1.78,18.17,18.17,0,0,0,4.29-2.88C134.52,178.76,135,178.24,135,178.28Z" style="fill:#455a64"></path><path d="M171.69,191.61a2.12,2.12,0,0,1-.38.42,12.75,12.75,0,0,1-1.21,1.09,20.9,20.9,0,0,1-5.16,3,30.81,30.81,0,0,1-8.62,2.06,57.5,57.5,0,0,1-10.85-.15c-3.83-.35-7.45-.83-10.76-1.08a32.85,32.85,0,0,0-8.75.17,10.57,10.57,0,0,0-5.29,2.39,13.75,13.75,0,0,0-1.42,1.63,5.74,5.74,0,0,1,1.28-1.78,10.55,10.55,0,0,1,5.36-2.6,32.05,32.05,0,0,1,8.85-.28c3.33.22,7,.68,10.78,1a59.26,59.26,0,0,0,10.75.19,31.53,31.53,0,0,0,8.53-1.92A22,22,0,0,0,170,193C171.1,192.13,171.64,191.57,171.69,191.61Z" style="fill:#455a64"></path><path d="M185.8,192.65a3.08,3.08,0,0,1-.32.49,11.84,11.84,0,0,1-1.06,1.29,27.31,27.31,0,0,1-4.73,3.9,40.25,40.25,0,0,1-8.07,4.19,18.12,18.12,0,0,1-5.28,1.2,47,47,0,0,1-5.77-.19c-3.93-.35-7.64-.94-11-1.12a32,32,0,0,0-8.95.61,18.89,18.89,0,0,0-5.62,2.2c-1.23.75-1.83,1.28-1.86,1.23s.13-.15.42-.4a13.73,13.73,0,0,1,1.33-1,18.41,18.41,0,0,1,5.64-2.38,31.75,31.75,0,0,1,9.07-.73c3.43.16,7.15.73,11.06,1.08a46.07,46.07,0,0,0,5.71.2,17.85,17.85,0,0,0,5.12-1.14,41.43,41.43,0,0,0,8-4,31.24,31.24,0,0,0,4.79-3.73C185.3,193.28,185.75,192.61,185.8,192.65Z" style="fill:#455a64"></path><path d="M213.14,208.94a2.21,2.21,0,0,1-.35.43,11.7,11.7,0,0,1-1.12,1.11,17.23,17.23,0,0,1-5,3,27.84,27.84,0,0,1-8.39,1.78,76.79,76.79,0,0,1-10.49-.27,64,64,0,0,0-10.41-.11,26.14,26.14,0,0,0-8.18,2.08,17.21,17.21,0,0,0-4.73,3.14c-1,.94-1.42,1.56-1.46,1.52a1.93,1.93,0,0,1,.3-.46,11.43,11.43,0,0,1,1-1.2,16,16,0,0,1,4.73-3.33,25.4,25.4,0,0,1,8.28-2.23,61.67,61.67,0,0,1,10.5.08,83.16,83.16,0,0,0,10.42.3,28.3,28.3,0,0,0,8.28-1.64,18.33,18.33,0,0,0,5-2.78C212.6,209.48,213.09,208.9,213.14,208.94Z" style="fill:#455a64"></path><path d="M83.48,173.12a2.7,2.7,0,0,1,.32.83,9.56,9.56,0,0,1,.45,2.38,4.53,4.53,0,0,1-1.18,3.42,4.2,4.2,0,0,1-1.94,1c-.73.19-1.48.27-2.22.42a8.17,8.17,0,0,0-3.73,1.86,9,9,0,0,0-2.1,2.72,13.29,13.29,0,0,0-.93,3.08,2.22,2.22,0,0,1,0-.89,7.34,7.34,0,0,1,.62-2.34,8.91,8.91,0,0,1,2.11-2.93,8.3,8.3,0,0,1,4-2c1.52-.28,3-.38,3.93-1.28a4.28,4.28,0,0,0,1.14-3.08,12.13,12.13,0,0,0-.27-2.33A3.53,3.53,0,0,1,83.48,173.12Z" style="fill:#455a64"></path><polygon points="240.31 238.03 223.13 236.91 222.35 237.91 220.22 247.75 212.45 253.6 224.77 258.59 241.14 252.97 240.31 238.03" style="fill:#263238"></polygon><path d="M221.93,238.6s0-.27.2-.74l.32-.89-.13.95c-.21,1.5-.88,5.13-1.74,9.35l-.11.54,0,.09-.08.06c-2.17,1.63-4.12,3.07-5.55,4.08a16.33,16.33,0,0,1-2.37,1.56,16.1,16.1,0,0,1,2.15-1.85c1.37-1.09,3.3-2.57,5.46-4.2l-.1.15.11-.53c.86-4.23,1.66-7.83,2.06-9.29l.18.06A2.51,2.51,0,0,1,221.93,238.6Z" style="fill:#455a64"></path><path d="M449.77,316.56c-6.89-1.48-14.21-1.12-20.71-3.95-10.13-4.41-15.95-15.34-22.59-24.54-5.28-7.32-11.54-13.95-19-18.76s-16.09-7.73-24.8-7.43l17.75,25.58c4.67.88,6.73,6.54,8.33,11.25,4.38,12.91,11.63,24.93,21.81,33.45S434,345.48,446.93,343.9c5.83-.71,11.48-2.66,17.32-3.25s12.24.44,16.41,4.78C476.11,331,463.89,319.6,449.77,316.56Z" style="fill:#263238"></path><path d="M376.52,332s-6.75,19.2,19.94,37.31c0,0,9.52,4.53,10.45,7.29s0,7.28,2.43,15S420.85,419.3,423.09,423c.48.8,3.58,2.93,3.58,2.93a16.36,16.36,0,0,0,3.41,11.91l-13.35,17.43-4.37-10.78,1.39-7.66c-4.57-6.5-4.57-9.85-9.33-18.65-4.31-8-3.11-13.85-9.83-19.17s-27.81-27.74-27.81-27.74l-15.12-18.5s23.71-21.08,23.89-20.78" style="fill:#66433d"></path><path d="M157.9,356.1s7.49,20.38,10,32.54,7.18,45.06,6.91,55.57a63.44,63.44,0,0,1-3.6,19.07l-6.35,7.47,1.51,5,18.05.27s-1.87-5.52,3.93-13.81,5.53-13.55,5.53-13.55-5.25-32.34-3.59-49.76.83-44.23.83-44.23Z" style="fill:#66433d"></path><path d="M371.67,462.62s8.94-50,9.67-53.67S369.05,378.76,367,370.06s3.49-14.32,4.77-21.67,9.67-19.53,12.39-36.84a83.55,83.55,0,0,0,0-22c-18.46-40.91-45-34.84-60.45-37.35s-59.44,9.28-76.13,10.06-41.83-12.58-50.09-16.06-34.67-20.32-44.58-25-43.66-24.19-56.5-26.51S70,190.12,70,190.12s-7.12,2.53-8.44,5.61c-.47,1.12-10.09,17-10.09,17L33,246.23s-11.3,17.84-10.64,23.22,4,9.86,4.22,10.44l2,1.85a7.87,7.87,0,0,0,6.69,2,28.12,28.12,0,0,0,5.24-1.57s-1.94,3.05-.72,3.66,4.2,0,4.2,0c4.77-.58,4.5-7,6.11-8.46,2.65-2.44,2.54-2.82,6.53-4.94,4.69-2.48,19.63-9.39,23.85-13.65s14.12-4.06,14.12-4.06,21.29,25.15,27,41.79,2.94,24.39,7.71,40.84,25.86,25.9,41.83,27.08c13.23,1,21,4.67,53.06,5.64s44.7-32.1,87-30.58c4.43.16,26,26.28,26.19,27.44s14.31,30.39,18.72,41.61,3.67,11.22,2.38,17.8-5.83,23.2-6.75,27.84l-11,8.42L333.19,476H362.7s-1.4-6.44,3.79-9.91Z" style="fill:#a36456"></path><g style="opacity:0.8"><path d="M374.92,444.49c-1.79,10-3.25,18.13-3.25,18.13l-5.18,3.46c-5.19,3.47-3.79,9.91-3.79,9.91H333.19l7.51-13.37,11-8.42c.92-4.64,5.47-21.26,6.75-27.84s2-6.58-2.38-17.8c0,0,7.59-.28,8.67,6.12s2.45,20.9,4.89,22.1S374.92,444.49,374.92,444.49Z" style="fill:#fff"></path></g><g style="opacity:0.8"><path d="M145.59,254.41c-4.87-2.47-15.45,13.63-26.11,5.71a65.55,65.55,0,0,0-12-7.13A14.06,14.06,0,0,0,94,254h0s21.28,25.15,27,41.79,2.94,24.39,7.71,40.83c0,0,8-19,7.76-37.35s-1.65-21.55,4.59-26.81C146.67,267.71,150.47,256.89,145.59,254.41Z" style="fill:#fff"></path></g><path d="M95.34,255.31a1.45,1.45,0,0,1,.16.17L96,256c.41.51,1,1.19,1.67,2.05,1.44,1.79,3.51,4.38,6,7.64s5.41,7.2,8.39,11.75A100.38,100.38,0,0,1,120.43,293a59.74,59.74,0,0,1,3,8.67,84,84,0,0,1,1.58,8.39c.73,5.39,1.11,10.27,1.65,14.33a79,79,0,0,0,1.73,9.54c.25,1.12.54,2,.69,2.55l.18.67a1,1,0,0,1,0,.23.73.73,0,0,1-.09-.22l-.23-.65c-.18-.57-.5-1.41-.78-2.53a69.84,69.84,0,0,1-1.91-9.54c-.58-4.07-1-8.94-1.76-14.31a82.15,82.15,0,0,0-1.6-8.33,58,58,0,0,0-3-8.6c-4.91-11.52-11.76-20.7-16.61-27.27l-5.88-7.74-1.6-2.11-.4-.56C95.37,255.38,95.33,255.32,95.34,255.31Z" style="fill:#66433d"></path><g style="opacity:0.8"><path d="M48.14,218.22,29.61,251.69s8.55-1.9,11.65-5.31,10-7.75,10-7.75a9.68,9.68,0,0,0,3.39-7c0-1.74,1.11-5.79.27-7.68a15.85,15.85,0,0,1-.56-11.7l3.88-11C57.75,202.31,48.14,218.22,48.14,218.22Z" style="fill:#fff"></path></g><g style="opacity:0.2"><path d="M91,222.25c2.75,2.4,6.36,6.31,7.83,10A19.28,19.28,0,0,1,99.74,244a12.65,12.65,0,0,1-7.55,8.34c6.32-11,4.78-22-.85-29.57"></path></g><path d="M71.92,257.68c0-.06.78.26,2.21.55a17.37,17.37,0,0,0,6.13.07,18.59,18.59,0,0,0,8.28-3.6,19.81,19.81,0,0,0,6.37-9,22.78,22.78,0,0,0,1.1-11,27,27,0,0,0-2.83-8.66,32.68,32.68,0,0,0-3.4-5.17c-.92-1.14-1.48-1.72-1.44-1.76a3.51,3.51,0,0,1,.44.4c.28.27.67.68,1.16,1.24a28.83,28.83,0,0,1,3.56,5.12,26.64,26.64,0,0,1,3,8.76A23,23,0,0,1,95.4,245.9a20,20,0,0,1-6.57,9.18,18.68,18.68,0,0,1-8.51,3.59,16.49,16.49,0,0,1-6.23-.25,12.31,12.31,0,0,1-1.63-.5A3.26,3.26,0,0,1,71.92,257.68Z" style="fill:#66433d"></path><path d="M29.84,277.56a18.42,18.42,0,0,0,3.59-6.73c.32-1.85-.51-4-2.28-4.63a3.79,3.79,0,0,0-4.38,2,6.06,6.06,0,0,0,.07,5.08,16.45,16.45,0,0,0,3,4.28" style="fill:#66433d"></path><path d="M34.77,266.52a3.42,3.42,0,0,1,1,1.41,7.83,7.83,0,0,1-.78,7.95c-.64.86-1.19,1.24-1.23,1.19s.39-.52.92-1.4A8.73,8.73,0,0,0,35.92,272a8.82,8.82,0,0,0-.52-3.89A16.06,16.06,0,0,1,34.77,266.52Z" style="fill:#66433d"></path><path d="M58.54,222.17c1,1.51,2.3,3.61,4.09,3.22a4.76,4.76,0,0,0,3.57-3.74c-1-.28-1.93-.75-2.92-1.05a4.3,4.3,0,0,0-3,0,2.63,2.63,0,0,0-1.7,1.54" style="fill:#fff"></path><path d="M64.47,220.89a4.89,4.89,0,0,1-.08,2.63,2.77,2.77,0,0,1-2,2,4,4,0,0,1-2.32,0A2.93,2.93,0,0,1,58.33,224a3.23,3.23,0,0,1-.1-2.31,3.29,3.29,0,0,1,2.39-1.49A6.74,6.74,0,0,1,64.47,220.89Z" style="fill:#263238"></path><path d="M65.91,198.09s-5.49-4.83-7-8.69-2.1-11.7-2.9-13.63,1.23-3.22,2.9-1.61,15.2,18.89,15.2,18.89Z" style="fill:#a36456"></path><path d="M66.54,196.27a36.17,36.17,0,0,0-9.34-21.78,69.32,69.32,0,0,0,2.57,12,20.74,20.74,0,0,0,6.79,10" style="fill:#66433d"></path><path d="M67.82,222.3a6.48,6.48,0,0,1-2.22-.76,20.47,20.47,0,0,0-2.31-.93,5.49,5.49,0,0,0-2.91-.14,4,4,0,0,0-2.24,1.76,15.31,15.31,0,0,0-1.16,2.2,5.78,5.78,0,0,1-1.21,2c-.05,0,.38-.8.87-2.15a13.16,13.16,0,0,1,1.1-2.32,4.39,4.39,0,0,1,2.5-2,5.66,5.66,0,0,1,3.19.18,16.83,16.83,0,0,1,2.33,1.06C67,221.9,67.84,222.23,67.82,222.3Z" style="fill:#263238"></path><path d="M123.87,264a2.38,2.38,0,0,1,.28.37c.17.26.43.62.72,1.12a37.08,37.08,0,0,1,2.22,4.34,54.81,54.81,0,0,1,4,15.54,110.41,110.41,0,0,1,.5,16.06c-.06,2-.14,3.71-.21,4.86a12.48,12.48,0,0,1-.15,1.78,11.52,11.52,0,0,1-.05-1.79c0-1.23,0-2.87.05-4.86a131.69,131.69,0,0,0-.66-16,58.56,58.56,0,0,0-3.8-15.46c-.78-1.89-1.52-3.37-2.06-4.38A12.46,12.46,0,0,1,123.87,264Z" style="fill:#66433d"></path><path d="M67,220.68a9.59,9.59,0,0,1-1.53-1.12,8.44,8.44,0,0,0-3.94-1.88,3.45,3.45,0,0,0-2.25.38,5.55,5.55,0,0,0-1.35,1.4c-.68.95-1.22,1.48-1.27,1.42a12.94,12.94,0,0,1,1-1.63,5.26,5.26,0,0,1,1.4-1.59,3.71,3.71,0,0,1,2.58-.49,7.75,7.75,0,0,1,4.11,2.11A5.74,5.74,0,0,1,67,220.68Z" style="fill:#263238"></path><path d="M47.2,272.8a32.67,32.67,0,0,1-3.07,4.91,31.46,31.46,0,0,1-3.49,4.61,32.08,32.08,0,0,1,3.06-4.91A31.75,31.75,0,0,1,47.2,272.8Z" style="fill:#66433d"></path><path d="M76.41,195.22c0,.05-.55-.32-1.26-1a33.24,33.24,0,0,1-2.55-3,50.77,50.77,0,0,1-3.23-4.47c.13-.12,1.81,1.72,3.64,4.15.93,1.2,1.78,2.28,2.41,3S76.46,195.16,76.41,195.22Z" style="fill:#66433d"></path><path d="M301.65,309.25a2.09,2.09,0,0,1,.15.54c.09.42.2.94.33,1.58.28,1.37.69,3.35,1.31,5.76,1.26,4.8,3.21,11.53,7.45,17.86a114.42,114.42,0,0,0,12.22,15.14c1.73,1.81,3.16,3.23,4.17,4.19.47.45.86.82,1.16,1.12a2.74,2.74,0,0,1,.39.41,2.08,2.08,0,0,1-.46-.34c-.28-.23-.7-.57-1.22-1-1.06-.92-2.54-2.3-4.3-4.08a102.69,102.69,0,0,1-12.39-15.12,45.55,45.55,0,0,1-4.86-9.62,70.66,70.66,0,0,1-2.52-8.43c-.57-2.44-.94-4.43-1.15-5.81-.12-.69-.18-1.23-.23-1.6A2.91,2.91,0,0,1,301.65,309.25Z" style="fill:#66433d"></path><path d="M284.65,336.65a5.21,5.21,0,0,1-1,.63c-.66.37-1.61.92-2.77,1.63a67.12,67.12,0,0,0-16,13.62c-.89,1-1.59,1.87-2.06,2.47a5.24,5.24,0,0,1-.78.88,5.1,5.1,0,0,1,.62-1c.42-.64,1.08-1.52,1.93-2.58a57.22,57.22,0,0,1,7.43-7.61,57.82,57.82,0,0,1,8.72-6.1c1.18-.67,2.16-1.17,2.85-1.49A5.21,5.21,0,0,1,284.65,336.65Z" style="fill:#66433d"></path><path d="M377,413.52a5.58,5.58,0,0,1-.52,1.09c-.36.68-.87,1.68-1.47,2.92a70.79,70.79,0,0,0-4,10,69.29,69.29,0,0,0-2.33,10.51c-.2,1.36-.34,2.47-.42,3.24a5.68,5.68,0,0,1-.18,1.19,5.09,5.09,0,0,1,0-1.2c0-.78.1-1.9.25-3.28a59.35,59.35,0,0,1,2.21-10.62,58.46,58.46,0,0,1,4.12-10c.65-1.23,1.21-2.2,1.63-2.86A5.28,5.28,0,0,1,377,413.52Z" style="fill:#66433d"></path><path d="M374.12,326.44c-.08,0,.47-1.32,1.16-3.45a42.59,42.59,0,0,0,1.88-17.27c-.21-2.23-.48-3.6-.39-3.61a3.79,3.79,0,0,1,.28.94c.15.61.32,1.51.48,2.63a36.91,36.91,0,0,1-1.9,17.43c-.39,1.06-.75,1.9-1,2.47A3.89,3.89,0,0,1,374.12,326.44Z" style="fill:#66433d"></path><g style="opacity:0.2"><path d="M301.5,308.23c-2.41,5.79-1.41,12.61,1.41,18.24s7.38,10.36,12,14.7A72.51,72.51,0,0,1,301.5,308.23Z"></path></g><path d="M31,249.43s27.23,6.56,32.47,22.3l3.72-2.26s-9.4-18.41-34.37-23.1Z" style="fill:#455a64"></path><path d="M84.22,212.75c-1.07.71-30.49,46.3-30.49,46.3l3.47,1.65,31.15-45.29Z" style="fill:#455a64"></path><path d="M59.75,264.49s62.45-21.84,72.36-24.62,63.51-17.22,63.51-17.22l10.82,6.13c-10.83-4.24-59.93,10.88-70.17,14.67-10.45,3.88-72.37,23.66-72.37,23.66Z" style="fill:#455a64"></path><path d="M88.35,216.05a5.2,5.2,0,1,1,5.2-5.2A5.21,5.21,0,0,1,88.35,216.05Zm0-9.4a4.2,4.2,0,1,0,4.2,4.2A4.2,4.2,0,0,0,88.35,206.65Z" style="fill:#455a64"></path><polygon points="87.34 206.15 86.02 192.9 90.43 193.68 91.29 207.19 87.34 206.15" style="fill:#455a64"></polygon><path d="M202.72,232.48a17.69,17.69,0,0,1,3.72,9,58.78,58.78,0,0,1,.61,9.1l3.9,1.75s-.84-16.28-3.2-19.11-2.91-2-2.91-2Z" style="fill:#455a64"></path><path d="M71.37,203.15a5.58,5.58,0,0,1-1.79-.8,20.38,20.38,0,0,1-3.79-2.8,20.67,20.67,0,0,1-3.06-3.6,6,6,0,0,1-.92-1.73,56.08,56.08,0,0,0,4.34,4.95A54.48,54.48,0,0,0,71.37,203.15Z" style="fill:#66433d"></path><path d="M161.25,268.43a22.49,22.49,0,0,1-3.81-2.92,21.87,21.87,0,0,1-3.46-3.32,22.66,22.66,0,0,1,3.8,2.92A22.77,22.77,0,0,1,161.25,268.43Z" style="fill:#66433d"></path><path d="M164.11,268.43a43.91,43.91,0,0,1-7.28-6.24,22,22,0,0,1,3.81,2.92A22.77,22.77,0,0,1,164.11,268.43Z" style="fill:#66433d"></path><path d="M174.24,267.13a39.43,39.43,0,0,1-6.07-2,38,38,0,0,1-5.88-2.46,40.3,40.3,0,0,1,6.06,2A39,39,0,0,1,174.24,267.13Z" style="fill:#66433d"></path><path d="M348.09,293.85c-.14.07-1.11-1.78-2.78-3.7s-3.34-3.17-3.25-3.3a13.22,13.22,0,0,1,6,7Z" style="fill:#66433d"></path><path d="M348.81,291.29a8.85,8.85,0,0,1-2.15-2.17,9,9,0,0,1-1.75-2.51,17.81,17.81,0,0,1,3.9,4.68Z" style="fill:#66433d"></path><path d="M352.69,294.93a22.06,22.06,0,0,0-1.92-6.17,22.46,22.46,0,0,0-4-5.07,4.83,4.83,0,0,1,1.59,1.12,13.61,13.61,0,0,1,4.31,8.17A4.86,4.86,0,0,1,352.69,294.93Z" style="fill:#66433d"></path><path d="M364.7,467.66c-9.05-.27-17.92-1.1-26.89.11L333.19,476H362.7C362.3,470.34,364.7,467.66,364.7,467.66Z" style="fill:#263238"></path><g style="opacity:0.8"><path d="M363,303.51c-2.72-2.78-7.51-2.42-10.74-.27s-4.62,3.41-6.56,6.79c-2.16,2.71-1.63,6.6-1,10L347,332c.49,2.6,1.34,5.63,3.84,6.49,2.76.94,5.6-1.6,6.52-4.36s.64-5.79,1.29-8.62c.89-3.88,3.43-7.14,5-10.76S365.81,306.35,363,303.51Z" style="fill:#fff"></path></g><path d="M58.23,201.19c.12.07-6.35,11.75-14.45,26.09S29,253.19,28.88,253.12s6.34-11.75,14.45-26.1S58.1,201.12,58.23,201.19Z" style="fill:#66433d"></path><path d="M138.1,419.38c-.25-3.1-4.69-9.58-10.24-16.86-2-2.91-4.16-6.22-3.33-9.68.56-2.36,1.1-2.4,2.87-4.07,13.33-12.55,24.62-26,46.4-30.3l-34.51-30.62c2.44,17.91-15.92,31.46-25.74,42.22-4.59,5-9.64,10.29-10.64,17-.81,5.42.8,9.79,3.78,14.4,5.87,9.08,9.94,17.56,15.43,26.63,2.27,6,3.84,11.43,3.33,14.05l4.51,7.94s6.55-4.47,10.46-7.7l3.51-9.68-4.11-4.51A70.9,70.9,0,0,1,138.1,419.38Z" style="fill:#a36456"></path><g style="opacity:0.8"><path d="M139.88,428.22a72.23,72.23,0,0,1-1.73-8.84c-.45.28-7.37-5.68-12.78-10.11s-18.63-7.78-18.63-7.78c5.88,9.08,9.94,17.56,15.43,26.63,2.28,6,3.85,11.43,3.33,14.05l4.52,7.94s6.55-4.47,10.46-7.7l3.51-9.68Z" style="fill:#fff"></path></g><path d="M120,382.34a6.73,6.73,0,0,1,1.26,1.68,23,23,0,0,1,2.14,4.57,22.63,22.63,0,0,1,1.07,4.94,6.87,6.87,0,0,1,0,2.09,58.27,58.27,0,0,0-1.59-6.86A56.86,56.86,0,0,0,120,382.34Z" style="fill:#66433d"></path><path d="M125.45,442.17c6-2.79,12.79-7.52,14.37-13.95l4.34,4.62-3.68,9.57c-2.34,2.1-6.3,4.93-10.43,7.84Z" style="fill:#263238"></path><path d="M130.41,423.89a8.26,8.26,0,0,1-1.09-8.75,20.44,20.44,0,0,0-.21,4.47A20,20,0,0,0,130.41,423.89Z" style="fill:#66433d"></path><path d="M125.81,442.26a12.71,12.71,0,0,1-.56-1.68c-.32-1.09-.81-2.67-1.46-4.59a121.87,121.87,0,0,0-6-14.7,123.6,123.6,0,0,0-7.9-13.77c-1.13-1.7-2.06-3-2.72-4a11.51,11.51,0,0,1-1-1.47,11.85,11.85,0,0,1,1.14,1.35c.71.89,1.7,2.22,2.86,3.89a105.79,105.79,0,0,1,8.07,13.75,106,106,0,0,1,5.88,14.81c.6,1.95,1,3.54,1.31,4.65A10,10,0,0,1,125.81,442.26Z" style="fill:#66433d"></path><path d="M137.61,417.22a32,32,0,0,1,1.32,5.57,32.35,32.35,0,0,1,.82,5.68,62.27,62.27,0,0,1-2.14-11.25Z" style="fill:#66433d"></path><path d="M374.92,442.49a5.91,5.91,0,0,1-.1,1.23c-.12.89-.27,2-.45,3.31-.4,2.8-1,6.65-1.68,10.9l-.77,4.73,0,.13-.13.06A17.8,17.8,0,0,0,365.4,467a14.24,14.24,0,0,0-1.41,1.72,5.72,5.72,0,0,1-.45.67,2,2,0,0,1,.31-.75,10.68,10.68,0,0,1,1.32-1.85,17,17,0,0,1,6.41-4.42l-.15.19c.23-1.48.49-3.07.75-4.73.68-4.25,1.33-8.1,1.83-10.88.24-1.3.45-2.4.61-3.28A5.44,5.44,0,0,1,374.92,442.49Z" style="fill:#66433d"></path><path d="M194.32,328.78a2.66,2.66,0,0,1-.35.48l-1.1,1.33c-1,1.15-2.34,2.81-4,4.92a153.41,153.41,0,0,0-11.67,17.27c-1.15,2-2.22,3.94-3.21,5.81l-.05.1-.11,0a121.34,121.34,0,0,0-15.39,5.46c-1.87.82-3.34,1.51-4.34,2a16.34,16.34,0,0,1-1.56.76s.12-.1.36-.26.62-.39,1.12-.65c1-.56,2.43-1.3,4.29-2.16a108.2,108.2,0,0,1,15.39-5.65l-.16.13c1-1.88,2.05-3.85,3.21-5.84a138.29,138.29,0,0,1,11.83-17.24c1.67-2.09,3.11-3.71,4.1-4.83l1.18-1.26C194.16,328.91,194.31,328.76,194.32,328.78Z" style="fill:#66433d"></path><path d="M150.12,296.92a16.06,16.06,0,0,1-1.33,1.21,40,40,0,0,0-3.46,3.47A37.85,37.85,0,0,0,136,331.42a39.37,39.37,0,0,0,.85,4.82,13.48,13.48,0,0,1,.39,1.75,1.66,1.66,0,0,1-.18-.43c-.1-.29-.26-.71-.41-1.27a34,34,0,0,1-1-4.82,36.84,36.84,0,0,1,9.48-30.12,31.88,31.88,0,0,1,3.6-3.37c.44-.38.82-.63,1.06-.81A1.69,1.69,0,0,1,150.12,296.92Z" style="fill:#66433d"></path><path d="M359.33,421.47a3.08,3.08,0,0,1-.07.54c-.08.4-.18.9-.3,1.52l-1.17,5.57c-1.06,4.77-2.5,11.23-4.08,18.36a24.7,24.7,0,0,1-1.53,5.19,12.49,12.49,0,0,1-3.09,4,52.19,52.19,0,0,1-6.93,4.87,11.17,11.17,0,0,0-3.42,4.39l-.67,1.39a3,3,0,0,1-.26.48,1.93,1.93,0,0,1,.16-.52c.12-.33.31-.82.59-1.44a10.85,10.85,0,0,1,3.38-4.59,57.94,57.94,0,0,0,6.82-4.93,12.16,12.16,0,0,0,3-3.86,24.8,24.8,0,0,0,1.48-5.08c1.64-7.12,3.13-13.57,4.23-18.32.55-2.29,1-4.16,1.34-5.55q.23-.9.39-1.5A1.66,1.66,0,0,1,359.33,421.47Z" style="fill:#66433d"></path><g style="opacity:0.2"><path d="M316.7,296.94c-3-.16-5.92.72-8.81,1.49a113.67,113.67,0,0,1-34.45,3.62c-5.6-.27-11.32-.95-16.76.43s-10.66,5.44-11.41,11l1.57,1.34c4.37,2.46,9.85,1.79,14.58.13s9.14-4.23,14-5.51c8.23-2.18,16.91-.46,25.41-.12s18-1.26,23.21-8C322.81,298.57,319.69,297.1,316.7,296.94Z"></path></g><path d="M301.16,252.13a151.33,151.33,0,0,0,21.16,45.24c-9.1,8.05-22,8.76-33.86,8.59s-24.51-.63-34.69,5.81c-2.87,1.81-5.8,4.24-9.13,3.87-2.79-.32-5-2.54-6.9-4.73-8.65-10-20.64-34.23-12.29-52.84,0,0,15,0,21.8.55S301.16,252.13,301.16,252.13Z" style="fill:#455a64"></path><g style="opacity:0.2"><path d="M265.31,268.16c-1.34-2-4.45-1.26-6.67-.28l-24.5,10.81c-6.88,3-14.32,6.61-17.45,13.45-1.8,3.92-1.89,8.39-1.88,12.71L218,353l10.57,14.44a347.57,347.57,0,0,0,.41-48.94c-.4-6.48-.92-13.31,2-19.12,2.68-5.37,7.85-9,12.82-12.34L262,274.68C264.29,273.16,266.82,270.42,265.31,268.16Z"></path></g><path d="M234.87,238.3,265,228.43l.49,8c4.8,6.46,9.38,18.56,4.09,29.88-6.05,12.93-44.18,25.34-44.77,29.46s1.81,50,.36,50-19.77,1.76-19.77,1.76S191.65,301,194,286.88s36.48-33,36.48-33l5.1-4.66Z" style="fill:#263238"></path><path d="M202.14,336.18l6,23.67s-13.72,10.94-14.36,12.55c-.87,2.14,1,4.72,5.18,3.67,3.46-.87,21.39-4.94,27.56-6.34a2.27,2.27,0,0,0,1.73-2.59l-1.88-11.29.32-22.8Z" style="fill:#455a64"></path><path d="M256,249.29c0,.1-1.51-.5-4-.92a26.7,26.7,0,0,0-4.43-.37,29.17,29.17,0,0,0-5.4.53,27.82,27.82,0,0,0-9.18,3.54c-2.16,1.34-3.32,2.42-3.39,2.34a5.85,5.85,0,0,1,.78-.79,18.74,18.74,0,0,1,2.41-1.86,25.76,25.76,0,0,1,9.28-3.74,27.72,27.72,0,0,1,5.51-.5,23.69,23.69,0,0,1,4.49.49,13.81,13.81,0,0,1,1.68.41,11.49,11.49,0,0,1,1.25.41A3.68,3.68,0,0,1,256,249.29Z" style="fill:#455a64"></path><path d="M292,170.91a11.91,11.91,0,0,0,3.66-7,14.07,14.07,0,0,1-16-8.72c-1.13-3.23-1.33-7.29-4.27-9-2.11-1.26-4.84-.74-7.17-1.54-2.9-1-4.69-3.82-7.12-5.69a12.53,12.53,0,0,0-16,1.08l15.38,41.22a24.75,24.75,0,0,0,37.36-9.74A16.3,16.3,0,0,1,292,170.91Z" style="fill:#263238"></path><path d="M235,119.36c-3.54-3.41-8.73-.08-10.58,3.76s-2,9.19-1.83,13.45c.19,4.88,0,10.22,2.25,14.57a21,21,0,0,0,29.91,8.18Z" style="fill:#263238"></path><path d="M252.45,166l2-37.19a3.16,3.16,0,0,0-2.74-3.28l-16.62-4.71c-5.35-.72-9.1,5.78-9.6,11.16-.54,6-1,13.28-.39,17.76,1.17,9,8,10.35,8,10.35l-.1,5.14-.27,5.88Z" style="fill:#ffbe9d"></path><path d="M227.84,139.81a1.16,1.16,0,0,0,1.08,1.2,1.1,1.1,0,0,0,1.21-1,1.15,1.15,0,0,0-1.07-1.19A1.1,1.1,0,0,0,227.84,139.81Z" style="fill:#263238"></path><path d="M227,135.87c.14.15,1-.47,2.27-.43s2.13.68,2.27.54-.07-.34-.46-.64a3.16,3.16,0,0,0-1.81-.62,3,3,0,0,0-1.81.53C227.07,135.53,226.93,135.8,227,135.87Z" style="fill:#263238"></path><path d="M239.29,139.81a1.16,1.16,0,0,0,1.07,1.2,1.11,1.11,0,0,0,1.22-1,1.16,1.16,0,0,0-1.08-1.19A1.1,1.1,0,0,0,239.29,139.81Z" style="fill:#263238"></path><path d="M239.17,136.44c.14.16,1-.46,2.26-.42s2.13.68,2.27.53-.07-.34-.46-.64a3.2,3.2,0,0,0-1.81-.61,3,3,0,0,0-1.81.53C239.24,136.11,239.1,136.38,239.17,136.44Z" style="fill:#263238"></path><path d="M234.41,145.5a7.93,7.93,0,0,0-2-.42c-.31,0-.61-.11-.66-.33a1.62,1.62,0,0,1,.24-.93l1-2.38a40.69,40.69,0,0,0,2.28-6.24,41.75,41.75,0,0,0-2.77,6l-1,2.4a1.79,1.79,0,0,0-.2,1.23.81.81,0,0,0,.51.48,1.89,1.89,0,0,0,.53.09A8.23,8.23,0,0,0,234.41,145.5Z" style="fill:#263238"></path><path d="M233.14,160.13a22.82,22.82,0,0,0,12.11-2.87s-3.2,6.31-12.16,5.22Z" style="fill:#eb996e"></path><path d="M234.51,148.45a3.07,3.07,0,0,1,2.55-1.26,2,2,0,0,1,1.6.93,1.82,1.82,0,0,1-2.11,2.67,4.52,4.52,0,0,1-1.79-1.18,1.37,1.37,0,0,1-.38-.48.63.63,0,0,1,.06-.62" style="fill:#eb996e"></path><path d="M238,146.46c-.2,0-.24,1.33-1.42,2.25s-2.6.73-2.62.92.32.27.92.3a3.34,3.34,0,0,0,2.18-.69,2.93,2.93,0,0,0,1.11-1.89C238.27,146.79,238.12,146.45,238,146.46Z" style="fill:#263238"></path><path d="M238.77,131.33c.11.34,1.35.22,2.8.43s2.61.65,2.81.35c.09-.14-.11-.46-.57-.8a4.67,4.67,0,0,0-2.07-.79,4.74,4.74,0,0,0-2.21.19C239,130.91,238.72,131.17,238.77,131.33Z" style="fill:#263238"></path><path d="M227.56,131.62c.21.29,1.07,0,2.1,0s1.89.25,2.09,0,0-.43-.4-.7a3.06,3.06,0,0,0-3.38,0C227.6,131.19,227.47,131.48,227.56,131.62Z" style="fill:#263238"></path><path d="M251.27,141.35c.1-1.92,2.45-2.33,4.11-1.37.92.53,1.62,1.59,1.54,3.63-.23,5.45-5.65,4.1-5.65,3.94S251.16,143.6,251.27,141.35Z" style="fill:#ffbe9d"></path><path d="M253,145.56s.09.07.25.15a.9.9,0,0,0,.7,0,2.34,2.34,0,0,0,1.18-2.06,3.14,3.14,0,0,0-.21-1.36,1.09,1.09,0,0,0-.69-.76.49.49,0,0,0-.57.23,1,1,0,0,0-.07.27s-.12-.09-.06-.32a.58.58,0,0,1,.22-.33.73.73,0,0,1,.53-.12,1.35,1.35,0,0,1,1,.89,3.29,3.29,0,0,1,.27,1.53,2.47,2.47,0,0,1-1.48,2.29,1,1,0,0,1-.87-.18C253,145.69,253,145.57,253,145.56Z" style="fill:#eb996e"></path><path d="M256.72,121.93c-2.76-3.37-7.48-6.64-11.77-7.43s-11.67-2.59-13,3.67l.35.65a13.32,13.32,0,0,0,8.1,8.19c1.82.63,3.92,1,5.1,2.48.86,1.11,1,2.58,1.49,3.89,1,2.64,2.52,9,5.15,10s6.06-2.35,8.86-2.13C261,135.76,260.24,126.2,256.72,121.93Z" style="fill:#263238"></path><path d="M225.05,224.51s-7,17.15-4.2,17.5,30.3,2.76,37.6-2.1,10.21-10.7,14.59-10.22a12.31,12.31,0,0,0,7.13-1.13s-12.89-4.78-14-10.72,1.54-25.75,1.54-25.75,1-17-4.37-21.87c-3.1-2.83-11-7.22-11-7.22l-19.42,5.78h0s-10.32,19.51-12.08,30.4c-.91,5.62,2.27,10.63,2.27,10.63Z" style="fill:#FF725E"></path><g style="opacity:0.2"><path d="M261.06,204.9c-2.8,1.09-4.54,3.89-5.68,6.66s-1.91,5.77-3.7,8.17c-3.09,4.15-8.53,5.72-13.64,6.56s-10.48,1.28-14.86,4L222,233c2.22,1.53,5.11,1.6,7.81,1.52a113.9,113.9,0,0,0,19.12-2.25c2.32-.48,4.74-1.09,6.46-2.72a12.24,12.24,0,0,0,2.83-5.17A57,57,0,0,0,261.06,204.9Z"></path></g><path d="M212.07,223.59l33-8.33,3.48-19.86,15.79,2.46s-6.3,24.29-9.64,28.58-43.55,6.77-43.55,6.77Z" style="fill:#ffbe9d"></path><path d="M260.72,140.67a5.3,5.3,0,0,1,4.55-4.95,3.47,3.47,0,0,1,3.46,1.5,3.42,3.42,0,0,1,.09,2.8,5.13,5.13,0,0,1-8.29,2.06" style="fill:#263238"></path><path d="M266.15,198.15a2.11,2.11,0,0,1-.41,0l-1.19-.14-4.44-.62-15.23-2.28-.23,0,0-.22c.2-2.52.57-5.14,1.05-7.87.36-2,.78-4,1.29-5.81a32.2,32.2,0,0,1,1.85-5.23,13.52,13.52,0,0,1,2.89-4.13,12.06,12.06,0,0,1,3.57-2.57,7.15,7.15,0,0,1,3.6-.52,8.19,8.19,0,0,1,2.64.71,5.05,5.05,0,0,1,1.44,1,2.45,2.45,0,0,1,.3.33l.09.13a6.79,6.79,0,0,0-1.91-1.24,8.52,8.52,0,0,0-2.59-.6,6.9,6.9,0,0,0-3.42.56,12.1,12.1,0,0,0-3.41,2.54,13.41,13.41,0,0,0-2.77,4,31.7,31.7,0,0,0-1.78,5.17c-.51,1.83-.92,3.77-1.27,5.76-.51,2.7-.8,5.37-1.13,7.78l-.15-.24,15.2,2.46,4.41.76,1.18.23C266,198.09,266.15,198.13,266.15,198.15Z" style="fill:#263238"></path><path d="M235.43,213.76a9,9,0,0,1-1.68-1.91,27.57,27.57,0,0,1-4.85-11.19,9.12,9.12,0,0,1-.25-2.53,55.15,55.15,0,0,0,2.53,8.19,36.11,36.11,0,0,0,2.88,5.32A19.56,19.56,0,0,1,235.43,213.76Z" style="fill:#263238"></path><path d="M217.37,358.33a22.27,22.27,0,0,1-4.67,1,21.26,21.26,0,0,1-4.75.48,22.27,22.27,0,0,1,4.67-1A21.22,21.22,0,0,1,217.37,358.33Z" style="fill:#263238"></path><path d="M227.66,367.25a6.48,6.48,0,0,1-1.28.36l-3.5.81c-3,.68-7,1.63-11.53,2.76s-8.54,2.25-11.46,3.06l-3.47,1a6.79,6.79,0,0,1-1.29.29,7.28,7.28,0,0,1,1.23-.48c.8-.29,2-.67,3.42-1.12,2.9-.91,6.94-2.07,11.44-3.21s8.6-2,11.58-2.62c1.49-.29,2.7-.51,3.54-.65A7.75,7.75,0,0,1,227.66,367.25Z" style="fill:#263238"></path><path d="M272.28,130.37a1.69,1.69,0,0,1-.07.47,3.28,3.28,0,0,1-.62,1.21,5.3,5.3,0,0,1-4.52,1.83,8.27,8.27,0,0,1-3.29-1.08,20.77,20.77,0,0,1-3.2-2.31,32.3,32.3,0,0,0-3.39-2.61,8.94,8.94,0,0,0-4.23-1.44,34.94,34.94,0,0,0-4.59.13,17.43,17.43,0,0,1-4.36-.2,16.1,16.1,0,0,1-6.74-2.93,15.37,15.37,0,0,1-3.47-3.53,9.15,9.15,0,0,1-.71-1.15,2.22,2.22,0,0,1-.2-.43c.05,0,.36.55,1.07,1.46a16.51,16.51,0,0,0,3.53,3.35,16.17,16.17,0,0,0,6.6,2.76,17,17,0,0,0,4.25.16,34,34,0,0,1,4.67-.14,9.42,9.42,0,0,1,4.45,1.52,32.44,32.44,0,0,1,3.43,2.69c2,1.79,4.16,3.19,6.21,3.38a4.58,4.58,0,0,0,5.18-3.14Z" style="fill:#455a64"></path><path d="M295.65,157.42s-.08.12-.27.32a7.27,7.27,0,0,1-.91.76,8.7,8.7,0,0,1-4.06,1.52,8.6,8.6,0,0,1-6.15-1.75,8.85,8.85,0,0,1-2.49-2.94,16.45,16.45,0,0,1-1.28-3.91,23,23,0,0,0-1.06-3.85,7.48,7.48,0,0,0-2.08-3,4.46,4.46,0,0,0-3-1,16.76,16.76,0,0,0-2.9.46,6.84,6.84,0,0,1-4.32-.14,3,3,0,0,1-1-.69,1.27,1.27,0,0,1-.24-.34,4.69,4.69,0,0,0,1.29.85,7,7,0,0,0,4.16,0,16.17,16.17,0,0,1,3-.53,4.81,4.81,0,0,1,3.34,1,7.73,7.73,0,0,1,2.26,3.13,23.14,23.14,0,0,1,1.1,3.94,16,16,0,0,0,1.22,3.79,8.5,8.5,0,0,0,2.33,2.79,8.31,8.31,0,0,0,5.83,1.76,9.06,9.06,0,0,0,4-1.32C295.21,157.79,295.61,157.39,295.65,157.42Z" style="fill:#263238"></path><path d="M208.55,224.2s-6.63-4.92-7.5-4.63-8,4.23-8,4.23l-.58,6a3.47,3.47,0,0,0,1.53,0l.36-.22a2,2,0,0,0,1.83,1.76s1.17,2,2.7,1.16c0,0,0,1.24,1.11,1.32a3.84,3.84,0,0,0,2-.51l.73-.81,1.9-.65s1.4,2.33,3.4,2.33,7.35-1.84,7.35-1.84l-2.43-8.95Z" style="fill:#ffbe9d"></path><path d="M203.92,227.82c0,.05-.32.24-.89.52a12.75,12.75,0,0,0-2.07,1.24,5.22,5.22,0,0,0-1.51,1.81c-.26.55-.32.94-.37.93a1.61,1.61,0,0,1,.13-1,4.71,4.71,0,0,1,1.53-2,8.79,8.79,0,0,1,2.19-1.19A3,3,0,0,1,203.92,227.82Z" style="fill:#eb996e"></path><path d="M196.55,232a4.13,4.13,0,0,1,0-1.36,6.61,6.61,0,0,1,.94-3.18,5.14,5.14,0,0,1,2.72-1.9,4.19,4.19,0,0,1,1.33-.32,6.21,6.21,0,0,1-1.24.56,5.46,5.46,0,0,0-2.51,1.86,7.53,7.53,0,0,0-1,3A6.62,6.62,0,0,1,196.55,232Z" style="fill:#eb996e"></path><path d="M200.41,222.32a3.41,3.41,0,0,1-1.34.79c-.44.18-1,.36-1.56.61a4.44,4.44,0,0,0-1.63,1.07,5.9,5.9,0,0,0-1.27,3.33,10.41,10.41,0,0,1-.18,1.53,4.78,4.78,0,0,1-.07-1.55,5.63,5.63,0,0,1,1.25-3.56,4.55,4.55,0,0,1,1.78-1.13c.6-.24,1.14-.39,1.59-.54C199.88,222.58,200.38,222.27,200.41,222.32Z" style="fill:#eb996e"></path><path d="M218,261.49s.26-.25.78-.61,1.28-.86,2.22-1.48c1.89-1.23,4.52-2.9,7.44-4.72l.28-.17-.12.23c-.14-3.36-.23-6.4-.27-8.59,0-1.09,0-2,0-2.59a4,4,0,0,1,.06-.95,3.33,3.33,0,0,1,.14.94c.05.61.12,1.49.18,2.59.14,2.19.29,5.22.43,8.58v.15L229,255l-.28.18c-2.92,1.81-5.58,3.43-7.52,4.58-1,.58-1.76,1-2.31,1.34A3.88,3.88,0,0,1,218,261.49Z" style="fill:#455a64"></path><path d="M445,352.15c0,.15-13,.26-29.06.26s-29-.11-29-.26,13-.26,29-.26S445,352,445,352.15Z" style="fill:#263238"></path><path d="M425.78,357.12c0,.14-14.17.26-31.65.26s-31.67-.12-31.67-.26,14.18-.26,31.67-.26S425.78,357,425.78,357.12Z" style="fill:#263238"></path><path d="M105.49,341.58c0,.14-6.79.26-15.18.26s-15.18-.12-15.18-.26,6.8-.26,15.18-.26S105.49,341.44,105.49,341.58Z" style="fill:#263238"></path><path d="M100.64,337.33c0,.14-9.11.26-20.34.26S60,337.47,60,337.33s9.11-.26,20.35-.26S100.64,337.19,100.64,337.33Z" style="fill:#263238"></path><path d="M322,217c0,.14-9.11.26-20.34.26s-20.35-.12-20.35-.26,9.11-.26,20.35-.26S322,216.89,322,217Z" style="fill:#263238"></path><path d="M320.78,211.57c0,.15-6,.26-13.36.26s-13.36-.11-13.36-.26,6-.26,13.36-.26S320.78,211.43,320.78,211.57Z" style="fill:#263238"></path></g></svg>
