<svg xmlns="http://www.w3.org/2000/svg" viewBox="0 0 500 500"><g id="freepik--background-simple--inject-30"><path d="M452.82,342.36c-20.83,35-56.83,70.38-99.3,75.08-64.15,7.11-80.34,54.84-188.52,30.48a223.48,223.48,0,0,1-45.87-15.48A185.89,185.89,0,0,1,98.31,421C39.32,383.67,16.42,320.87,24.46,261,35,182.19,96.29,154.87,135.68,139.5s97.43-92.08,204-69a217.05,217.05,0,0,1,47.17,15.88c34.29,16.32,67,44.58,82.6,80,1.16,2.66,2.25,5.37,3.26,8.11C492.39,228.09,481.22,294.68,452.82,342.36Z" style="fill:#92E3A9"></path><path d="M452.82,342.36c-20.83,35-56.83,70.38-99.3,75.08-64.15,7.11-80.34,54.84-188.52,30.48a223.48,223.48,0,0,1-45.87-15.48A185.89,185.89,0,0,1,98.31,421C39.32,383.67,16.42,320.87,24.46,261,35,182.19,96.29,154.87,135.68,139.5s97.43-92.08,204-69a217.05,217.05,0,0,1,47.17,15.88c34.29,16.32,67,44.58,82.6,80,1.16,2.66,2.25,5.37,3.26,8.11C492.39,228.09,481.22,294.68,452.82,342.36Z" style="fill:#fff;opacity:0.7000000000000001"></path></g><g id="freepik--Plants--inject-30"><g style="opacity:0.30000000000000004"><rect x="173.92" y="160.83" width="0.97" height="6.71" transform="translate(0.26 328.63) rotate(-86.63)"></rect><rect x="173.81" y="237.21" width="3.15" height="0.97"></rect><rect x="406.62" y="177.78" width="0.97" height="6.71" transform="translate(202.38 576.9) rotate(-86.63)"></rect><rect x="406.52" y="260.27" width="3.15" height="0.97"></rect><rect x="351.13" y="237.21" width="3.15" height="0.97"></rect><rect x="218.8" y="237.21" width="3.15" height="0.97"></rect><rect x="133.66" y="259.19" width="3.15" height="0.97"></rect><rect x="273.65" y="176.94" width="0.97" height="6.71" transform="translate(78.05 443.37) rotate(-86.63)"></rect><rect x="273.55" y="259.19" width="3.15" height="0.97"></rect><rect x="103.03" y="237.21" width="3.15" height="0.97"></rect><rect x="378.35" y="163.7" width="6.71" height="0.97" transform="translate(-8.97 22.67) rotate(-3.36)"></rect><rect x="379.14" y="237.21" width="3.15" height="0.97"></rect><path d="M438.41,122.56c6.92,0,16.93-.87,17.49-.92l1.62-.15-1.44-.76c-.67-.36-16.5-8.78-22.51-9.87-5.7-1-16.43,1.24-18,1.59l-.16-.09-.06-.35a2.69,2.69,0,0,1-.9-.17l-5.05-5.49-1-28.68-1,0,.91,27.56-7.86-8.53c-.26-.76-.45-1.31-.55-1.58l.37-.89-.42.17a7.92,7.92,0,0,0-2.11-4.75,12.59,12.59,0,0,0-5.94-3.42c-.77-1-1.23-1.66-1.25-1.69l-1.5,1.09a35.49,35.49,0,0,0-5.62-.43h-.17c-.78,0-1.53,0-2.27,0l.3-7.56-1,0-.31,7.63c-12.1.44-18.52,3-19.06,4l-.14.36.17.24c.22.32.67.26.84.24,1-.13,6.78,1,12.37,2l5.49,1-.36,8.92a8.53,8.53,0,0,0-1.11-1.53c-2.69-3-7.5-4.45-14.31-4.45h-.17a86.38,86.38,0,0,0-10,.57L353,77.67l-1,0,.78,19.16c-7.12.94-10.94,2.59-11.35,3.39l-.14.35.17.24a.84.84,0,0,0,.84.24c.91-.11,5.69.78,10.72,1.74l.72,17.76c-3.27,3.22-5.92,6.25-6.11,6.47l-.26.29c-.22-10.15-.54-19.41-.54-19.59l-1,0c0,.27.67,20,.77,33.43l-12.91-14c-.26-.76-.46-1.31-.56-1.59l.37-.88-.41.16a8,8,0,0,0-2.11-4.74,12.59,12.59,0,0,0-5.94-3.42c-.77-1-1.23-1.67-1.26-1.7l-1.49,1.1a34.32,34.32,0,0,0-5.79-.43c-.66,0-1.3,0-1.93,0-1.09-4.8-2.45-9.3-4-11.09a30.61,30.61,0,0,0-3.27-3.16c3.69,2,7.76,4,9.89,4.5a27.57,27.57,0,0,0,5.58.39c6.93,0,16.93-.88,17.5-.93l1.62-.14-1.44-.76c-.67-.36-16.51-8.78-22.51-9.88-5.7-1-16.43,1.25-18,1.6l-.16-.09-.06-.35a2.69,2.69,0,0,1-.9-.17L285,80.55c-.26-.76-.46-1.31-.56-1.58l.37-.89-.41.17a7.89,7.89,0,0,0-2.11-4.75,12.64,12.64,0,0,0-5.94-3.42l-1.26-1.7-.78.58h0l-.71.52a34.34,34.34,0,0,0-5.62-.43h-.17c-14.21,0-21.71,2.94-22.3,4.08l-.14.35.17.24c.22.33.67.27.84.25,1-.14,6.78,1,12.37,2,6.05,1.16,12.31,2.36,15.12,2.55l.69,0,.12,3.75A83.79,83.79,0,0,0,265.49,87C259.9,90.5,252,99.55,251.67,99.93l-1,1.18,1.51-.39c.76-.2,16.09-4.25,22.83-8.2l1.12,33.39-.76-.56-1.26,1.71A14.29,14.29,0,0,0,269.9,129c-.23-10.76-.58-21-.59-21.23l-1,0c0,.2.36,10.93.59,21.94a9.22,9.22,0,0,0-.79.74,7.87,7.87,0,0,0-2.11,4.74l-.42-.16.37.88c-.1.28-.3.83-.55,1.59l-13.92,15.1a2.94,2.94,0,0,1-.9.18l-.06.35-.16.09c-1.59-.35-12.32-2.64-18-1.6a49.82,49.82,0,0,0-9.17,3.32l-.05-7.34c.25-.7,1.82-5.15,1.21-7.57a48,48,0,0,1-.6-7.89l-.21-3.78a36.78,36.78,0,0,0,1.32-6.81c.18-3.67-1.24-9.18-2.44-13.11l-1.74-30.8-1,0,1.43,25.38-.29.11a7.87,7.87,0,0,0-2.11-4.74c-2.71-3-7.54-4.45-14.48-4.45A70.33,70.33,0,0,0,187,95.9a58.71,58.71,0,0,0-9.53-8.28c-.42-.27-.89-.54-1.38-.82l-.35-8.58c2.61-.46,5.58-1,8.51-1.6,5.59-1.07,11.37-2.18,12.37-2.05a.82.82,0,0,0,.84-.24l.17-.33-.14-.26c-.59-1.14-8.09-4-22.3-4.08H175a34.34,34.34,0,0,0-5.62.43L167.91,69s-.49.66-1.26,1.7a12.59,12.59,0,0,0-5.94,3.42,7.87,7.87,0,0,0-2.11,4.74l-.41-.16.36.88c-.09.28-.29.83-.55,1.59L144.08,96.27a2.69,2.69,0,0,1-.9.17l-.06.35-.16.09c-.75-.16-3.49-.75-6.79-1.22l-.6-18-1,0,.6,17.82a37.33,37.33,0,0,0-10.26-.24c-4.91.9-16.38,6.68-20.78,9l1.08-26.53-1,0-1.11,27.09-.74.39-1.44.77,1.62.14.51,0-1.91,47.1s0,2.25-.16,4.46c-2.84-2.3-7.32-3.44-13.41-3.44-14.21.05-21.71,2.94-22.3,4.08l-.14.35.17.24a.87.87,0,0,0,.85.25c1-.13,6.77,1,12.36,2,6.06,1.17,12.32,2.37,15.12,2.55s5.15.39,7,.56c0,.18.06.36.1.54-4.06,1.69-11.46,4.89-15.39,7.35-5.59,3.49-13.48,12.54-13.82,12.92l-1,1.18L72,185.9c.87-.23,21.47-5.67,25.34-10.09a30.13,30.13,0,0,0,2.71-3.66c-1.46,3.91-2.91,8.21-3.16,10.39-.51,4.5,3.4,22.06,3.57,22.81l.35,1.58.57-1.52,0-.12-.25,25.82c-.23.69-1.85,5.65-1.85,7.45s2.43,189.68,2.46,191.58v.48h12.63l-3.08-188.31L112,238a9.08,9.08,0,0,0-1.66-6.66,7.94,7.94,0,0,1-.81-1.53c-.42-1.62,1.25-36,2.47-58.72l.61-3.69c.35-2.08,0-4.09-.58-6.86a71,71,0,0,1-1.25-8.6c-.61-7.87.6-43.8.61-44.16l-1,0c0,.36-1.23,36.34-.62,44.26a72.05,72.05,0,0,0,1.27,8.72,20.29,20.29,0,0,1,.63,6.14l-6.31.53c-.37-1.14-.69-2.07-.9-2.68l4.48-.26-.06-1-4.47.27.21-.51-.41.16a8,8,0,0,0-2.12-4.74c-.05-.06-.12-.1-.17-.16.22-2.45.22-5.14.22-5.29l1.91-47c3.13.25,10.54.8,16,.8a27.57,27.57,0,0,0,5.58-.39c2.1-.53,6.08-2.48,9.73-4.42v0a30.9,30.9,0,0,0-3.12,3,18.8,18.8,0,0,0-2.76,6.22c-.06-2.25-.11-3.65-.11-3.72l-1,0c0,.1.1,2.84.22,6.93-1.83,7.49-3,16.42-3,17l-.19,1.56,1-1.18c.12-.13,1.16-1.31,2.56-3,.2,9.43.32,19.22,0,22.89-.11,1.45-.26,3.31-.43,5.38-.81,9.76-1.91,23.13-1.4,26.2l.61,3.63c.1,2,.21,4.12.32,6.29-6.93,2.87-15.47,7.41-16,7.67l-1.44.76,1.62.15c.53,0,9.42.82,16.24.91.89,18.48,1.69,37.8,1.37,39-.63,1.89-2.78,13.68-2.15,18.05l.61,4.23-3.08,166.4H138v-.48c0-1.68,2.46-167.78,2.46-169.6s-.31-18.29-.32-18.46l-.66-17.89c2.62-3.25,6.12-7.93,7.75-11.53,2.1-4.61,4.53-13.45,5.55-17.3.42,1.78,1.07,4.66,1.73,7.92.55,2.76,2.56,8.8,4.51,14.65,1.8,5.4,3.66,11,3.66,12a.87.87,0,0,0,.35.81l.35.12.24-.17c1.06-.74,2.94-8.55,1.12-22.65-.89-6.84-3-11.47-6.32-13.76a8.52,8.52,0,0,0-2.1-1.07,24.23,24.23,0,0,0,5.38-4.65c1.14-1.25,2.55-2.93,4.07-4.82a34.83,34.83,0,0,0-1.41,9.46c.22,4.58,3.81,15.22,5.7,20.52.37,8.95.57,15.43.39,16.1a7.71,7.71,0,0,1-.81,1.54A9.08,9.08,0,0,0,168,238l.61,4.23-3.08,188.38h12.63v-.48c0-1.9,2.46-189.76,2.46-191.58s-1.62-6.76-1.85-7.45l-.4-41.66c7,3.83,21.48,7.65,22.21,7.84l1.51.4-1-1.19c-.33-.38-8.23-9.43-13.82-12.92a83.32,83.32,0,0,0-9-4.57l0-3.83.67,0c2.81-.19,9.07-1.39,15.12-2.55,5.59-1.07,11.36-2.18,12.37-2.05.17,0,.62.08.84-.24l.17-.33-.14-.26c-.59-1.15-8.09-4-22.3-4.09a36.35,36.35,0,0,0-5.79.43l-.18-.13a11.07,11.07,0,0,0,.38-4.84,48,48,0,0,1-.6-7.89L176.5,96.88c1.9.69,3.84,1.34,5.65,1.92a.77.77,0,0,0,.45.14c4.33,1.36,7.85,2.29,8.21,2.38l1.51.4-1-1.18-.33-.38,4.27.81c6.05,1.17,12.32,2.37,15.12,2.55,3.32.22,6.26.49,8.08.67-3.69,1.52-12.13,5.09-16.42,7.78-5.59,3.49-13.49,12.53-13.82,12.92l-1,1.18,1.52-.4c.87-.23,21.46-5.66,25.34-10.09l.07-.07c.06,1.18.12,2.45.16,3.74a21.56,21.56,0,0,0-.68,3.07,38.09,38.09,0,0,0,.69,7.92c0,.23,0,.46,0,.68a71,71,0,0,1-1.25,8.6c-.54,2.78-.93,4.78-.59,6.86L213,150c.11,2.73.24,6,.38,9.69-2,1-3.31,1.71-3.49,1.81l-1.44.77,1.62.14,3.42.28c1,25.51,2.38,65.44,2,67.11a7.71,7.71,0,0,1-.81,1.54A9,9,0,0,0,213,238l.61,4.23-3.08,188.38h12.63v-.48c0-1.9,2.46-189.76,2.46-191.58s-1.62-6.76-1.85-7.45l-.5-67.85c1.48.05,2.94.08,4.27.08a27,27,0,0,0,5.59-.39c2.12-.53,6.19-2.53,9.89-4.49a30.71,30.71,0,0,0-3.28,3.16c-3.87,4.43-6.55,25.56-6.66,26.45l-.2,1.56,1-1.18c.34-.38,8.27-9.4,11-15.4,2.1-4.61,4.53-13.44,5.55-17.3.42,1.78,1.07,4.66,1.72,7.92.56,2.76,2.57,8.81,4.52,14.66,1.8,5.39,3.66,11,3.66,12,0,.17,0,.62.35.8l.35.12.24-.17c1.06-.73,2.93-8.55,1.11-22.64-.88-6.85-3-11.48-6.31-13.77a8.46,8.46,0,0,0-2.1-1.06,24.51,24.51,0,0,0,5.38-4.65c1.13-1.25,2.55-2.94,4.07-4.83a34.83,34.83,0,0,0-1.41,9.46c.2,4.28,3.34,13.81,5.29,19.37a69.61,69.61,0,0,0-.2,10.58l.6,3.63c1.1,21.16,2.57,53.22,2.16,54.78-.63,1.89-2.78,13.68-2.15,18.05l.61,4.23-3.08,166.4H277.9v-.48c0-1.68,2.46-167.78,2.46-169.6s-.31-18.29-.32-18.46l-2.14-57.33c.26-.71,1.82-5.15,1.21-7.56a47.93,47.93,0,0,1-.6-7.88l-.62-18.53c7.44,3.49,19.67,6.73,20.34,6.9l1.52.4-1-1.18c-.33-.39-8.23-9.43-13.82-12.92a75.1,75.1,0,0,0-7.36-3.84l-.16-4.68c2.53-.27,6.81-1.05,11.31-1.9a1.69,1.69,0,0,0,.39.55l.34.18.26-.14c.35-.18.35-.63.35-.8v0l1.65-.32c5.59-1.07,11.37-2.18,12.37-2a.82.82,0,0,0,.84-.24l.17-.33-.14-.26c-.44-.86-4.78-2.7-12.94-3.59.53-1.63,1.12-3.4,1.71-5.15,1.95-5.85,4-11.9,4.51-14.66.65-3.25,1.31-6.13,1.73-7.92,1,3.86,3.45,12.7,5.54,17.31l.16.31c-7.12.94-10.93,2.59-11.35,3.39l-.13.35.16.24a.87.87,0,0,0,.85.25c1-.14,6.78,1,12.37,2l2.26.44c3.09,4.3,6.46,8.13,6.68,8.38l.56.63c-1,.53-1.94,1.06-2.72,1.55-5.59,3.49-13.49,12.54-13.82,12.92l-1,1.18,1.51-.4c.88-.22,21.47-5.66,25.35-10.08a31.64,31.64,0,0,0,2.71-3.67c-1.46,3.92-2.92,8.22-3.16,10.4-.51,4.5,3.4,22.06,3.56,22.81l.36,1.58.57-1.52c.26-.71,6.53-17.52,6.82-23.62a35.23,35.23,0,0,0-1.41-9.46c1.52,1.89,2.93,3.58,4.07,4.83a24.23,24.23,0,0,0,5.37,4.65,8.24,8.24,0,0,0-2.09,1.06c-3.31,2.3-5.44,6.93-6.32,13.77-1.82,14.1.06,21.91,1.11,22.65l.34.18.26-.14c.35-.18.35-.63.35-.8,0-1,1.86-6.6,3.66-12,1.16-3.49,2.34-7.05,3.23-9.94-.16.9-.32,1.72-.47,2.47-.54,2.77-.93,4.78-.58,6.86l.61,3.63c1.22,22.74,2.89,57.16,2.48,58.77a8.38,8.38,0,0,1-.82,1.54,9.08,9.08,0,0,0-1.66,6.66l.61,4.23-3.07,187.88v.5h12.64v-.48c0-1.9,2.46-189.76,2.46-191.58s-1.62-6.76-1.84-7.45l-.62-62.46c.11-.29.44-1.24.75-2.41a85.83,85.83,0,0,0,5.56,7.7c-3.52.86-5.45,1.82-5.74,2.38l-.14.35.17.24a.88.88,0,0,0,.85.24,65.14,65.14,0,0,1,8.68,1.35l.72.82-.09-.7,3.06.58c2.92.56,5.89,1.13,8.5,1.59l-.08,8.44q-.9.5-1.65,1c-5.58,3.5-13.48,12.54-13.82,12.93l-1,1.18,1.51-.4c.52-.14,8.06-2.13,14.88-4.65l-.31,31.86c-.23.69-1.84,5.65-1.84,7.45s2.43,189.68,2.45,191.58v.48h12.63l-3.08-188.31.61-4.3a9,9,0,0,0-1.66-6.66,8.54,8.54,0,0,1-.81-1.53c-.28-1.1.4-17.46,1.26-34.95a7.75,7.75,0,0,0,1.21-1.06,31.15,31.15,0,0,0,2.7-3.66c-1.46,3.92-2.91,8.22-3.16,10.39-.51,4.5,3.4,22.07,3.57,22.81l.36,1.59.57-1.52c.26-.72,6.53-17.52,6.82-23.62a35.63,35.63,0,0,0-1.41-9.46c1.26,1.57,2.45,3,3.47,4.15.15,3.33.31,6.79.48,10.3a27,27,0,0,0-2.92,9.85c-1.82,14.1.06,21.92,1.11,22.65l.33.19.26-.14c.35-.18.35-.64.35-.81a47.57,47.57,0,0,1,1.95-6.79c.5,12.62.81,22.32.6,23.14a7.66,7.66,0,0,1-.81,1.53,9.07,9.07,0,0,0-1.66,6.67l.61,4.22-3.07,164.82v.5h12.63v-.48c0-1.67,2.46-166.69,2.46-168.52s-1.62-6.75-1.85-7.44L411,203.86a124.57,124.57,0,0,0,5,15.41c2.73,6,10.66,15,11,15.4l1,1.18-.19-1.56c-.12-.9-2.8-22-6.67-26.45a31.69,31.69,0,0,0-3.27-3.17c3.69,2,7.76,4,9.89,4.5a26.84,26.84,0,0,0,5.58.39c6.93,0,16.93-.87,17.49-.92l1.63-.14-1.44-.77c-.67-.36-16.51-8.78-22.52-9.87-5.33-1-15.1,1-17.61,1.51l-.12-13.77c.25-.7,1.82-5.16,1.21-7.57a48,48,0,0,1-.6-7.89l-1.18-35.78c1.57-4.75,3-9.22,3.46-11.47.65-3.26,1.3-6.14,1.72-7.92,1,3.85,3.45,12.69,5.55,17.3,2.72,6,10.65,15,11,15.4l1,1.17-.2-1.55c-.11-.9-2.79-22-6.66-26.45a30.76,30.76,0,0,0-3.28-3.17c3.7,2,7.77,4,9.89,4.5A27.68,27.68,0,0,0,438.41,122.56ZM101.65,164.4h.13l-.12.05Zm9.9,3.47L111,171c-.31,5.86-3.06,57.25-2.43,59.13a8.57,8.57,0,0,0,.91,1.74,8,8,0,0,1,1.52,6l-.53,3.77-7-1.67-.23.94,7.11,1.71,3.06,187h-10.7c-.14-10.62-2.45-189.32-2.45-191.09s1.8-7.16,1.82-7.22l.29-28.75c1.85-5.2,5.57-16.13,5.8-20.8.18-3.78-1.33-9.5-2.55-13.44Zm291-48.07a37.26,37.26,0,0,0,1.37-7,34.71,34.71,0,0,0-1.41-9.45c1.52,1.88,2.94,3.57,4.07,4.82.7.77,1.35,1.42,2,2l.16,4.67c-2.65,2.51-4.38,6.81-5.15,12.81-.41,3.12-.62,5.91-.71,8.4C402.74,130.22,402.63,124.53,402.54,119.8Zm-.61,49.1a71,71,0,0,1-1.25,8.6c-.54,2.77-.93,4.78-.58,6.86l.6,3.63c0,.46.05.94.07,1.4l-5.21-5.65c-.26-.76-.46-1.32-.56-1.59l.37-.88-.41.16a8,8,0,0,0-2.12-4.74,11.91,11.91,0,0,0-4.87-3.07c0-.85.09-1.7.13-2.52l.62-3.69c.34-2.08-.05-4.09-.59-6.86a72.19,72.19,0,0,1-1.22-8.25l2.27-.19,1.62-.14-1.44-.77-2.58-1.34c-.28-8.92.39-31.93.63-39.57a17.93,17.93,0,0,0,5.64-3.48,30.13,30.13,0,0,0,2.71-3.66c-1.46,3.92-2.91,8.21-3.16,10.39-.51,4.5,3.4,22.06,3.57,22.81l.35,1.59.57-1.53c.17-.44,2.62-7,4.54-13.44C402,139.34,402.33,163.74,401.93,168.9Zm7.92-55-.22.18-.1-3a17.92,17.92,0,0,0,2.42,1.76A8.88,8.88,0,0,0,409.85,113.88Zm-22,53-6.74.56.08,1,6.51-.54-.52,3.12c0,.48-.07,1.27-.12,2.31a.53.53,0,0,0-.12,0c-.76-1-1.22-1.67-1.25-1.7l-.78.57h0l-.71.52a35.38,35.38,0,0,0-5.3-.42l0-3.76,0-.09s-1.79-4.8-1.21-7.08a47.08,47.08,0,0,0,.62-8.08l0-.38c2.85-.14,5.61-.32,7.65-.48a73.17,73.17,0,0,0,1.23,8.37A20.29,20.29,0,0,1,387.81,166.88Zm-9.88,1.77,0,3.59a81.1,81.1,0,0,0-12.39,1c-1-6.7-3.21-18.69-6-21.9a30.61,30.61,0,0,0-3.27-3.16c3.69,2,7.76,4,9.89,4.5a27.57,27.57,0,0,0,5.58.39c1.76,0,3.71-.06,5.65-.14v.31a47.9,47.9,0,0,1-.6,7.87C376.11,163.49,377.68,168,377.93,168.65Zm.65-22.82.06-1.43c1.87-5.25,5.53-16,5.75-20.66.15-3.18-.89-7.73-1.95-11.44,1.38-.51,2.73-1,4-1.58-.24,7.9-.87,29.48-.63,38.63C383.83,148.36,381.26,147.08,378.58,145.83Zm-5.05-28.07a29.88,29.88,0,0,0,2.44-3.27l.13,0c-1.41,3.82-2.78,7.93-3,10-.4,3.51,1.89,15,3,20.2a48.84,48.84,0,0,0-9.23-3.36c-3-.55-7.47-.16-11.21.37L355,125.89C361.63,123.86,371,120.6,373.53,117.76Zm17.74,64.54.37.48c-1.18.48-2.65,1.11-4.24,1.8,0-.87.09-1.74.13-2.6C388.94,182.09,390.21,182.2,391.27,182.3Zm-1.89-87.55c2.65.17,5.05.38,6.84.55.13.15.25.31.37.47-4,1.67-11.57,4.93-15.55,7.42l-.74.49.42-10.26C384.38,94.09,387.59,94.63,389.38,94.75ZM354.07,103l.66.13c6.06,1.17,12.32,2.37,15.13,2.55s5.31.41,7.13.58l-1.05.92a120.89,120.89,0,0,0-14.42,7,45.75,45.75,0,0,0-6.77,5.55Zm-6.61,25,.73-.19c.28-.07,2.65-.7,5.85-1.66l.64,15.67c-2.87.44-5.18.93-5.85,1.08l-.16-.09-.06-.35a2.66,2.66,0,0,1-.9-.17l0,0C347.65,138,347.57,132.93,347.46,128Zm-72-49.35c2,.15,3.77.3,5.18.43l.37.48c-1.46.61-3.39,1.43-5.44,2.34Zm2,11.95A32.39,32.39,0,0,0,280.21,87c-1.46,3.92-2.92,8.21-3.16,10.39-.51,4.5,3.4,22.06,3.56,22.81l.36,1.58.57-1.52c.27-.71,6.53-17.52,6.82-23.62A34.71,34.71,0,0,0,287,87.16C288.47,89,289.88,90.73,291,92a24,24,0,0,0,5.38,4.65,8.46,8.46,0,0,0-2.1,1.06c-3.31,2.3-5.43,6.93-6.32,13.77a78.79,78.79,0,0,0-.65,14.69c-1.48-.08-3-.13-4.7-.13a36.19,36.19,0,0,0-5.54.39l-1.16-34.47A8.47,8.47,0,0,0,277.5,90.63ZM169.22,152a71,71,0,0,1-1.25,8.6c-.17.86-.31,1.63-.44,2.36-2.57-2.83-8.15-8.68-12.4-11.34s-12.73-6.26-16.42-7.77c1.82-.18,4.76-.45,8.08-.67,2.8-.19,9.07-1.39,15.12-2.55,2.61-.5,5.26-1,7.45-1.4C169.42,144.8,169.4,149.61,169.22,152Zm-1.83,15.46L168,171c.07,1.2.13,2.44.2,3.7l-.22-.08.25.6,0,.52c-.11.31-.28.77-.47,1.35l-13.92,15.1a2.69,2.69,0,0,1-.9.17l-.05.35-.17.1A78.58,78.58,0,0,0,138.26,191l-.23-6.23c.07-.21.27-.76.49-1.49.31.86.52,1.42.56,1.53l.57,1.53.35-1.59c.17-.75,4.08-18.31,3.57-22.81-.25-2.17-1.7-6.47-3.16-10.39a30.13,30.13,0,0,0,2.71,3.66c3.39,3.87,19.59,8.52,24.16,9.77A10.52,10.52,0,0,0,167.39,167.41Zm1.56,3.53-.51-3.07,4.33.36a10.39,10.39,0,0,0-2.28,1.84,8.54,8.54,0,0,0-1.46,2.24C169,171.73,169,171.26,169,170.94Zm-23.59,27.12a31.77,31.77,0,0,0-3.28,3.17c-1.17,1.34-2.24,4.23-3.15,7.62l-.28-7.47C140.66,200.5,143.08,199.27,145.36,198.06Zm-7.89-81.37c2.1-4.61,4.53-13.44,5.55-17.3.42,1.78,1.07,4.66,1.73,7.92.55,2.76,2.56,8.81,4.51,14.66,1.66,5,3.36,10.06,3.62,11.64h0c-6.93,0-11.77,1.47-14.48,4.45a10,10,0,0,0-.75.95l-.71-21.17C137.12,117.45,137.31,117.07,137.47,116.69Zm83.8-11.81c-.16-.44-.27-.77-.34-1l.25-.6ZM175.1,86.25c-4.14-2.21-9.86-4.67-13.18-6l.37-.48c1.79-.17,4.2-.37,6.84-.55,1.28-.08,3.28-.38,5.65-.78Zm-46.29,100.8-.52-3.07,6.51.54.08-1-6.74-.56c-.36-3.59.73-16.76,1.46-25.59.17-2.08.33-3.93.44-5.39.29-3.85.16-14.33-.06-24.12a83.09,83.09,0,0,0,6-8.45l.71,21.32a7.23,7.23,0,0,0-.45,2l-.42-.17.37.89c-.55,1.52-4.23,11.86-4,17.65.19,4.13,3.14,13.19,5.1,18.82l-6.43-.38-.06,1,6.7.4,0-.31.35,1a28.17,28.17,0,0,1-.85,2.84l0,.09.24,6.4a18.06,18.06,0,0,0-2.57.25,32.64,32.64,0,0,0-5.61,1.81C129,190.13,128.85,188,128.81,187.05Zm10.39,55c0,.17.31,16.62.31,18.44s-2.3,159.19-2.45,169.11h-10.7l3-165,7.12-1.71-.22-.94-7,1.67-.54-3.77c-.6-4.16,1.51-15.83,2.11-17.61.42-1.26-.55-23.33-1.32-39.3h.29a27.57,27.57,0,0,0,5.58-.39,17.58,17.58,0,0,0,2.22-.77l.39,10.47c-1.61,7.11-2.59,14.88-2.66,15.42l-.19,1.55,1-1.17c.11-.13,1-1.17,2.31-2.73Zm38.62-10.9,0,.14c0,.06,1.82,5.48,1.82,7.22S177.35,419,177.21,429.65h-10.7l3.05-187,7.12-1.71-.23-.94-7,1.67-.53-3.77a8,8,0,0,1,1.52-6,8.57,8.57,0,0,0,.91-1.74c.2-.59.06-6-.22-13.41l0,.09.57,1.53.36-1.59c.16-.75,4.07-18.31,3.56-22.81-.25-2.17-1.7-6.47-3.16-10.39a31.22,31.22,0,0,0,2.71,3.66,9.54,9.54,0,0,0,2.16,1.69Zm-.52-52.63c-2.11-.94-4.1-1.78-5.6-2.4l.37-.48c1.41-.14,3.21-.29,5.2-.44Zm.52-25.36a47.46,47.46,0,0,0,.63,8.1,9.55,9.55,0,0,1-.3,4l-.46-.34s-.49.66-1.25,1.69a16.34,16.34,0,0,0-2.08.74l-6.07-.51a10.15,10.15,0,0,1,0-1.66l.21.06,1.52.4-1-1.19-.57-.65c.12-.93.31-2,.54-3.1a72.05,72.05,0,0,0,1.27-8.72c.18-2.38.2-7.29.13-13a23.33,23.33,0,0,1,4-.49.87.87,0,0,0,.84-.24l.17-.33-.14-.27c-.26-.5-1.9-1.35-4.87-2.15-.2-12.72-.7-27.55-.71-27.78l-1,0c0,.23.5,14.87.7,27.51a70.86,70.86,0,0,0-14.83-1.66c1-2.66,2-10,.5-21.57-.89-6.84-3-11.48-6.32-13.77a8.13,8.13,0,0,0-2.1-1.06,24.51,24.51,0,0,0,5.38-4.65c1.14-1.25,2.55-2.94,4.07-4.83a34.83,34.83,0,0,0-1.41,9.46c.29,6.1,6.55,22.91,6.82,23.62l.57,1.52.36-1.59c.16-.74,4.07-18.3,3.56-22.8-.25-2.18-1.7-6.48-3.16-10.4a31.34,31.34,0,0,0,2.71,3.67c1.52,1.73,5.6,3.61,10,5.28ZM215,114.39c.61-.79,1.19-1.62,1.73-2.47-.57,1.52-1.13,3.1-1.63,4.59C215.07,115.77,215,115.07,215,114.39Zm-1.09,25.32c.31-1.61.68-3.5,1-5.8.58,3.26,1.23,6.45,1.69,8.59l-.5,0-.06,1,.77,0c.2.92.33,1.52.36,1.64l.24,1.08-4.1-.34A20.33,20.33,0,0,1,213.91,139.71Zm0,10.2-.51-3.07,6.51.54.08-1-2.35-.2.39-1c.05-.12.26-.7.59-1.6l4.06.24.06-1-3.78-.22c1-2.7,2.5-7.13,3.76-11.41l.06.94a47.16,47.16,0,0,0,.62,8.1c.58,2.28-1.19,7-1.21,7.08l0,.09.06,8c-2.85,1.29-5.7,2.69-7.95,3.82C214.13,154.67,214,151.33,213.94,149.91Zm8.87,81.28,0,.15c0,.06,1.82,5.48,1.82,7.22S222.34,419,222.2,429.65H211.5l3.05-187,7.12-1.71-.23-.94-7,1.67-.54-3.77a8.06,8.06,0,0,1,1.53-6,8.57,8.57,0,0,0,.91-1.74c.49-1.47-1.08-44.67-1.94-67.35,2.23.16,5.06.34,7.87.45Zm54.75-61.86a46.54,46.54,0,0,0,.63,8.1c.57,2.28-1.2,7-1.22,7.08l0,.09,2.15,57.5c0,.17.31,16.62.31,18.44S277.1,419.73,277,429.65h-10.7l3.05-165,7.12-1.71-.23-.94-7,1.67-.53-3.77c-.6-4.16,1.51-15.82,2.1-17.61s-1.82-49.7-2.11-55.2l-.51-3.07,6.51.54.08-1L268,183a64.51,64.51,0,0,1,.13-7.71c.39,1.08.65,1.78.7,1.91l.57,1.52.35-1.59c.17-.74,4.08-18.3,3.57-22.8-.25-2.18-1.7-6.48-3.16-10.4a31,31,0,0,0,2.71,3.67,13.93,13.93,0,0,0,4,2.71ZM270,136.84c0-.26,0-.52,0-.79,1.72-.16,4-.35,6.4-.51l.13,4.15C274.18,138.6,271.84,137.6,270,136.84Zm47.28-5.73c0-.32-.4-3.11-1-6.79,2.67.47,4.94.81,6.34.9,2.64.18,5,.38,6.84.55l.37.48c-3.13,1.3-8.39,3.56-12.45,5.67Zm37.24,37.28,0,.09.61,62.72,0,.14c0,.06,1.81,5.48,1.81,7.22S354.67,419,354.53,429.65H343.84l3.05-187,7.11-1.71-.22-.94-7,1.67-.54-3.77a8.06,8.06,0,0,1,1.52-6,8.57,8.57,0,0,0,.91-1.74c.63-1.88-2.11-53.27-2.43-59.18l-.51-3.07,6.5.54.08-1-6.73-.56a19.93,19.93,0,0,1,.62-6.14,70.1,70.1,0,0,0,1.27-8.72c0-.36.05-.8.07-1.26.46-2.17.89-4,1.19-5.32,1,3.86,3.45,12.7,5.54,17.31.17.36.36.74.56,1.13l-6.47-.38-.06,1,6.7.39,0-.6.45.81A29,29,0,0,1,354.56,168.39ZM378.77,181c2.37.41,4.38.71,5.66.79l2.14.15c-.05,1-.11,2-.16,3.12-2.58,1.14-5.38,2.45-7.72,3.69Zm5.94,49.16a8.57,8.57,0,0,0,.91,1.74,8.06,8.06,0,0,1,1.53,6l-.54,3.77-7-1.67-.23.94,7.11,1.71,3.06,187h-10.7c-.14-10.62-2.45-189.32-2.45-191.09s1.8-7.16,1.82-7.22l.33-32.45a46.8,46.8,0,0,0,7.29-3.36C385.11,211.36,384.35,229,384.71,230.12ZM402,195.61a23.7,23.7,0,0,0,5,4.21,8.24,8.24,0,0,0-2.09,1.06,10.64,10.64,0,0,0-2.5,2.51C402.27,200.52,402.14,197.88,402,195.61Zm10.34,66c0,1.77-2.3,158.15-2.45,168h-10.7l3-164,7.12-1.7-.23-.95-7,1.67-.53-3.77a8,8,0,0,1,1.52-6,8.32,8.32,0,0,0,.91-1.74c.28-.84-.11-12.66-.66-26.06.28-.85.57-1.72.85-2.58,1.95-5.84,4-11.89,4.52-14.65.45-2.23.89-4.28,1.27-5.93l.45,50.3,0,.15C410.57,254.46,412.37,259.88,412.37,261.62Zm-1.84-91.46a46.42,46.42,0,0,0,.63,8.1c.57,2.28-1.2,7-1.22,7.08l0,.09L410,199a4.34,4.34,0,0,1-.55-.15l-7.69-8.34c-.06-1.18-.1-2.07-.13-2.61l-.51-3.07,6.51.54.08-1-6.74-.56a20.29,20.29,0,0,1,.63-6.14A72.05,72.05,0,0,0,402.9,169c.25-3.28.19-14.25,0-26,.34,4.44,1.15,6.94,1.72,7.34l.33.18.26-.13a.87.87,0,0,0,.35-.81c0-1,1.86-6.59,3.66-12l.18-.53Z"></path></g></g><g id="freepik--Rock--inject-30"><path d="M210.11,249.3s-26.63,7.77-31.06,13.87a79.16,79.16,0,0,0-7.22,12.2s-37.16,28.29-41.6,36.06S113,355.8,113,355.8s-12.76,51-13.32,52.7-11.64,9.43-11.64,13.31a78.23,78.23,0,0,1-.56,8.32H470.26s-14.42-64.34-23.3-83.2-51.58-48.26-54.36-53.25-8.87-17.75-17.75-27.18-33.28-14.42-46-17.2S246.72,238.21,210.11,249.3Z" style="fill:#92E3A9;stroke:#263238;stroke-miterlimit:10"></path><path d="M431.24,342.7s8.58,7.67,11.28,16.24" style="fill:none;stroke:#263238;stroke-miterlimit:10"></path><path d="M435.3,353.08s5.87,9,8.58,16.24" style="fill:none;stroke:#263238;stroke-miterlimit:10"></path><line x1="439.82" y1="372.92" x2="444.78" y2="379.69" style="fill:none;stroke:#263238;stroke-miterlimit:10"></line><path d="M392.48,306.9c4,1.58,8.49,4.68,14.41,9.19" style="fill:none;stroke:#263238;stroke-miterlimit:10"></path><path d="M378.27,284.06c1.1,3.94,2.06,8.66,1.1,10.83-1.8,4.06-8.57,7.66-16.69,13.08s-9.92,7.21-9,10.82,4.51,1.81,9.92-3.15,16.24-9.48,22.11-9.93" style="fill:none;stroke:#263238;stroke-miterlimit:10"></path><path d="M376.21,277.74s.53,1.4,1.18,3.42" style="fill:none;stroke:#263238;stroke-miterlimit:10"></path><path d="M362.23,270.53a42.83,42.83,0,0,1,8.12,3.15" style="fill:none;stroke:#263238;stroke-miterlimit:10"></path><path d="M355,268.72s7.67-1.8,11.73-.9" style="fill:none;stroke:#263238;stroke-miterlimit:10"></path><path d="M427.94,430.13a87.2,87.2,0,0,0-6.62-14c-4.06-6.32-9-4.06-14.88-7.67s-29.78-36.09-34.29-40.15-23.9-12.18-32.48-4.06c-8,7.59-44.27,59.09-49,65.86Z" style="fill:#92E3A9;stroke:#263238;stroke-miterlimit:10"></path><path d="M392.12,408.73a29.14,29.14,0,0,1,6.65-.25" style="fill:none;stroke:#263238;stroke-miterlimit:10"></path><path d="M370.24,371.72c2.11,3.68,4.91,9,6,13.3,1.81,7.22-5.86,10.83-6.76,18.05S369,415.25,370.8,418s9-2.25,14-6.31a10,10,0,0,1,1-.73" style="fill:none;stroke:#263238;stroke-miterlimit:10"></path><path d="M367.64,367.43s.54.83,1.36,2.19" style="fill:none;stroke:#263238;stroke-miterlimit:10"></path></g><g id="freepik--panda-2--inject-30"><path d="M315.5,179.43s-19.25-6.68-37.51-2.55-38.49,23.36-46.74,32-30.63,19.05-30.63,26.71,14.14,20.82,20,25.14,20.81,18.85,25.72,19.24,12.77-1.38,13.95-5.5.19-11.39-1.58-15.51a44.08,44.08,0,0,0-5.69-8.84l29.06.79,6.48.19s-13.55,4.32-17.28,10-1.18,15.71,4.72,16.3,11-1,18.45-5.11,14.34-9.42,24.75-11.19S333.56,259,343.58,259s13.55.59,14.72-3.93.59-7.27-3.33-17.87-4.13-20.23-12.77-34.36A59.59,59.59,0,0,0,315.5,179.43Z" style="fill:#fff;stroke:#263238;stroke-miterlimit:10"></path><path d="M282.8,250.93c-.51-.23-2.64-.9-9.08-2.7-13.11-3.66-24.6-17.55-27.74-34.63A35,35,0,0,1,248.53,193a181.13,181.13,0,0,0-17.28,15.86c-8.24,8.64-30.63,19.05-30.63,26.71s14.14,20.82,20,25.14,20.81,18.85,25.72,19.24,12.77-1.38,13.95-5.5.19-11.39-1.58-15.51a44.08,44.08,0,0,0-5.69-8.84l29.06.79Z" style="fill:#263238;stroke:#263238;stroke-miterlimit:10"></path><path d="M342.83,203.87c-.63,2.57-1.72,6.53-3,8.55a11.53,11.53,0,0,1-4.91,4.32s2.55,10.21.78,17.28-10.57,12.1-13.94,13.16-21,4.51-21.8,4.51c-.48,0-6.8-.28-11.63-.51-1.83.61-13.6,4.69-17,9.94-3.73,5.69-1.18,15.71,4.72,16.3s11-1,18.45-5.11,14.34-9.42,24.75-11.19S333.56,259,343.58,259s13.55.59,14.72-3.93.59-7.27-3.33-17.87C351.14,226.83,350.83,217.42,342.83,203.87Z" style="fill:#263238;stroke:#263238;stroke-miterlimit:10"></path><path d="M277.65,190s-.54-8.4-7.33-10.19S253,190.13,254.23,193.88s11.09,7.33,11.09,7.33S273.54,190.85,277.65,190Z" style="fill:#263238;stroke:#263238;stroke-miterlimit:10"></path><path d="M309.11,188.52s.18-10.55,8.05-10.19,15,11.09,13.4,15-7.5,5.72-7.5,5.72S313.76,190,309.11,188.52Z" style="fill:#263238;stroke:#263238;stroke-miterlimit:10"></path><path d="M262.1,207.83s-8.94,13.76-7.69,21.63,9.48,14.66,19.31,18.77,31.46,4.47,44.69,0,18.95-11.8,18-24.13-11.08-21.28-11.8-22" style="fill:#fff;stroke:#263238;stroke-miterlimit:10"></path><path d="M290.88,222.67s-2.15-7.51-4.83-7.51-4.47,3.39-5.9,5.72-7.15,3.93-6.79,9.29,7.51,6.62,10.9,4.83S290.88,222.67,290.88,222.67Z" style="fill:#263238;stroke:#263238;stroke-miterlimit:10"></path><path d="M302.14,222.67s2.15-7.51,4.83-7.51,4.47,3.39,5.9,5.72,7.15,3.93,6.79,9.29-7.51,6.62-10.91,4.83S302.14,222.67,302.14,222.67Z" style="fill:#263238;stroke:#263238;stroke-miterlimit:10"></path><path d="M288.38,249.48s1.43,2,5,2.14a70.32,70.32,0,0,0,13-.65c2.44-.49,4.66-1.49,4.12-3.64s-6.25-3.39-10.37-3.21S287.3,248.41,288.38,249.48Z" style="fill:#fff;stroke:#263238;stroke-miterlimit:10"></path><path d="M292,221.41s-12.51,14.48-12.33,19.31,4.29,7.33,7.15,8.22,10.9-2.32,14.12-2,6.26,2.5,9.65.35,4.29-6.25,2.68-10.36-8.22-13.05-11.79-15.38S294.1,219.45,292,221.41Z" style="fill:#fff;stroke:#263238;stroke-miterlimit:10"></path><path d="M302.68,237s-.63.21-1.59.46a16.63,16.63,0,0,1-6.28.61c-3.22-.54-7.33-2-6.08,1.79s7.87,5,11.44,4.29,7.69-3.58,6.44-6.08S302.68,237,302.68,237Z" style="fill:#263238;stroke:#263238;stroke-miterlimit:10"></path><path d="M286.81,223.57a1.52,1.52,0,1,1-1.51-1.52A1.52,1.52,0,0,1,286.81,223.57Z" style="fill:#fff;stroke:#263238;stroke-miterlimit:10"></path><path d="M308.12,223.57a1.52,1.52,0,1,1-1.52-1.52A1.52,1.52,0,0,1,308.12,223.57Z" style="fill:#fff;stroke:#263238;stroke-miterlimit:10"></path></g><g id="freepik--Floor--inject-30"><polygon points="467.37 428.52 468.01 425.61 456.65 427.66 457.19 423.32 447.96 428.21 451.76 421.7 445.25 422.78 443.41 423.43 436.03 426.04 434.4 420.61 431.15 426.04 426.81 421.7 424.09 427.66 415.95 422.24 417.58 427.66 411.07 427.12 411.9 428.96 408.84 429.44 405.77 428.96 406.61 427.12 400.1 427.66 401.72 422.24 393.58 427.66 390.87 421.7 386.53 426.04 383.28 420.61 381.65 426.04 374.27 423.43 372.43 422.78 365.92 421.7 369.71 428.21 360.49 423.32 361.03 427.66 359.13 427.32 359.22 427.12 358.41 427.19 353.14 426.24 354.34 422.24 346.2 427.66 343.49 421.7 339.15 426.04 335.89 420.61 334.26 426.04 326.88 423.43 325.04 422.78 318.53 421.7 322.33 428.21 313.1 423.32 313.65 427.66 307.63 426.58 307.85 425.61 305.06 426.11 302.28 425.61 302.49 426.58 296.48 427.66 297.02 423.32 287.8 428.21 291.6 421.7 285.08 422.78 283.24 423.43 275.86 426.04 274.23 420.61 270.98 426.04 266.64 421.7 263.93 427.66 255.79 422.24 257.42 427.66 250.91 427.12 251.74 428.96 248.03 429.54 244.32 428.96 245.15 427.12 238.64 427.66 240.26 422.24 232.13 427.66 229.41 421.7 225.07 426.04 221.82 420.61 220.19 426.04 212.81 423.43 210.97 422.78 204.46 421.7 208.25 428.21 199.03 423.32 199.57 427.66 197.67 427.32 197.76 427.12 196.95 427.19 191.68 426.24 192.88 422.24 184.74 427.66 182.03 421.7 177.69 426.04 174.43 420.61 172.8 426.04 165.42 423.43 163.58 422.78 157.07 421.7 160.87 428.21 151.65 423.32 152.19 427.66 146.17 426.58 146.39 425.61 143.6 426.11 140.82 425.61 141.03 426.58 135.02 427.66 135.56 423.32 126.34 428.21 130.14 421.7 123.63 422.78 121.78 423.43 114.4 426.04 112.78 420.61 109.52 426.04 105.18 421.7 102.47 427.66 94.33 422.24 95.96 427.66 89.45 427.12 90.28 428.96 86.37 429.57 76.08 428.52 76.72 425.61 65.35 427.66 65.9 423.32 56.67 428.21 60.47 421.7 53.96 422.78 52.12 423.43 44.74 426.04 43.11 420.61 39.85 426.04 35.51 421.7 32.8 427.66 24.66 422.24 26.29 427.66 19.78 427.12 20.61 428.96 13.09 430.13 82.76 430.13 91.9 430.13 125.64 430.13 161.57 430.13 173.03 430.13 204.45 430.13 244.22 430.13 251.83 430.13 287.1 430.13 323.03 430.13 334.48 430.13 365.91 430.13 404.38 430.13 413.29 430.13 483.19 430.13 467.37 428.52" style="fill:#263238;stroke:#263238;stroke-miterlimit:10"></polygon></g><g id="freepik--panda-1--inject-30"><path d="M115.78,386.68s5.09,8.91,4.33,19.35-4.58,23.41-1.53,26.46,19,1.37,22.3,1.12,7.89-1.78,6.61-4.58-5.5-1.88-5-5.19S153.45,419,154.21,403s-1-20.61-1-20.61Z" style="fill:#263238;stroke:#263238;stroke-miterlimit:10"></path><path d="M206.89,271.39s-16.79.77-28,2-55,4.07-75.59,23.41S69.46,356.65,63.1,365.56s-17.82,18.63-27.23,28.05S24.67,415,26.7,421.86s11.71,12.22,16.55,13,9.67-.25,9.92-3.56-3.56-9.93-1-12.73,16-11,31.05-12.52,29-16.55,29-16.55a89.28,89.28,0,0,0,27.48,5.35c14.51.25,17.57-1.27,17.57-1.27s11.19,26,15.77,32.06,13.24,9.93,19.6,9.93,19.09.25,20.11-3.31-3.57-8.91-6.11-10.43-1.53.76-4.33-2.8-4.58-8.91-.76-22.91,6.87-17.82,14-20.11,11.7-.76,16.79,3.82,23.16,37,28,43.91,5.6,7.89,17.05,9.17,13.49-1.53,12.73-5.09-5.6-5.35-7.64-10.95-4.32-26.35-5.34-42.38-2.8-29.78-2.8-29.78-4.58-6.62-12.22-26.21S226,278.26,226,278.26Z" style="fill:#fff;stroke:#263238;stroke-miterlimit:10"></path><path d="M282.48,416.85c-2-5.6-4.32-26.35-5.34-42.38s-2.8-29.78-2.8-29.78-4.58-6.62-12.22-26.21S226,278.26,226,278.26l-19.09-6.87s-13.84.63-24.77,1.7a132.48,132.48,0,0,0-25.36,46.66c-9.42,31.3.51,73.81.51,73.81s11.19,25.95,15.77,32.06,13.24,9.93,19.6,9.93,19.09.25,20.11-3.31-3.57-8.91-6.11-10.43-1.53.76-4.33-2.8-4.58-8.91-.76-22.91,6.87-17.82,14-20.11,11.7-.76,16.79,3.82,23.16,37,28,43.91,5.6,7.89,17.05,9.17,13.49-1.53,12.73-5.09S284.52,422.45,282.48,416.85Z" style="fill:#263238;stroke:#263238;stroke-miterlimit:10"></path><path d="M248.3,290.16a44.36,44.36,0,0,1,7.87,5.24c2.82,2.62,9.07,7.06,15.11,15.93s7.86,17.33,6.86,29.43-6.86,15.32-7.26,17.33-.4,4.64-1.41,7.26-8.06,6.45-13.91,7.26S244.27,369,244.27,369l-5.64.6c-10.28,1-30.84-5.64-36.29-18.14-1.77-4.08-2-9.5-1.5-14.94,0,0-12.4-13.48-13.61-29.41s3.42-30.43,12.49-34.46,22.78-.61,27.42,2S248.3,290.16,248.3,290.16Z" style="fill:#fff;stroke:#263238;stroke-miterlimit:10"></path><path d="M206,314a84.37,84.37,0,0,0-4.43,20.16" style="fill:#fff;stroke:#263238;stroke-miterlimit:10"></path><path d="M252.13,299.84s-.6-6.86,2.42-11.9,8.67-.4,10.69,4.44.2,9.88-.41,11.29,1.21.8-.6,1.41S254.75,303.26,252.13,299.84Z" style="fill:#263238;stroke:#263238;stroke-miterlimit:10"></path><path d="M244.88,343.58s.2-10.48-3.23-10.68-5.24,10.68-8.46,15.52-.61,10.28,2.82,10.88,6.45-8.87,7.46-11.49A42.94,42.94,0,0,0,244.88,343.58Z" style="fill:#263238;stroke:#263238;stroke-miterlimit:10"></path><path d="M256.77,338.94s-2.62-9.67,1-8.87,6.05,7.06,6.05,7.06,6,5,5.64,8.87-3.43,3-3.43,3Z" style="fill:#263238;stroke:#263238;stroke-miterlimit:10"></path><path d="M262.41,359.1a11.6,11.6,0,0,1-4.63,2.62c-2.82.81-3.83,1.21-2.82,3s4.63,1.81,7,.6,5-4.64,3.43-6.25A2,2,0,0,0,262.41,359.1Z" style="fill:#263238;stroke:#263238;stroke-miterlimit:10"></path><line x1="244.27" y1="368.98" x2="238.23" y2="365.35" style="fill:#fff;stroke:#263238;stroke-miterlimit:10"></line><path d="M94.15,378.28c-8.4-11.45-15.78-13-19.85-10.94s-7.13,5.85-10.18,3.31A28.77,28.77,0,0,0,61,368.47c-6.58,9-16.67,16.68-25.13,25.14C26.45,403,24.67,415,26.7,421.86s11.71,12.22,16.55,13,9.67-.25,9.92-3.56-3.56-9.93-1-12.73,16-11,31.05-12.52,29-16.55,29-16.55S102.55,389.74,94.15,378.28Z" style="fill:#263238;stroke:#263238;stroke-miterlimit:10"></path><path d="M100.26,328.15s-9.42,8.65-11.46,14.76" style="fill:none;stroke:#263238;stroke-miterlimit:10"></path><path d="M96.18,337.82s-4.83,4.58-6.1,9.16" style="fill:none;stroke:#263238;stroke-miterlimit:10"></path><path d="M97.46,343.16s-3.57,4.58-3.57,5.86" style="fill:none;stroke:#263238;stroke-miterlimit:10"></path><path d="M97.71,355.38s-2.29,6.87-.51,13" style="fill:none;stroke:#263238;stroke-miterlimit:10"></path><path d="M224.72,300.64s-1.41-2.62-6.25-6-8.67-4.84-12.7.4.2,12.3,2.82,13.71,2.22,4.84,11.49,1.81S224.72,300.64,224.72,300.64Z" style="fill:#263238;stroke:#263238;stroke-miterlimit:10"></path><path d="M243.09,344.6a1.77,1.77,0,1,1-1.77-1.77A1.76,1.76,0,0,1,243.09,344.6Z" style="fill:#fff;stroke:#263238;stroke-miterlimit:10"></path><path d="M261.31,338.93a1.77,1.77,0,1,1-1.77-1.77A1.76,1.76,0,0,1,261.31,338.93Z" style="fill:#fff;stroke:#263238;stroke-miterlimit:10"></path><path d="M110.78,387.12s-8.19-3.64-12.44-14.26" style="fill:none;stroke:#263238;stroke-miterlimit:10"></path></g></svg>
