<svg xmlns="http://www.w3.org/2000/svg" viewBox="0 0 500 500"><g id="freepik--Branch--inject-107"><g id="freepik--branch--inject-107"><path d="M85.17,340.79c10.69.9,19.23,1.7,30,8.43s18,21,22.77,28.71,11.12,14.3,16.37,15.55c-12.08,1.18-32.94,4.17-51.94-11.67C85.17,367.49,89.59,353,85.17,340.79Z" style="fill:#BA68C8"></path><path d="M137.91,377.93c-4.81-7.66-12-22-22.77-28.71s-19.28-7.53-30-8.43c5.46,5.9,12.65,23.55,35.46,38.86,8.07,5.42,20.59,12.06,33.65,13.83C149,392.23,142.73,385.59,137.91,377.93Z" style="fill:#fff;opacity:0.2"></path><path d="M393.81,421.19c6.32,2.1,18.72-4.14,40.63,4.92s31.6,36.07,34.37,49.43c-2.65-4.59-8.75-8.07-21.18-11s-25.84-3.39-37.18-16.16C398.43,434.83,400.37,425.61,393.81,421.19Z" style="fill:#BA68C8"></path><path d="M434.44,426.11c-21.91-9.06-34.31-2.82-40.63-4.92,27.48,10.49,66.6,34.65,75,54.35C466,462.18,456.36,435.17,434.44,426.11Z" style="fill:#fff;opacity:0.2"></path><path d="M428.62,438.53c-21.8-18.24-65.61-28.94-96.13-38.65s-40.63-14.67-49-18.64-60.85-34.88-82.06-47.76-22.4-21-27.75-27.36-11.49-3.76-24.38-2.85-27.75-.72-42.61-2.63-48.56-20.68-54.34-23v0c-2.13-.84-4.73-.56-7.57,1.07-7.11,4.11-12.88,15.13-12.88,24.61,0,6.75,2.93,10.88,7.17,11.24v0s14.79.82,25.88,8.65c9,6.35,18,16.34,23,23.87s14.25,21.5,32.63,32.5C99.33,364,92.94,346.72,88,338.19s-13.52-16.8-13.52-16.8c36.08,8.09,69.92,9.11,86.76,14.15s26.76,13.2,52.33,28.06,50.15,24.78,64,30.92,14.28,6.94,24.38,16.26,34.69,27.35,41.83,30.32a162.83,162.83,0,0,1-38.65-37.66s31.12,3.18,53.91,9.12S406.82,426.63,428.62,438.53Z" style="fill:#263238"></path></g></g><g id="freepik--Clouds--inject-107"><path id="freepik--Cloud--inject-107" d="M377.4,72a15.88,15.88,0,0,0-5.27-1c-1.7-.13-2.24-.47-2.57-.84a12.59,12.59,0,0,0-15.11-4.47c-1-4.08-5.95-7.63-11.39-6.43.19-5.31-6.59-11-12.69-12.32-5.84-1.24-10.93-.72-14.27,3.12-3.56-7-17.55-8.93-25.12-5.24-4.35,2.12-8.05,4.29-9.85,8.28A16.65,16.65,0,0,0,279.49,61c-2.95-2.6-8.86-3.3-12.8-1.78-4.25,1.65-4.57,4.85-4.78,8.11a14.74,14.74,0,0,0-7.73-.14c-2.68.79-4.22,2.89-3.85,4.59-2.12-.12-7.16,1.59-6.58,3.83.65,2.51,6.41,2.25,8.56,2.17a39.6,39.6,0,0,0,6-.94,9.23,9.23,0,0,0,3.13.59c3.67,0,5.23-1.59,5.82-3,1.79,3.77,8.16,6.64,12.66,7.79,8.48,2.18,20.48.85,25.71-5.49a9.31,9.31,0,0,0,2.52,3.08A14.68,14.68,0,0,0,316,83c3.48.33,12.83.77,15.46-4.76,1.87,3.68,10.19,5.35,16.52,4.46a26.09,26.09,0,0,0,7.08-2.14,41.93,41.93,0,0,0,4.08-2.45c1.24-.74,1.81-.74,3.47-.23,4.34,1.31,9.38,1.84,13.82,0C380,76.42,380.72,73.46,377.4,72Z" style="fill:#f0f0f0"></path><path id="freepik--cloud--inject-107" d="M441.58,132.94a12.74,12.74,0,0,0-4.35-.8c-1.4-.11-1.85-.39-2.12-.7a10.36,10.36,0,0,0-12.45-3.67c-.83-3.37-4.9-6.3-9.38-5.31.15-4.38-5.44-9.08-10.46-10.15-4.81-1-9-.59-11.76,2.57-2.94-5.74-14.46-7.36-20.7-4.32-3.59,1.75-6.63,3.54-8.12,6.83a13.73,13.73,0,0,0-1.35,6.53c-2.43-2.14-7.3-2.72-10.55-1.46-3.5,1.35-3.76,4-3.93,6.67A12.31,12.31,0,0,0,340,129c-2.2.65-3.47,2.38-3.17,3.78-1.75-.09-5.9,1.32-5.43,3.16.54,2.07,5.29,1.86,7.06,1.79a31.7,31.7,0,0,0,5-.78,7.49,7.49,0,0,0,2.58.49c3,0,4.3-1.31,4.79-2.44,1.47,3.11,6.72,5.47,10.43,6.42,7,1.79,16.88.7,21.18-4.52a8,8,0,0,0,2.09,2.54,12.11,12.11,0,0,0,6.46,2.62c2.87.26,10.58.63,12.75-3.93,1.53,3,8.39,4.42,13.61,3.67a21,21,0,0,0,5.83-1.76,36,36,0,0,0,3.36-2c1-.62,1.49-.61,2.86-.2,3.58,1.08,7.74,1.52,11.39,0C443.7,136.62,444.31,134.18,441.58,132.94Z" style="fill:#f5f5f5"></path><path id="freepik--cloud--inject-107" d="M447.67,341a14.92,14.92,0,0,0-5.07-.94c-1.64-.13-2.17-.46-2.48-.81a12.11,12.11,0,0,0-14.54-4.3c-1-3.93-5.73-7.35-11-6.2.18-5.11-6.35-10.6-12.21-11.85-5.63-1.2-10.53-.7-13.74,3-3.44-6.71-16.9-8.6-24.19-5.05-4.19,2-7.74,4.14-9.48,8a15.93,15.93,0,0,0-1.58,7.63c-2.84-2.5-8.53-3.18-12.32-1.71-4.09,1.58-4.4,4.66-4.6,7.8a14.39,14.39,0,0,0-7.45-.14c-2.57.77-4.06,2.79-3.7,4.43-2-.12-6.9,1.53-6.34,3.68.63,2.42,6.17,2.17,8.24,2.1a39.05,39.05,0,0,0,5.8-.91,8.87,8.87,0,0,0,3,.57c3.53,0,5-1.54,5.59-2.85,1.72,3.63,7.86,6.39,12.19,7.5,8.17,2.09,19.72.82,24.75-5.29a9.23,9.23,0,0,0,2.43,3,14.18,14.18,0,0,0,7.56,3.06c3.35.31,12.35.74,14.89-4.59,1.79,3.55,9.8,5.16,15.89,4.29a25.15,25.15,0,0,0,6.83-2,41.92,41.92,0,0,0,3.92-2.36c1.2-.72,1.74-.71,3.34-.22,4.18,1.26,9,1.77,13.3,0C450.16,345.32,450.87,342.47,447.67,341Z" style="fill:#f5f5f5"></path><path id="freepik--cloud--inject-107" d="M130.91,237.74a9.52,9.52,0,0,0-3.17-.59c-1-.08-1.35-.28-1.55-.5A7.57,7.57,0,0,0,117.1,234a5.79,5.79,0,0,0-6.85-3.87c.11-3.2-4-6.63-7.63-7.41S96,222.25,94,224.56c-2.15-4.2-10.57-5.38-15.12-3.16-2.62,1.28-4.84,2.58-5.93,5a10.08,10.08,0,0,0-1,4.78c-1.78-1.57-5.33-2-7.7-1.08-2.56,1-2.75,2.92-2.88,4.88a9.09,9.09,0,0,0-4.65-.09c-1.61.48-2.54,1.75-2.31,2.77-1.28-.07-4.31,1-4,2.3.39,1.51,3.85,1.36,5.15,1.31a24.41,24.41,0,0,0,3.62-.57,5.51,5.51,0,0,0,1.88.36c2.21,0,3.15-1,3.5-1.78,1.08,2.26,4.91,4,7.62,4.69,5.1,1.3,12.32.51,15.46-3.31a5.56,5.56,0,0,0,1.52,1.85A8.84,8.84,0,0,0,94,244.41c2.1.19,7.72.46,9.31-2.87,1.12,2.21,6.12,3.22,9.93,2.68a15.48,15.48,0,0,0,4.26-1.28,26,26,0,0,0,2.45-1.47,2,2,0,0,1,2.09-.15,12.44,12.44,0,0,0,8.32,0C132.46,240.42,132.91,238.64,130.91,237.74Z" style="fill:#f5f5f5"></path><path id="freepik--cloud--inject-107" d="M171,97.62a12.59,12.59,0,0,0-4.25-.78c-1.38-.11-1.82-.38-2.08-.68a10.15,10.15,0,0,0-12.19-3.6c-.81-3.3-4.8-6.16-9.19-5.2.15-4.28-5.32-8.89-10.24-9.93-4.71-1-8.82-.59-11.51,2.51-2.88-5.62-14.17-7.2-20.28-4.23-3.51,1.71-6.49,3.47-8,6.69A13.45,13.45,0,0,0,92,88.8c-2.38-2.1-7.15-2.67-10.32-1.44C78.23,88.69,78,91.27,77.8,93.9a11.89,11.89,0,0,0-6.24-.11c-2.16.64-3.41,2.33-3.11,3.7-1.71-.09-5.78,1.29-5.31,3.09.52,2,5.17,1.82,6.91,1.76a32.58,32.58,0,0,0,4.86-.77,7.21,7.21,0,0,0,2.53.48c3,0,4.21-1.29,4.69-2.39,1.44,3,6.58,5.36,10.22,6.29,6.84,1.75,16.52.69,20.74-4.43a7.49,7.49,0,0,0,2,2.48,11.77,11.77,0,0,0,6.33,2.57c2.81.26,10.35.62,12.48-3.84,1.5,3,8.22,4.32,13.32,3.59A21,21,0,0,0,153,104.6a35.76,35.76,0,0,0,3.29-2c1-.61,1.46-.6,2.8-.19,3.5,1,7.57,1.48,11.15,0C173.07,101.23,173.67,98.84,171,97.62Z" style="fill:#f5f5f5"></path></g><g id="freepik--Bird--inject-107"><g id="freepik--robin-bird--inject-107"><path d="M255.26,361.2c-2.27-1.8-3.12-2.31-1.85-5.6s24.49-61.35,24.49-61.35l-9.53-3.07s-18.37,56.86-20,60.3-5.5,4.38-9,5.08q-3.21.65-6.43,1.14a5,5,0,0,0-1.89.57,5.93,5.93,0,0,0-1.65,2.16,12.41,12.41,0,0,1-2.3,2.85,4.45,4.45,0,0,0-1.55,2c-.25,1,.4,2.05.89,3a10.17,10.17,0,0,1,.9,2.51,5.76,5.76,0,0,0,.46,1.53,3.57,3.57,0,0,0,2.24,1.43,10.35,10.35,0,0,0,2.93.39,4.65,4.65,0,0,1-3.75-4.69c-.09-.81-.19-1.61-.28-2.42a3.82,3.82,0,0,1,.05-1.65,3.9,3.9,0,0,1,.8-1.19l1.59-1.83a3.42,3.42,0,0,1,1.1-.94,3.48,3.48,0,0,1,1.16-.19l1.06-.05,4.57-.2c1.83-.08-.44,2.18-.79,2.66a12.16,12.16,0,0,1-2.16,2.37,14.33,14.33,0,0,0-1.93,1.54,2.2,2.2,0,0,0-.56,2.26A14.89,14.89,0,0,1,235,372a8.86,8.86,0,0,1,.15,2.95,2.33,2.33,0,0,0,.26,1.67,2,2,0,0,0,1,.57,4.32,4.32,0,0,1,.92.61,4.4,4.4,0,0,0,3.52.67c-.07-.11-.22-.13-.34-.16a3,3,0,0,1-1.69-1.06,5.83,5.83,0,0,1-.75-2.37,22.09,22.09,0,0,1-.47-2.68c-.17-1.05-.77-2.16-.23-3.21a13,13,0,0,1,3-3.37q1.88-1.69,3.84-3.3c.76-.63,1.34-.36,1.19.66a16.14,16.14,0,0,1-1.42,4.71c-.57,1.2-2.2,2.79-2.12,4.16a5.15,5.15,0,0,0,.63,1.52c.21.56.43,1.16.61,1.74a13.59,13.59,0,0,1,.61,3.46c0,.73-.31,1.6.26,2.21.37.38,1,.43,1.44.67a7.72,7.72,0,0,0,1.93.75,3.34,3.34,0,0,0,2.05-.14,5.3,5.3,0,0,0,1-.64,3,3,0,0,1-2.1-.55,3.6,3.6,0,0,1-1.33-1.27,5.45,5.45,0,0,1-.4-1.76c-.31-1.57-.56-3.14-.81-4.72a6.72,6.72,0,0,1,.76-3.83q1.09-2.49,2.38-4.89c.74-1.38,1.3-2,2.8-1.17l4.33,2.52A3.55,3.55,0,0,0,255.26,361.2Zm-41-24.17c-2.27-1.81-3.12-2.32-1.84-5.61s23.17-58,23.17-58l-9.41-2.89S209,323.87,207.32,327.3s-5.5,4.39-9,5.08c-2.13.43-4.28.82-6.43,1.15a4.93,4.93,0,0,0-1.89.56,6.06,6.06,0,0,0-1.65,2.17,12.31,12.31,0,0,1-2.29,2.84,4.34,4.34,0,0,0-1.55,2c-.26,1,.39,2.05.88,3a10.17,10.17,0,0,1,.9,2.51,5.27,5.27,0,0,0,.47,1.52,3.53,3.53,0,0,0,2.24,1.44,11,11,0,0,0,2.92.39,6.32,6.32,0,0,1-3.06-2.12,6.1,6.1,0,0,1-.68-2.57c-.1-.81-.19-1.62-.29-2.42a4,4,0,0,1,0-1.65,3.78,3.78,0,0,1,.8-1.19l1.59-1.83a2.44,2.44,0,0,1,2.27-1.13l1.05,0,4.57-.2c1.84-.08-.44,2.18-.78,2.65a12.29,12.29,0,0,1-2.17,2.38c-.81.64-2.18,1.41-2.35,2.52a3.85,3.85,0,0,0,.33,1.72,9.37,9.37,0,0,1,.31,4.58,2.24,2.24,0,0,0,0,1.45c.26.47.79.61,1.25.81a9.66,9.66,0,0,1,1.4,1,4.66,4.66,0,0,0,2.54.95,3.8,3.8,0,0,1-2.12-2.38,7.26,7.26,0,0,1-.23-1.53,25.9,25.9,0,0,1-.21-5.83c.23-1.45,2-2.71,3.05-3.65q1.88-1.71,3.84-3.31c.76-.62,1.34-.36,1.19.67a16.23,16.23,0,0,1-1.42,4.71,6.25,6.25,0,0,1-1,1.53,3,3,0,0,0-1,1.79,6.48,6.48,0,0,0,.51,1.94,7.57,7.57,0,0,1,.18,2.07,16.66,16.66,0,0,1-.38,4.11,2.55,2.55,0,0,0-.16.94c.09,1,1.52,1.8,2.21,2.36a7.16,7.16,0,0,0,3.89,1.43,6,6,0,0,1-3-5,12.42,12.42,0,0,1,.1-1.93l.42-4.09a10.77,10.77,0,0,1,.69-3.56c.72-1.65,1.52-3.28,2.37-4.88.74-1.38,1.3-2,2.8-1.17l4.33,2.52A3.55,3.55,0,0,0,214.21,337Z" style="fill:#455a64"></path><path d="M268.37,291.18S267,295.59,264.86,302q5.2-.42,10.43-1.24l2.61-6.53Z" style="fill:#37474f"></path><path d="M226.13,270.51S222,283.45,217.54,297c2.49.83,5.06,1.55,7.68,2.19l10.32-25.8Z" style="fill:#37474f"></path><path d="M388.58,219.05c7.73-2.18,37.38-2.49,47.89-2.18s22.63-2.78,19.14-7.41-11-8.64-11-8.64S407.38,201.24,388.58,219.05Z" style="fill:#37474f"></path><path d="M426.78,186.4c-4.75-5.08-9-9.23-18.74-3-9.11,5.82-14.16,14.13-19,18.58-4.37,4-7.66,3.49-7.66,3.49l7.22,13.6Z" style="fill:#37474f"></path><path d="M388.58,219.05c13.47-9.22,53.36-16.34,61.4-19.41s5.3-7.89-3.61-13-15.94-3.77-24.44.11c-6.16,2.81-21.33,12.78-29.23,18.06-3,2-8.4,2.26-11.18.76C375.52,202.29,388.58,219.05,388.58,219.05Z" style="fill:#455a64"></path><path d="M265.45,167.25C218.14,182.9,181,207.58,159.38,246c5.15,13.94,18.67,31.64,53.45,44.85s85.71,6.87,118.49-18.67Z" style="fill:#e0e0e0"></path><path d="M212.83,290.88c34.77,13.2,85.71,6.87,118.49-18.67h0a126.54,126.54,0,0,1-26.93,14.38,147.31,147.31,0,0,1-47.56,9.47c-14,.29-28.52-1.27-41.8-5.94C192.59,282,169.07,269,159.38,246,164.53,260,178.05,277.67,212.83,290.88Z" style="opacity:0.1"></path><path d="M160.26,248.24c.27.65.57,1.31.88,2a5.91,5.91,0,0,0,4-3.52c1.64,6.54,4.91,17,13.83,18.76S189,260.77,189,260.77a21.56,21.56,0,0,0,12.63,12.4c10,3.86,14.72-3.28,14.72-8.33,3.77,6.53,19.62,13.08,23.93.15,5.31,3.16,10.77,3.94,15.44,2.28,5.65,5,13.83,9.67,20.4,8.91,12.84,6.95,25.2,8.33,39.39,6.17,1.31-.7,2.61-1.42,3.88-2.16l.6-.35c1.06-.62,2.12-1.27,3.16-1.93l.88-.56c1-.62,1.9-1.26,2.83-1.91.31-.21.62-.41.92-.63q1.79-1.26,3.51-2.6l-65.87-105c-38.77,12.82-70.7,31.72-92.87,59.28h0c-1.16,1.44-2.29,2.92-3.4,4.41-.09.12-.18.25-.28.37-1.11,1.52-2.21,3.06-3.27,4.62l-.07.11q-1.44,2.13-2.8,4.32l-.66,1.06c-.93,1.52-1.84,3.05-2.72,4.61.23.63.48,1.26.75,1.9Z" style="opacity:0.1"></path><path d="M379,204.21c-26.15-13.51-53.92-18.85-78.47-24.17-21.53-4.67-26.57-6.6-35.06-12.79l65.87,105c32.78-25.55,42.83-40.85,53.45-49.73S394.23,212.08,379,204.21Z" style="fill:#455a64"></path><path d="M247.17,143.58C237,143.23,231,139.92,223,137.07s-19.41.48-24.23,6.21c-5.1,6.06-2.17,11.45,0,14.59,3.09,4.47,2.68,6.39-6.19,10.7s-26.44,11.68-36.81,28.88a41,41,0,0,0-2.15,4.1c-7.64,16.85-3.52,38,1.86,42.81,6.65,6,7.9-2.63,7.9-2.63,1,9.56,8.91,21.18,15.38,21.39s6.95-4.4,6.47-6.32c4.31,8.2,10.82,15.77,19.64,15.09s6.94-8.77,6.94-8.77a21.09,21.09,0,0,0,18.48,6.75c9.94-1.09,7.15-10.91,7.15-10.91s8.95,9.79,20.36,3.59l7.66-95.3a25.4,25.4,0,0,0,1.68-9.95c0-6.36-.95-12.28-8.14-20C256.36,141.87,252.81,143.77,247.17,143.58Z" style="fill:#BA68C8"></path><path d="M247.17,143.58C237,143.23,231,139.92,223,137.07s-19.41.48-24.23,6.21c-5.1,6.06-2.17,11.45,0,14.59,3.09,4.47,2.68,6.39-6.19,10.7s-26.44,11.68-36.81,28.88a41,41,0,0,0-2.15,4.1c-7.64,16.85-3.52,38,1.86,42.81,6.65,6,7.9-2.63,7.9-2.63,1,9.56,8.91,21.18,15.38,21.39s6.95-4.4,6.47-6.32c4.31,8.2,10.82,15.77,19.64,15.09s6.94-8.77,6.94-8.77a21.09,21.09,0,0,0,18.48,6.75c9.94-1.09,7.15-10.91,7.15-10.91s8.95,9.79,20.36,3.59l7.66-95.3a25.4,25.4,0,0,0,1.68-9.95c0-6.36-.95-12.28-8.14-20C256.36,141.87,252.81,143.77,247.17,143.58Z" style="fill:#fff;opacity:0.30000000000000004"></path><path d="M214.45,224.15a18.21,18.21,0,0,1-1.1,2.72,13.57,13.57,0,0,1-1.45,2.43,9.42,9.42,0,0,1-4.41,3.26c-3.24,1.06-7.27-.21-8.78-3.4a.65.65,0,0,0-1-.15,11.42,11.42,0,0,1-9.4,4.15,10.87,10.87,0,0,1-8.67-5.39A11.36,11.36,0,0,1,178,222c0-.38-.57-.56-.86-.4a8.08,8.08,0,0,1-4.43,1.23A3.7,3.7,0,0,1,169.5,220a13.91,13.91,0,0,1-.25-5.3,18.87,18.87,0,0,1,1.57-5.65c.05-.11-.11-.37-.21-.22a16.63,16.63,0,0,0-2.26,6.24,11.45,11.45,0,0,0,.4,5.78,4.66,4.66,0,0,0,3.9,2.91,8.36,8.36,0,0,0,4.35-.91,12.5,12.5,0,0,0,5.17,9.12,12.1,12.1,0,0,0,11.12,1.42,12.35,12.35,0,0,0,4.79-3.16,8.46,8.46,0,0,0,6.92,3.65,9.8,9.8,0,0,0,8-4.27,11.55,11.55,0,0,0,1.34-2.37,9.89,9.89,0,0,0,.66-2.78C215.07,224.21,214.55,223.81,214.45,224.15Z" style="fill:#BA68C8;opacity:0.5"></path><path d="M257.79,262.55l7.13-88.69-10.1,6.4-18.43-.42c2,6.38,8,10.13,14,10.72-9.88,11.66-17.1,27.72-14.81,43,2.17,14.52,11.36,25.14,17.2,30.76A16.78,16.78,0,0,0,257.79,262.55Z" style="fill:#BA68C8;opacity:0.5"></path><path d="M153.61,201.55a41,41,0,0,1,2.15-4.1c10.37-17.2,27.83-24.52,36.81-28.88s9.28-6.23,6.19-10.7c-2.17-3.14-5.1-8.53,0-14.59,4.82-5.73,16.27-9.06,24.23-6.21s14,6.16,24.18,6.51c5.64.19,9.19-1.71,11.82-6.28-11.92-14.49-30.26-23.57-54.54-16.71s-28,20-36.14,28.17S155.71,161,152.74,163.4s-1.85,6.11,5.56,5.74c-4.45,3.52-9.82,10.94-1.85,10A39.41,39.41,0,0,0,153.61,201.55Z" style="fill:#455a64"></path><path d="M280,181.32c14,6.66,44.16,19.32,45.73,30.25C338,216.86,342.39,221,343,227.24c7.85,2.45,11.69,5.51,11.69,9.47,12.35,1.72,16.73,5.59,17.5,10.61,12.35.63,20.21,1.68,11.42,9.2-6.95,6-25.56,20.67-70.65,19.71a86.68,86.68,0,0,1-17.67-17.55C286.64,247.33,280,181.32,280,181.32Z" style="fill:#263238"></path><path d="M372.2,247.32c-6.56-.41-13.27-.64-19.84-.46q-13.16.34-26.29,1.2c-4.5.3-9,.63-13.5,1.06,0,0,16.84-.46,25.18-.87s16.55-.69,24.83-.71C365.81,247.53,372.74,247.36,372.2,247.32Zm-53.74-38.1c2.4.83,7.87,2.6,7.3,2.35a139.13,139.13,0,0,0-13.46-5.22c-4.1-1.3-8.23-2.52-12.37-3.69l-2.5-.7S311.51,206.81,318.46,209.22Zm24.55,18a238.35,238.35,0,0,0-38.32-8.64c-3.16-.47-6.33-.9-9.5-1.31,0,0,25.15,4.42,37.51,7.47C336.15,225.61,343.56,227.42,343,227.24Zm3.42,9c2.75.21,8.86.6,8.27.51a143.26,143.26,0,0,0-15.45-1.78c-6.16-.28-12.33-.34-18.49-.29-3.45,0-6.89.09-10.33.19C310.43,234.83,334.52,235.26,346.43,236.2Z"></path><path d="M328.26,241.4c-3.08.12-6.16.35-9.22.72-.1,0-.12.23,0,.23,5.43-.23,10.86-.51,16.3-.53s11.12.17,16.66.56c3,.21,6,.42,9,.65,0,0,.06-.08,0-.09A170.62,170.62,0,0,0,328.26,241.4Zm-10.44-36.35c.12.06.16-.22.07-.27a78.27,78.27,0,0,0-11-5.76,80.79,80.79,0,0,0-12.05-4.4c-.16-.05-.16.28,0,.33,4,1.4,8,2.79,11.88,4.5S314.16,203.1,317.82,205.05Zm13.26,14.62a38.13,38.13,0,0,0,3.84,1.24c.11,0,.11-.22,0-.26a48.26,48.26,0,0,0-6.47-2.49c-2.14-.74-4.28-1.44-6.44-2.11-4.32-1.34-8.68-2.57-13.08-3.62-2.6-.62-5.21-1.22-7.84-1.71-.19,0-.16.34,0,.38,9,2.14,17.85,4.49,26.59,7.42Zm44,33.07c-3.78.4-7.53,1.25-11.29,1.81s-7.52,1.08-11.29,1.51q-11.18,1.26-22.42,1.64c-4.22.14-8.44.16-12.66.29-.11,0-.12.25,0,.25a181.33,181.33,0,0,0,22.84-.41c7.49-.5,15-1.3,22.39-2.43q3.17-.48,6.31-1a56.56,56.56,0,0,0,6.18-1.31C375.28,253,375.25,252.73,375.12,252.74Zm-36-21.66c2.69.51,5.37,1,8.05,1.58.06,0,.09-.14,0-.16a221.77,221.77,0,0,0-28.82-5.44q-4.08-.52-8.18-.9c-.19,0-.17.36,0,.37,4.85.57,9.7,1.2,14.53,1.95S334.32,230.16,339.11,231.08Z"></path><path d="M265.45,167.25c8.87,5.12,43.62,44.35,22.54,49,13.62,7,25.7,33.83,9.88,34.27,12.52,7.24,24,24.22,11.64,28.11-7.68,2.42-25.93-1.34-32.92-5.5,0,0-5.29-6.36-8.37-26.13S270,188.78,265.45,167.25Z" style="fill:#37474f"></path><path d="M265.45,167.25c-.92,11.51-6.41,15.68-14.93,29.47s-16.33,31.22-4.73,51.28,25.48,26,30.8,25.09,4.8-14.06-4.61-30.25c6.24,4.1,15.58-7.81,3.14-32.79,5.05-1.23,5.94-7.63,3.11-16.57S265.45,167.25,265.45,167.25Z" style="fill:#455a64"></path><path d="M235.52,176.52c.58,3.77,2.19,7.64,8.36,10s15.11,1.06,20.77,1.88a23.75,23.75,0,0,0-9.83-7.53C248.34,178.09,235.52,176.52,235.52,176.52Z" style="fill:#37474f"></path><path d="M252.14,158.92c6-.44,9.29,2.7,13.31,8.33s5.5,17.23,3.3,20.76-7.74-2.59-13.62-4.94-15.46-4.4-20.47-7-3.79-5.28-.71-5.28,7.08-.61,9.38-4S246.12,159.36,252.14,158.92Z" style="fill:#455a64"></path><path d="M252.14,158.92c4.71-.78,9,2,11.73,5.6,4.6,5.14,6.5,12.21,6.33,19-.15,2.12-.39,5.68-3.12,5.92a6.68,6.68,0,0,1-3.34-1.11c-2.93-1.69-5.52-3.86-8.61-5.27,3.19,1.11,5.95,3.15,8.91,4.71a6.2,6.2,0,0,0,3,.91c2.07-.3,2.15-3.52,2.26-5.19,0-6.58-1.72-13.41-6-18.5-2.6-3.64-6.47-6.41-11.13-6.08Z" style="fill:#37474f"></path><path d="M224.24,150.55a7.35,7.35,0,0,0-8.45,0,31.53,31.53,0,0,1-3.84,3,1.87,1.87,0,0,0-.67,2.68c.54,1,.41,2.18,1.5,4.87.86,2.12,3.82,4.14,7.24,4a13.56,13.56,0,0,0,6.08-2.05c1.41-.7,1.9-.41,2.41-1s.22-1.19-.23-2.71S228.54,153.34,224.24,150.55Z" style="fill:#263238"></path><circle cx="223.09" cy="156.28" r="3.19" style="fill:#455a64"></circle></g></g></svg>