<svg xmlns="http://www.w3.org/2000/svg" viewBox="0 0 500 500"><g id="freepik--Floor--inject-60"><ellipse id="freepik--floor--inject-60" cx="250" cy="378.09" rx="224.29" ry="108.86" style="fill:#f5f5f5"></ellipse></g><g id="freepik--Plants--inject-60"><g id="freepik--Leaves--inject-60"><g id="freepik--leaves--inject-60"><path d="M58.38,317.61s-7.42.49-15.32-6.22c-6.34-5.38-7.34-10.12-6.66-10.68s4.13.6,11.27,6.5C50.65,309.67,58.38,317.61,58.38,317.61Z" style="fill:#BA68C8"></path><path d="M73.48,324.24c-.82-.24-8-4.52-13.91-11-3.17-3.48-3.76-6.18-2.77-6.53.58-.21,4,1,8.82,6.29S74.3,324.48,73.48,324.24Z" style="fill:#BA68C8"></path><path d="M64.77,321c-.79-.4-3.77-.52-8.68.13-3.32.43-7.23.69-7.34,1.79s3.89,2.69,7.74,2.19S65.56,321.4,64.77,321Z" style="fill:#BA68C8"></path><path d="M79.6,326.45c-.95-.36-6.71.77-9.36,1.3s-5.59,1.69-6,3,3.17,2.2,7.55.94S80.55,326.8,79.6,326.45Z" style="fill:#BA68C8"></path><path d="M86.64,327.6c-.8.16-4.83-2.78-8.41-5.9s-7.07-7.71-5.48-8.35,4.59,1,8,4.71C84.58,322.12,87.44,327.44,86.64,327.6Z" style="fill:#BA68C8"></path><path d="M93.41,328.85c-.42-.29-4.22,1.57-8.26,3.18s-5.73,2.28-5.64,3.59,2.85,2.34,7.14.13S93.84,329.15,93.41,328.85Z" style="fill:#BA68C8"></path><path d="M39.75,304.57A89.83,89.83,0,0,0,55,316.14a106.93,106.93,0,0,0,17.2,8.49,66.16,66.16,0,0,0,18.68,4.55c6.41.42,13.09-.3,18.83-3.22a.07.07,0,0,0,0-.09.09.09,0,0,0-.09,0,42.29,42.29,0,0,1-18.66,2,78.23,78.23,0,0,1-18.42-4.21,105.27,105.27,0,0,1-17.22-8,89.38,89.38,0,0,1-15.49-11.08.06.06,0,0,0-.09,0A.07.07,0,0,0,39.75,304.57Z" style="fill:#e0e0e0"></path></g><g id="freepik--leaves--inject-60"><path d="M46.23,232.12c-.36-10.61-4.08-13.08-6.44-17-3-5-2.79-8.57-2.79-8.57-1.26,3-2.3,11.39,1.58,16.36C41.83,227.06,45,228,46.23,232.12Z" style="fill:#e0e0e0"></path><path d="M48.85,220.47c6.16-2.41,10.3-7.18,11-13.56a21.36,21.36,0,0,1,3.5-10C50.44,203.56,48.4,215.76,48.85,220.47Z" style="fill:#e0e0e0"></path></g><path id="freepik--leaves--inject-60" d="M77.56,307.66a7,7,0,0,0,3.71,1c.09-.22-.19-.4-.41-.47-2.84-.92-9.34-5.65-10-6.29-2.41-2.24-6.21-6-7-6.81-1.64-6.26-1.16-13.21-5.7-18.37-.17-.19-.58-.18-.47.16.56,1.76.22,3.86.49,5.68a25.6,25.6,0,0,0,.65,3.25,11.61,11.61,0,0,0,3.77,5.63c.17,1,.37,2,.63,3-1.05-1.14-2.05-2.31-3.06-3.48-3.11-3.66-6.14-7.39-9-11.25a22.8,22.8,0,0,0-.5-2.92,11.47,11.47,0,0,0-.86-2.78c1.43-1.38,1.41-3.6,1.06-5.6.62-4.85-.62-10,1-14.67a25.71,25.71,0,0,0,1.4-3.39,18,18,0,0,0,.76-3.63,16,16,0,0,0,0-3.46,16.7,16.7,0,0,0-.89-3.74c-.17-.47-.35-.92-.51-1.39a6.73,6.73,0,0,1-.41-1.32c0-.27,0-.72-.31-.77-.12-.07-.25-.1-.32,0a6.25,6.25,0,0,0-.46.79c-.12.32-.2.66-.35,1a12.37,12.37,0,0,0-.63,2.07c-.36,1.27-.76,2.52-1,3.82-.18.86-.36,1.72-.47,2.59a8.36,8.36,0,0,0,.1,2.34c.07.43.16.83.27,1.25.15.59.32,1.15.49,1.73.28.94.59,1.89.84,2.83a4.74,4.74,0,0,1,.16.65c0,.17,0,.51.11.64s0,0,0,0a22.31,22.31,0,0,0-.22,3.28c-.07,2.33-.17,4.74-.13,7.12a82.09,82.09,0,0,0-4-10.24c-.09-.19-.47-.36-.53-.07-1.4,6.45-.59,12.39,3.33,17.71a16.9,16.9,0,0,1,1.06,3.77c.07.43.11.88.17,1.33a108.32,108.32,0,0,1-7.75-11.71c-.6-1.07-1.17-2.15-1.72-3.23a.14.14,0,0,0,0-.21l-.11-.09c-.54-1-1.07-2.08-1.6-3.11a14.16,14.16,0,0,1,.09-1.72,52.51,52.51,0,0,1,1.07-5.28,19.6,19.6,0,0,0,.29-2.32,18.47,18.47,0,0,0-.29-5c-.1-.54-.25-1.09-.35-1.63-.07-.35-.14-.71-.22-1.06a8.59,8.59,0,0,0-.42-1.66c-.25-.58-.58,0-.69.34-.27.91-.44,1.84-.64,2.77s-.5,1.58-.66,2.41c-.05.24-.13.48-.19.71a2.12,2.12,0,0,1-.19.57c-.1-.06-.17-.28-.23-.39s-.26-.5-.38-.76a5.5,5.5,0,0,0-.53-.95c-.19-.26-.32-.54-.48-.81a2.83,2.83,0,0,0-.48-.55,8.52,8.52,0,0,1-1-1.58,15.33,15.33,0,0,1-1.63-4.25c0-.2-.09-.4-.12-.61s-.47-.55-.53-.18a24.89,24.89,0,0,0-.25,6.84,17.06,17.06,0,0,0,.66,4c.18.54.32,1.07.55,1.6s.53,1.09.82,1.62c1,1.8,2.48,2.87,3.63,4.53.33.92.68,1.8,1.07,2.68a7,7,0,0,0-1.62-1,11.4,11.4,0,0,0-2.87-.72,20.21,20.21,0,0,1-4.69-1.44c-.18-.08-.31.1-.23.26a10.67,10.67,0,0,0,3.86,4.74c2.33,1.34,5,1.34,7.46,2.07.7,1.31,1.42,2.6,2.09,3.87,1.22,2.32,2.57,4.56,4,6.75a15.74,15.74,0,0,0-9.81-2.76c-.3,0-.1.35.09.4,3,.66,4.51,4.67,7,6.31a8.61,8.61,0,0,0,2.57,1.1,14.88,14.88,0,0,0,3.8.3c.32.43.63.88.95,1.31,3.3,4.44,6.83,8.7,10.44,12.87.78.91,4.44,4.81,5.25,5.57C70,302.57,73.14,305.43,77.56,307.66Zm-42.8-62a10.19,10.19,0,0,1,1.6,2.93,8.22,8.22,0,0,1,.28,2.09,15,15,0,0,1,0,1.64,4.79,4.79,0,0,0,0,.85c0,.32,0,.64,0,1a7.37,7.37,0,0,0,0,1.05,2.57,2.57,0,0,0,.26,1A25.35,25.35,0,0,0,35,253.72a14.33,14.33,0,0,1-1-1.26,11,11,0,0,1-.78-1.22,7.8,7.8,0,0,1-.5-1.2c-.09-.32-.2-.64-.3-1a9.32,9.32,0,0,1-.28-1.49,35.52,35.52,0,0,1-.24-3.85,30,30,0,0,1,.08-3.67,13.66,13.66,0,0,0,1.23,3.2A23,23,0,0,0,34.76,245.63Zm5.16,4.49a37.67,37.67,0,0,1-.56,4.61c-.11.74-.29,1.49-.41,2.23a12.56,12.56,0,0,0-.15,1.25,3.17,3.17,0,0,0,0,1.19A17.3,17.3,0,0,1,37.3,255a8.7,8.7,0,0,1-.13-.87,10.82,10.82,0,0,1,0-1.61,38.89,38.89,0,0,1,.63-4.44c.08-.54.18-1.08.29-1.62.21-1,.48-2,.69-3,0-.14.07-.65.21-.75s.27.42.3.54c.2.75.24,1.54.39,2.3.06.3.13.6.18.91.1.66.1,1.34.14,2,0,.34,0,.68,0,1,0,.1,0,.19,0,.29S39.92,250,39.92,250.12Zm-.29,12.67a23.59,23.59,0,0,0-3.17-.67c-2.28-.5-5.72-1.67-6.57-4.17-.47-1.42.21-.41,1.15-.11a15.87,15.87,0,0,0,2.28.46c1.91.33,3.88.82,5.2,2.26C38.87,261.31,39.25,262.05,39.63,262.79ZM51,254.51c0-.08-.07-.3-.08-.38s-.07-.27-.11-.4-.15-.53-.23-.8c-.17-.53-.35-1.06-.53-1.59a18.42,18.42,0,0,1-.58-2.75c-.5-3.24.58-6.47,1.57-9.51.08-.25.29-1.08.57-1.23s.88,1.92,1,2.17a20.37,20.37,0,0,1,.84,5.09,13.92,13.92,0,0,1-.34,3.81,17.09,17.09,0,0,1-1.16,3.63l-.48,1.09A4.69,4.69,0,0,0,51,254.51Zm-1.37,19c-1.52-2.69-3.13-4.92-3.67-8.11a23.7,23.7,0,0,1,.25-8.44c1.44,3.24,3.71,7.49,4.19,11.42,0,.2,0,.41,0,.61l0,0A8.35,8.35,0,0,1,49.65,273.47Zm-3.4,5.07a9.45,9.45,0,0,1-4.8-2.92c-1-1-1.72-2.15-2.75-3.05l-1.46-.91c.81.3,3.3.61,3.75.73a14,14,0,0,1,6.18,3.34c.7,1,1.41,2.07,2.14,3.08A28.5,28.5,0,0,1,46.25,278.54Zm16.21,12.25a12.88,12.88,0,0,1-3.3-5.77,27.44,27.44,0,0,1-.67-4.87c0-.76,0-1.55-.08-2.32C61.23,281.59,61.71,286.24,62.46,290.79Z" style="fill:#e0e0e0"></path></g><g id="freepik--leaves--inject-60"><g id="freepik--leaves--inject-60"><path d="M444.13,322.68s6.92-2.73,11.2-12.16c3.44-7.57,2.32-12.29,1.47-12.5s-3.48,2.31-7.42,10.69C447.74,312.2,444.13,322.68,444.13,322.68Z" style="fill:#BA68C8"></path><path d="M433.3,335.12c.63-.57,5.27-7.49,7.87-15.92,1.39-4.5.76-7.2-.28-7.09-.61.06-3.2,2.62-5.29,9.45S432.66,335.69,433.3,335.12Z" style="fill:#BA68C8"></path><path d="M439.79,328.47c.55-.7,3.19-2.08,7.91-3.59,3.19-1,6.84-2.45,7.4-1.51s-2.37,4.09-6.06,5.29S439.25,329.17,439.79,328.47Z" style="fill:#BA68C8"></path><path d="M428.7,339.72c.71-.72,6.4-2.16,9-2.8s5.78-.86,6.74.16-1.93,3.35-6.44,4.08S428,340.45,428.7,339.72Z" style="fill:#BA68C8"></path><path d="M422.83,343.77c.79-.2,3.18-4.57,5.09-8.92s3.11-10,1.39-9.89-3.7,2.91-5.25,7.69C422.36,337.94,422,344,422.83,343.77Z" style="fill:#BA68C8"></path><path d="M417.24,347.8c.26-.46,4.48-.39,8.83-.66s6.15-.37,6.63.84-1.58,3.34-6.4,3.17S417,348.25,417.24,347.8Z" style="fill:#BA68C8"></path><path d="M455.41,302.93a89.7,89.7,0,0,1-8.83,17,106.24,106.24,0,0,1-11.93,15,65.67,65.67,0,0,1-15,12.08c-5.61,3.12-12,5.31-18.4,5.13a.07.07,0,0,1-.07-.07.07.07,0,0,1,.06-.07A42.29,42.29,0,0,0,419,345.79a78.68,78.68,0,0,0,14.86-11.66A105.61,105.61,0,0,0,446,319.51a88.78,88.78,0,0,0,9.28-16.63.07.07,0,0,1,.09,0A.05.05,0,0,1,455.41,302.93Z" style="fill:#e0e0e0"></path></g><g id="freepik--leaves--inject-60"><path d="M421.8,253.16c.34-10.4-3.14-13-5.19-17-2.58-5.06-2.17-8.55-2.17-8.55-1.42,2.81-3,11,.49,16.08C417.83,247.92,420.86,249,421.8,253.16Z" style="fill:#e0e0e0"></path><path d="M431,236.53c6.21-1.87,10.62-6.2,11.83-12.37A21,21,0,0,1,447,214.7C433.88,220.15,430.92,231.9,431,236.53Z" style="fill:#e0e0e0"></path></g><path id="freepik--leaves--inject-60" d="M410.63,329.15a35.52,35.52,0,0,0,6.91-10.39c2.39-5,4.69-10,6.71-15.15.2-.5.38-1,.57-1.51a14.93,14.93,0,0,0,3.6-1.28,8.8,8.8,0,0,0,2.19-1.74c2-2.24,2.44-6.51,5.16-7.92.17-.1.27-.47,0-.42A15.75,15.75,0,0,0,427,296c.8-2.49,1.51-5,2.09-7.55.31-1.41.67-2.84,1-4.29,2.22-1.35,4.77-2,6.67-3.95a10.6,10.6,0,0,0,2.48-5.57.18.18,0,0,0-.29-.2A19.86,19.86,0,0,1,434.8,277a11.48,11.48,0,0,0-2.58,1.45,6.79,6.79,0,0,0-1.29,1.41c.14-1,.25-1.9.32-2.87.68-1.9,1.8-3.31,2.32-5.32a18.14,18.14,0,0,0,.37-1.78,16,16,0,0,0,.12-1.69,17.22,17.22,0,0,0-.41-4,24.93,24.93,0,0,0-2-6.54c-.16-.33-.5.1-.47.31s0,.43,0,.63a15,15,0,0,1-.46,4.52,7.88,7.88,0,0,1-.54,1.79,3,3,0,0,0-.32.65c-.08.3-.14.61-.25.91a6.44,6.44,0,0,0-.26,1.05c-.05.28-.11.56-.17.84,0,.11,0,.35-.12.44a2.41,2.41,0,0,1-.33-.5c-.12-.22-.26-.43-.37-.65-.38-.75-.89-1.4-1.27-2.15s-.84-1.7-1.34-2.51c-.19-.29-.66-.77-.76-.15a8.23,8.23,0,0,0,0,1.72c0,.36,0,.72.06,1.08,0,.55.05,1.11.09,1.67a18.05,18.05,0,0,0,1,4.93,16.34,16.34,0,0,0,.89,2.16c.82,1.59,1.74,3.15,2.41,4.82a13.62,13.62,0,0,1,.53,1.64c-.24,1.13-.48,2.28-.73,3.42l-.09.11a.14.14,0,0,0,0,.21c-.26,1.19-.52,2.38-.82,3.57A108.44,108.44,0,0,1,424,301.48c-.06-.45-.14-.9-.18-1.33a16.58,16.58,0,0,1,0-3.92c2.4-6.16,1.63-12.1-1.4-18-.14-.27-.46,0-.49.2a80.28,80.28,0,0,0-1.17,10.92c-.58-2.31-1.31-4.6-2-6.83a21.51,21.51,0,0,0-1.07-3.11v0a2.46,2.46,0,0,0-.06-.65c0-.22,0-.45,0-.67,0-1,.05-2,.08-3,0-.6,0-1.19,0-1.8,0-.43,0-.85-.06-1.28a8,8,0,0,0-.52-2.28c-.33-.82-.73-1.6-1.13-2.38-.6-1.19-1.31-2.29-2-3.42a12.74,12.74,0,0,0-1.14-1.83c-.23-.26-.39-.57-.6-.84a5.7,5.7,0,0,0-.65-.65c-.1-.12-.22-.05-.32.05-.3.13-.12.55-.09.82a7.09,7.09,0,0,1-.06,1.38c0,.5-.09,1-.12,1.48a15.92,15.92,0,0,0,.11,3.84,16.21,16.21,0,0,0,1,3.33,17.42,17.42,0,0,0,1.67,3.31,27.32,27.32,0,0,0,2.24,2.9c2.81,4.05,3,9.37,4.83,13.89.19,2,.75,4.18,2.49,5.13a11.38,11.38,0,0,0-.11,2.91,21.46,21.46,0,0,0,.28,3c-1.77,4.47-3.71,8.87-5.76,13.21-.67,1.39-1.33,2.78-2,4.16,0-1-.08-2-.17-3a11.7,11.7,0,0,0,2.17-6.42,28.16,28.16,0,0,0-.22-3.31c-.22-1.83-1.1-3.77-1-5.61,0-.35-.37-.26-.48,0-3,6.17-.77,12.75-.71,19.22a29.18,29.18,0,0,1-5.31,7.37C409.59,328.64,410.16,329.6,410.63,329.15Zm20.74-66.32a14,14,0,0,0,.36-3.41,33,33,0,0,1,1,3.52,37.22,37.22,0,0,1,.77,3.78,8.57,8.57,0,0,1,.11,1.52c0,.34,0,.67,0,1a6.91,6.91,0,0,1-.17,1.28,11.22,11.22,0,0,1-.44,1.39c-.16.49-.37,1-.58,1.47a23.57,23.57,0,0,0-1.24,2.88,2.76,2.76,0,0,0,0-1.07,8.89,8.89,0,0,0-.24-1c-.08-.31-.16-.62-.21-.94a6.86,6.86,0,0,0-.28-.8c-.17-.52-.33-1.05-.45-1.58a9.21,9.21,0,0,1-.27-2.09,10.37,10.37,0,0,1,.78-3.25A22.85,22.85,0,0,0,431.37,262.83Zm-4.82,8-.09-.27c-.09-.32-.2-.64-.27-1-.14-.67-.32-1.32-.39-2,0-.31,0-.62-.07-.93-.05-.77-.22-1.54-.22-2.32,0-.12-.06-.68.15-.6s.33.55.4.67c.46.92,1,1.81,1.44,2.73.25.49.49,1,.71,1.49a37.56,37.56,0,0,1,1.77,4.12,11.72,11.72,0,0,1,.39,1.55c0,.3.08.59.1.88a17.2,17.2,0,0,1-.29,4.69,3,3,0,0,0-.31-1.15c-.14-.4-.29-.78-.47-1.17-.31-.68-.67-1.36-1-2a36.62,36.62,0,0,1-1.74-4.31C426.64,271.07,426.6,270.94,426.55,270.81Zm4.21,10.1c.89-1.73,2.67-2.72,4.43-3.53a16.14,16.14,0,0,0,2.08-1c.83-.54,1.22-1.69,1.13-.19-.16,2.63-3.18,4.65-5.24,5.73a25.1,25.1,0,0,0-2.89,1.48C430.44,282.55,430.61,281.73,430.76,280.91Zm-14.29-3.3c-.24-.3-.47-.59-.75-.92a17,17,0,0,1-2.07-3.21,14.19,14.19,0,0,1-1.32-3.59,20.65,20.65,0,0,1-.52-5.13c0-.26-.06-2.44.37-2.35s.72.82.87,1c1.74,2.68,3.63,5.52,4,8.77a16.56,16.56,0,0,1,.16,2.81c0,.56-.07,1.11-.09,1.67,0,.28,0,.56,0,.84V278a1.64,1.64,0,0,0,0,.39A4,4,0,0,0,416.47,277.61Zm4.94,14.56a.08.08,0,0,0,0,0c0-.2-.09-.4-.13-.6-.57-3.92.52-8.61,1.06-12.11a23,23,0,0,1,2.44,8.07c.32,3.23-.65,5.8-1.42,8.79A8.32,8.32,0,0,1,421.41,292.17Zm3.69,9.18c.45-1.17.86-2.35,1.27-3.53a14,14,0,0,1,5.09-4.84c.41-.23,2.73-1.18,3.43-1.68-.37.41-1.16,1.24-1.18,1.25-.75,1.15-1.19,2.48-1.85,3.67a9.39,9.39,0,0,1-3.87,4.07A27.82,27.82,0,0,1,425.1,301.35Zm-9,1.43c.11.77.36,1.51.53,2.26a27.6,27.6,0,0,1,.61,4.87,12.92,12.92,0,0,1-1.68,6.44C415.08,311.76,414.33,307.14,416.07,302.78Z" style="fill:#e0e0e0"></path></g></g><g id="freepik--Shadow--inject-60"><path id="freepik--shadow--inject-60" d="M147.11,328.93c-11.77,4.67-20.68,12.86-21.62,26.36-.9,12.87,9,21.86,19.3,27.66,13.63,7.69,29,11.58,43.05,18.27a191.32,191.32,0,0,1,23.81,14c5.64,3.77,11.64,7,17.11,11s10.36,7.92,16.45,11c12.71,6.52,27.78,11.35,42.19,11.36,14,0,27.92-2.23,41.91-1.79,19.57.62,39.73,6.38,58.32.21,4.56-1.52,9.06-3.88,11.82-7.81,15.15-21.56-34.31-28.5-45.78-31.39-35.91-9.07-28.17-25.4-72.73-43.26-13.76-5.52-24.32-17.08-37.28-24-13.85-7.44-28.77-13.07-44.33-15.59C185.52,322.72,163.53,322.42,147.11,328.93Z" style="fill:#ebebeb"></path></g><g id="freepik--Unicorn--inject-60"><g id="freepik--unicorn--inject-60"><g id="freepik--Tail--inject-60"><path d="M165.68,173.5c-.22-4.08.41-8.2-.21-12.24-1.08-7-6-13.12-12.1-16.75-8.33-5-19.35-4.68-28.31-1.47a24.13,24.13,0,0,0-12.43,9.53c-2,3.25-3.07,7-4.27,10.64s-2.64,7.32-5.28,10.1-6.74,4.48-10.39,3.3c-3.83-1.23-6.36-6.54-3.61-9.92-3.87-.24-7.23,3.48-7.64,7.13-.43,3.83.07,11.15,8.69,14.31-6.36,1.53-12.36,6.6-13,16.68-.66,9.68,5.25,18.32,10.56,26.44,4,6.06,8.94,13.4,7.25,20.35-1.15,4.75-6.13,8.18-11,8.33s-9.76-3.55-10.43-8.38a15.56,15.56,0,0,0-4.39,10.94,13.38,13.38,0,0,0,7,12c8.42,4.48,18.5,2.35,22.6-1.89-1.69,4.95.61,10.32,4.47,13.75,4.54,4,15,5.12,18.4.13-4.72,1.3-9.07-3-9.69-7.37-.5-3.5.73-7,2.38-10.17s3.74-6,5.2-9.25,2.25-7,1.14-10.32c9,5.34,10.88,17.57,6.2,25.51,4.53-2.41,10.36-10.6,10.5-15.73.31-11.86-7.42-17.29-8.63-26.4-1.26-9.41,3-9.54,3.87-18.34.53-5.25-2.43-10.22-2.84-15.48a16.56,16.56,0,0,1,7.12-14.73c9.84-6.61,23.92-1.12,26.6,10.34l7.28-10.37C167.23,182,165.9,177.58,165.68,173.5Z" style="fill:#BA68C8"></path><path d="M153.37,171.61c-5.68-5.19-14.38-7.87-21.22-4.37-1.6.82-3,1.94-4.65,2.71a6.52,6.52,0,0,1-5.2.51c-1.66-.68-2.8-2.75-2-4.36-2.22,1.53-2.26,5.92-.1,7.53s5.67,2,8.37,2c-3.69,2.7-7,4.93-9.19,9s-2.81,9.06-.87,13.2c1.25,2.67,3.44,4.76,5.33,7s3.57,5,3.45,7.93c-.17,4.18-3.84,7.43-4.77,11.51-1.15,5.09,2.16,10.09,5.79,13.84,1.1,1.14,2.27,2.26,3.4,3.42a26.55,26.55,0,0,1-3.1-8.75c-1.26-9.41,3-9.54,3.87-18.34.53-5.25-2.43-10.22-2.84-15.48a16.56,16.56,0,0,1,7.12-14.73c9.84-6.61,23.92-1.12,26.6,10.34l2-2.92.12-.65C162.35,184,159,176.8,153.37,171.61Z" style="opacity:0.1"></path><path d="M90.13,188.13c7.41,1.29,15,1.44,20.72-4.14,4.94-4.8,5-14.09,5.7-18.2s4.25-7.39,4.25-7.39-4.06.89-6.08,7.39S114.34,178,107,184C103.32,187,99.24,188.12,90.13,188.13Z" style="opacity:0.1"></path><path d="M108.71,266.29c5.44-9.63,1.4-19.56,1.4-19.56a25,25,0,0,1-11.47,25.91c-1.69,4.95.61,10.32,4.47,13.75,2.67,2.36,7.4,3.71,11.53,3.4C101.92,288.74,102.46,277.35,108.71,266.29Z" style="opacity:0.1"></path><path d="M83.75,191.15c-3.55,2.73-6.22,7.14-6.67,13.66-.66,9.68,5.25,18.32,10.56,26.44,4,6.06,8.94,13.4,7.25,20.35a10.79,10.79,0,0,1-5,6.51,5.07,5.07,0,0,0,1.67-.75c18.14-14.1,3.87-26.8-3.87-38S79.1,196.9,83.75,191.15Z" style="fill:#fff;opacity:0.5"></path><path d="M165.68,173.5c-.22-4.08.41-8.2-.21-12.24-1.08-7-6-13.12-12.1-16.75-8.33-5-19.35-4.68-28.31-1.47a25.35,25.35,0,0,0-10.52,7c6.68-6.37,26.55-7.78,35-2.11,8.94,6,10.35,11.86,11.61,20.79,1.34,9.55,5.45,15,8.05,17.55l1.45-2.06C167.23,182,165.9,177.58,165.68,173.5Z" style="fill:#fff;opacity:0.4"></path></g><g id="freepik--Horsehair--inject-60"><path d="M345.08,233c5.66,1.45,12,1.61,17.05-1.27s8.3-9.49,6-14.84A12,12,0,0,1,361,238.21c7.66,1.32,15.9,1.15,22.77-2.5s11.93-11.4,10.64-19.07a13.63,13.63,0,0,0,20.29-.7c-4.61,2.07-10.11-1.21-12.67-5.57s-3.14-9.55-4.57-14.4c-2.87-9.7-12.87-17-23.07-16.69,4.47.51,10-3.44,11.08-7.81,1.28-5.37,0-9.43-5.29-12.39a5.89,5.89,0,1,1-9.08,6.41c-.93-3.25,1-6.53,2.36-9.63,4.15-9.5,2.9-21-2.46-29.82s-14.5-15.17-24.49-17.92-20.76-2.1-30.67.92c-15.13,17-19.86,42.28-14.8,64.5a99.38,99.38,0,0,0,13.61,31.6C322.19,216.81,330.83,229.33,345.08,233Z" style="fill:#BA68C8"></path><path d="M404.24,218.75c-3.78-.71-6-3.17-8.76-10.53-3.29-8.77-10.93-8.39-10.93-8.39,5.25,3.1,8.67,7.79,9.88,16.81a13.63,13.63,0,0,0,20.29-.7A12.71,12.71,0,0,1,404.24,218.75Z" style="opacity:0.1"></path><path d="M362.5,196.33c3.61-5.69,1-6.69,2.6-10.07,1-2.27,1.34-3.51,0-8.58-1.43-5.39-3.07-4.64-5.62-7.53-3.79-4.29-6.32-14-8.54-21.09s0-10.39-1.54-14.3-5.23-12.8-12.86-18.2c-6.93-4.91-12.86-6.31-23.72-3.8h0c-.5.66-1,1.34-1.45,2l-.11.15c-.47.68-.92,1.37-1.36,2.07h0a72.71,72.71,0,0,0-10.62,34.42h0a79.43,79.43,0,0,0,1.81,22.1,99.38,99.38,0,0,0,13.61,31.6c7.14,11.07,15.29,22.89,28.27,27.17-.24-9-3.87-21.86-7.74-29.55s-1.41-16,.79-12.87a58,58,0,0,1,2.84,5.58c2.15,4.74,5.41,6.38,8.54,6.28,1.77-.05,2,.69,4.46.11s2.6-1.76,4.84-2.43C359.51,198.59,361.66,197.67,362.5,196.33Z" style="opacity:0.1"></path><path d="M356.91,174.31c9.57,6.27,17.5,5,17.5,5l1.8,0c4.05-.51,8.37-4,9.28-7.78a11.9,11.9,0,0,0-.06-6.74c.78,3.14-.64,9.8-9.79,11.25-10.56,1.67-16.44-8.41-9.73-14.65s8-6.7,6.82-15.64-10.5-12-22.06-13.4C350.67,132.29,333.67,159.09,356.91,174.31Z" style="opacity:0.1"></path><path d="M371.11,154.63c.6-2.39-.29-9.67-6.81-12.34-5.68-2.33-14.2,0-14.2,0l-.07-9s12-.58,17.58,4.16S373.67,151.06,371.11,154.63Z" style="opacity:0.1"></path><path d="M314.8,107.06c-6,2.09-11.19,5.91-17.16,8-2.05.71-4.41,1.18-6.31.12s-2.53-4.24-.65-5.32a6.3,6.3,0,0,0-.47,12.26,15.84,15.84,0,0,0-9.71,16.39c.49,3.66,2.3,7.32,1.35,10.89a7.58,7.58,0,0,1-7.31,5.46,5.59,5.59,0,0,1-4.24-1.94,3.77,3.77,0,0,1-.21-4.47,8,8,0,0,0-.14,15.61c-1.89-.7-4,.65-5,2.42s-1,3.88-1.26,5.88-.61,4.13-2,5.59c-2.92,3.07-9.09,2.17-10.77,6.05-1.13,2.6.73,5.53,2.87,7.38a21.63,21.63,0,0,0,24.58,2.15l54-83.71C328.26,105.06,320.76,105,314.8,107.06Z" style="fill:#BA68C8"></path><g style="opacity:0.1"><path d="M270,164.05l-1.33-.45A6.94,6.94,0,0,0,270,164.05Z"></path><path d="M270,164.05c-1.89-.7-4,.65-5,2.42a10.14,10.14,0,0,0-1,3.34c1-2.57,1.79-3,7.37-3.32s6.75-3.59,6.75-3.59A9.81,9.81,0,0,1,270,164.05Z"></path></g><path d="M278.37,193.52l37.28-57.75,2.28-7.59-12.25-15.47c-8.82,4.62-16.21,12.23-19.33,24.93-4.74,19.24-5.61,39.35-23.17,49.18-14.4,8.06,2.94,8.9,9.62,9A20.11,20.11,0,0,0,278.37,193.52Z" style="opacity:0.1"></path></g><g id="freepik--Leg--inject-60"><path d="M346.81,329.9c-3.87-1.08-8.61-1.31-10.2,0-3,2.47-6.88,8.53-8,14.54s.52,11.2,3.33,12.48c3.75,1.72,12.11-2.82,13.8-4.67C348.09,349.66,350.72,337.84,346.81,329.9Z" style="fill:#455a64"></path><path d="M347.06,330.48l-3.09.57c-3.54,2.64-5.15,6.57-6.1,12.11-.48,2.76.28,6.29-4.1,8.44C331,353,328,345,330.3,339.06a25.54,25.54,0,0,0-1.7,5.39c-1.13,6,.52,11.2,3.33,12.48,3.75,1.72,12.11-2.82,13.8-4.67C348,349.73,350.58,338.41,347.06,330.48Z" style="fill:#37474f"></path><path d="M341.86,235.64c8.08,14.75,7.24,23.21,13.45,29.5,6.39,6.47,34,26.73,39.92,30.45,8,5,8,8.67,1.86,14.06-5.9,5.18-8.77,8.27-16.22,17.82-6.14,7.85-5.35,11.24-7,15.51-1.82,4.76-5.38,2.79-9.72,2.19a22.75,22.75,0,0,0-16.68,4.72c-3.9,3.5-8-.95-7.35-8.54.58-6.78,3.84-13.13,8-11.06s17.11,5.33,18.84,3.83a71.53,71.53,0,0,0,10.77-13.6c4.45-7.06,6.42-11.8,7.74-14s-.62-3.12-9.33-4.47a170.2,170.2,0,0,1-21.62-5.63c-10-3.25-18.58-8-26.13-8.31-7.19-.26-9.62.46-10.28-7.47-.53-6.33-1.92-20.71-7.54-24.06Z" style="fill:#BA68C8"></path><path d="M341.86,235.64c8.08,14.75,7.24,23.21,13.45,29.5,6.39,6.47,34,26.73,39.92,30.45,8,5,8,8.67,1.86,14.06-5.9,5.18-8.77,8.27-16.22,17.82-6.14,7.85-5.35,11.24-7,15.51-1.82,4.76-5.38,2.79-9.72,2.19a22.75,22.75,0,0,0-16.68,4.72c-3.9,3.5-8-.95-7.35-8.54.58-6.78,3.84-13.13,8-11.06s17.11,5.33,18.84,3.83a71.53,71.53,0,0,0,10.77-13.6c4.45-7.06,6.42-11.8,7.74-14s-.62-3.12-9.33-4.47a170.2,170.2,0,0,1-21.62-5.63c-10-3.25-18.58-8-26.13-8.31-7.19-.26-9.62.46-10.28-7.47-.53-6.33-1.92-20.71-7.54-24.06Z" style="fill:#fff;opacity:0.7000000000000001"></path><path d="M339.67,353.73c1.05-1.39-.87-.19-4.47.85s-5.3.44-6-.83a5.76,5.76,0,0,0,2.69,3.18,4.29,4.29,0,0,0,1.48.35C332.94,356.42,338.78,354.89,339.67,353.73Z" style="fill:#263238"></path><path d="M375.19,324.35a63.88,63.88,0,0,1-8.21,9.77c-1.31,1.14-9.11-.48-14.6-2.22h0c10.41,3.63,12.54,6.11,15.66,4.76,2.7-1.17,2-5,7.15-12.31Z" style="fill:#BA68C8;opacity:0.15"></path><path d="M387.5,302c-3.48.93-5.24-1.73-11.05-5.95s-12.89-8.94-21-9.68-19.85-.93-15.57-11.17c5.09-12.2,4.28-35,1.95-39.58l-31.27,20.91c5.62,3.35,7,17.73,7.54,24.06.66,7.93,3.09,7.21,10.28,7.47,7.55.27,16.18,5.06,26.13,8.31A170.2,170.2,0,0,0,376.16,302c8.71,1.35,10.64,2.24,9.33,4.47s-3.29,7-7.74,14c0,0,4.94-6.69,8.44-11.8s4.46-6,6.11-6.51S391,301.09,387.5,302Z" style="fill:#BA68C8;opacity:0.15"></path><path d="M387.5,302c-3.48.93-5.24-1.73-11.05-5.95s-12.89-8.94-21-9.68-19.85-.93-15.57-11.17c5.09-12.2,4.28-35,1.95-39.58l-31.27,20.91c5.62,3.35,7,17.73,7.54,24.06.66,7.93,3.09,7.21,10.28,7.47,7.55.27,16.18,5.06,26.13,8.31A170.2,170.2,0,0,0,376.16,302c8.71,1.35,10.64,2.24,9.33,4.47s-3.29,7-7.74,14c0,0,4.94-6.69,8.44-11.8s4.46-6,6.11-6.51S391,301.09,387.5,302Z" style="opacity:0.1"></path></g><g id="freepik--leg--inject-60"><path d="M240.41,344.45h0l-3.13-9.36h0c-.49-1.58-2-3.14-4.25-4.44-4.81-2.78-11.09-3.28-15.9-.51-2.37,1.37-3.35,2.94-3.17,4.52h0l1,8.29h0c.21,1.92,2.1,3.86,5.05,5.56,5.34,3.09,12.1,4.2,17.44,1.12h0C240.17,348.05,241,346.25,240.41,344.45Z" style="fill:#455a64"></path><path d="M222,342.68c3.14.23,6,1,10-.24s4.93-3.15,5.41-5.2l-.81-3.54a10.79,10.79,0,0,0-3.54-3.05c-4.81-2.78-11.09-3.28-15.9-.51-2.37,1.37-3.35,2.94-3.17,4.52h0l1,8.29h0c.21,1.92,2.1,3.86,5.05,5.56,4.81,2.78,10.78,3.95,15.82,1.9-3.52.74-9.11-.58-12.34-2.4C220.42,346.29,219.23,342.48,222,342.68Z" style="fill:#37474f"></path><path d="M237.43,349.63h0a10.45,10.45,0,0,0,1.07-.71c-.6.4-2.34-6.48-3.06-6.23s1.25,7.26.79,7.54A11.19,11.19,0,0,0,237.43,349.63Z" style="fill:#263238"></path><path d="M235,318.78c.6-1.6,1-4-2.51-7.82s-12.3-13-16-17.87c-4.65-6.25-13.42-17-11-20.1s33.92-13.4,37.79-40.2l-55.1-1.54c5.08,14.24,5.72,26.11,3.25,33.69-2,6.26-5.1,11.35-.45,14.75,3.47,2.53,5.47,1.67,14.47,11.17,7.16,7.55,12.63,17.12,12.24,20.09s-.89,5.55.81,8,1.87,3.17,0,6.28-4.6,4.36-4.6,8.86h0c-.11,1.8,1.35,3.63,4.07,5.2,4.8,2.78,11.72,3.65,16.53.87h0a6.18,6.18,0,0,0,2.54-2.44h0c1.74-2.58-.54-5.72-2.13-9.45A14,14,0,0,1,235,318.78Z" style="fill:#BA68C8"></path><path d="M235,318.78c.6-1.6,1-4-2.51-7.82s-12.3-13-16-17.87c-4.65-6.25-13.42-17-11-20.1s33.92-13.4,37.79-40.2l-55.1-1.54c5.08,14.24,5.72,26.11,3.25,33.69-2,6.26-5.1,11.35-.45,14.75,3.47,2.53,5.47,1.67,14.47,11.17,7.16,7.55,12.63,17.12,12.24,20.09s-.89,5.55.81,8,1.87,3.17,0,6.28-4.6,4.36-4.6,8.86h0c-.11,1.8,1.35,3.63,4.07,5.2,4.8,2.78,11.72,3.65,16.53.87h0a6.18,6.18,0,0,0,2.54-2.44h0c1.74-2.58-.54-5.72-2.13-9.45A14,14,0,0,1,235,318.78Z" style="fill:#fff;opacity:0.7000000000000001"></path><path d="M191.46,264.94c-2,6.26-5.1,11.35-.45,14.75,3.47,2.53,5.47,1.67,14.47,11.17,5.86,6.18,10.58,13.71,11.89,17.87h0c-.05-4.58-8.49-18.79-14.89-25.26-5.94-6-11.25-6.5-9.18-9.77,1.43-2.26,7.38-4.67,15.65-2.93h0c8.82-4.83,31.13-15.67,34.35-38l-55.1-1.54C193.29,245.49,193.93,257.36,191.46,264.94Z" style="fill:#BA68C8;opacity:0.15"></path><path d="M191.46,264.94c-2,6.26-5.1,11.35-.45,14.75,3.47,2.53,5.47,1.67,14.47,11.17,5.86,6.18,10.58,13.71,11.89,17.87h0c-.05-4.58-8.49-18.79-14.89-25.26-5.94-6-11.25-6.5-9.18-9.77,1.43-2.26,7.38-4.67,15.65-2.93h0c8.82-4.83,31.13-15.67,34.35-38l-55.1-1.54C193.29,245.49,193.93,257.36,191.46,264.94Z" style="opacity:0.1"></path><path d="M232.63,341.07h0c-6.9,1.67-13-1.91-14.13-5.75s2.89-6.74,5.49-9.29.6-4.81-1.68-6.14-3.9-2.34-4.95-4.45a6.78,6.78,0,0,0,1.17,3.54c1.69,2.48,1.87,3.17,0,6.28s-4.6,4.36-4.6,8.86h0c-.11,1.8,1.35,3.63,4.07,5.2C222.2,341.75,228,342.72,232.63,341.07Z" style="fill:#BA68C8;opacity:0.15"></path></g><g id="freepik--Body--inject-60"><path d="M181.45,369h0l-3.14-9.36h0c-.5-1.58-2-3.15-4.26-4.45-4.8-2.77-11.09-3.28-15.89-.5-2.37,1.36-3.35,2.94-3.17,4.51h0l1,8.29h0c.22,1.92,2.11,3.87,5.05,5.57,5.34,3.08,12.1,4.2,17.44,1.12h0C181.21,372.61,182,370.81,181.45,369Z" style="fill:#455a64"></path><path d="M177.27,374.8h0A22.64,22.64,0,0,1,165,372.91c-3.72-1.67-5.56-6-4.43-6.12s4.16,1.63,9.44,1,7.53-3.17,8.11-5.51c0,0-.48-2.48-.85-4.5a11.81,11.81,0,0,0-3.22-2.61c-4.8-2.77-11.09-3.28-15.89-.5-2.37,1.36-3.35,2.94-3.17,4.51h0l1,8.29h0c.22,1.92,2.11,3.87,5.05,5.57C166,375.94,172.14,377.1,177.27,374.8Z" style="fill:#37474f"></path><path d="M178.46,374.2h0a12.66,12.66,0,0,0,1.08-.71c-.6.39-2.21-6.41-2.93-6.16s1.11,7.18.66,7.47C177.67,374.62,178.07,374.42,178.46,374.2Z" style="fill:#263238"></path><path d="M358,385.32c.15,1.71-.74,3.07-3.48,6s-5.93,4.79-9.28,4.79-6.52-4.18-7-11c-.46-6.18,1-11.19,2.22-12.81s6-3.86,6-3.86Z" style="fill:#455a64"></path><path d="M340.46,372.31c-1.23,1.63-2.68,6.64-2.22,12.82a17.12,17.12,0,0,0,2.18,7.63,25.27,25.27,0,0,1-1.35-11c.45-3.18,2-5.43,3.1-1.17a11.73,11.73,0,0,0,7,8.26,6,6,0,0,0,7.59-1.92l.86-2.18-11.17-16.25S341.68,370.69,340.46,372.31Z" style="fill:#37474f"></path><path d="M345.89,393.84c-2,1.32-3.82.92-4.43.35a5.19,5.19,0,0,0,3.8,1.95A10.05,10.05,0,0,0,347,396c-.21,0-.85-.21.15-1.24,1.17-1.2,3.29-3.23,2.77-3.81S347.94,392.5,345.89,393.84Z" style="fill:#263238"></path><path d="M367.14,175.34c-1.44-5.39-3.08-4.65-5.62-7.53-3.79-4.29-6.32-14.05-8.54-21.1s0-10.38-1.54-14.3-5.23-12.8-12.86-18.2-14-6.57-27.15-2.93c-9.15,2.91-15.58,11.15-19.59,20.43-8.91,20.68-9,38.55-19.63,49.08s-24,6.86-37.58,3.2-26.14-11.45-52.88-6.3-36,17.87-41.68,35c-5.17,15.63-2.46,28.45,1.73,40.2,5.06,14.24,2.71,23.9,0,29-3.08,5.8-5.07,9.61-.8,16.09,3.4,5.15,5.19,6.53,9.74,15.9s8,19.51,7.63,22.48-.5,4.66,1.2,7.15,1.86,3.16,0,6.28-4.6,4.35-4.6,8.85c0,.06,0,.12,0,.18,0,1.75,1.45,3.51,4.07,5,4.81,2.77,11.72,3.64,16.53.86a6.13,6.13,0,0,0,2.55-2.43h0c1.74-2.59-.55-5.73-2.13-9.46a13.81,13.81,0,0,1,0-9.51c.59-1.6,1-4-2.51-7.83s-11.5-15.78-14.13-21.3-8.16-18.31-5.95-21.63c2.71-4.07,17.15-4.12,26.15-17.91,1-1.51,2.07-3.05,3.08-4.77s2-3.63,3.06-5.86c3.41.78,9.16.52,14.29.77l1.3.08c8.34.61,19,7,39.3,18.23a96.51,96.51,0,0,0,27.79,9.67c.43,3.11,2.1,5.25,7.26,6.1,6.94,1.13,16.62,7.6,30.71,11.5,12.37,3.41,29.28,4.12,35.16,7.26.51,1.7,2.91,4.46,5.31,5.76,0,0,2.3,10.77,3.86,23.27s2.81,19.48-2.46,20.91-7.09,10.87-2.44,17c5.83,7.75,12.19,3.43,13.85-2.93,1.7-6.55-.39-6.41,3.31-14.21,3.87-8.15-2.48-7.88-3.94-11.89-3.09-8.52-.94-31.79-.58-35.73.62-6.7,2.65-9.42-9.64-13.74-10-3.53-22.57-10.73-30.44-19.22,12.24-6.72,18.64-15.74,22-29.57,4.09-17,1.66-29-6.29-45.37-6.83-14-5-29.26-4.3-33.3,1.28,1,2.58,2.15,4.2,3.61,3.32,3,5.49,7.58,7,10.83,2.16,4.73,5.42,6.37,8.54,6.28,1.77-.06,2,.69,4.47.1s2.59-1.76,4.84-2.42c2.84-.85,5-1.77,5.83-3.1,3.61-5.69,1-6.69,2.6-10.08C368.19,181.65,368.48,180.4,367.14,175.34Z" style="fill:#BA68C8"></path><path d="M367.14,175.34c-1.44-5.39-3.08-4.65-5.62-7.53-3.79-4.29-6.32-14.05-8.54-21.1s0-10.38-1.54-14.3-5.23-12.8-12.86-18.2-14-6.57-27.15-2.93c-9.15,2.91-15.58,11.15-19.59,20.43-8.91,20.68-9,38.55-19.63,49.08s-24,6.86-37.58,3.2-26.14-11.45-52.88-6.3-36,17.87-41.68,35c-5.17,15.63-2.46,28.45,1.73,40.2,5.06,14.24,2.71,23.9,0,29-3.08,5.8-5.07,9.61-.8,16.09,3.4,5.15,5.19,6.53,9.74,15.9s8,19.51,7.63,22.48-.5,4.66,1.2,7.15,1.86,3.16,0,6.28-4.6,4.35-4.6,8.85c0,.06,0,.12,0,.18,0,1.75,1.45,3.51,4.07,5,4.81,2.77,11.72,3.64,16.53.86a6.13,6.13,0,0,0,2.55-2.43h0c1.74-2.59-.55-5.73-2.13-9.46a13.81,13.81,0,0,1,0-9.51c.59-1.6,1-4-2.51-7.83s-11.5-15.78-14.13-21.3-8.16-18.31-5.95-21.63c2.71-4.07,17.15-4.12,26.15-17.91,1-1.51,2.07-3.05,3.08-4.77s2-3.63,3.06-5.86c3.41.78,9.16.52,14.29.77l1.3.08c8.34.61,19,7,39.3,18.23a96.51,96.51,0,0,0,27.79,9.67c.43,3.11,2.1,5.25,7.26,6.1,6.94,1.13,16.62,7.6,30.71,11.5,12.37,3.41,29.28,4.12,35.16,7.26.51,1.7,2.91,4.46,5.31,5.76,0,0,2.3,10.77,3.86,23.27s2.81,19.48-2.46,20.91-7.09,10.87-2.44,17c5.83,7.75,12.19,3.43,13.85-2.93,1.7-6.55-.39-6.41,3.31-14.21,3.87-8.15-2.48-7.88-3.94-11.89-3.09-8.52-.94-31.79-.58-35.73.62-6.7,2.65-9.42-9.64-13.74-10-3.53-22.57-10.73-30.44-19.22,12.24-6.72,18.64-15.74,22-29.57,4.09-17,1.66-29-6.29-45.37-6.83-14-5-29.26-4.3-33.3,1.28,1,2.58,2.15,4.2,3.61,3.32,3,5.49,7.58,7,10.83,2.16,4.73,5.42,6.37,8.54,6.28,1.77-.06,2,.69,4.47.1s2.59-1.76,4.84-2.42c2.84-.85,5-1.77,5.83-3.1,3.61-5.69,1-6.69,2.6-10.08C368.19,181.65,368.48,180.4,367.14,175.34Z" style="fill:#fff;opacity:0.85"></path><path d="M295.23,301.28c-7.7-6-11.54-6.67-16.25-5.6s-7.74,1.73-9.5.15c1,1.48,2.9,2.53,6.15,3.07,6.94,1.13,16.62,7.6,30.71,11.5,12.37,3.41,29.28,4.12,35.16,7.26C339.89,312.53,302.93,307.25,295.23,301.28Z" style="fill:#BA68C8;opacity:0.15"></path><path d="M362.93,367.51a14.19,14.19,0,0,0,.85-2.15c-.85,2.15-3.47,3.22-4.8,5.89s1,4.85.64,10.47C361.32,375.17,359.23,375.31,362.93,367.51Z" style="fill:#BA68C8;opacity:0.15"></path><path d="M352.38,327.84c1.15-4.63,1.36-7.85-1.71-7.32s-5.55.46-8-.84a13.76,13.76,0,0,0,4.18,3.74s2.3,10.77,3.86,23.27,2.81,19.48-2.46,20.91-7.09,10.87-2.44,17a10.21,10.21,0,0,0,4.9,3.89c-3.15-1.65-5-6.74-4.94-10.59.15-5.75,3.63-5.22,7.09-5.7s3.45-7.43,1.72-13.57S351.22,332.46,352.38,327.84Z" style="fill:#BA68C8;opacity:0.15"></path><path d="M268.43,286.39a34.64,34.64,0,0,0-.06,6.41,96.42,96.42,0,0,1-27.79-9.67c-20.3-11.23-31-17.62-39.3-18.23l-1.3-.08c-5.13-.25-10.88,0-14.29-.77-1,2.23-2.05,4.13-3.06,5.86s-2,3.26-3.08,4.77a38.3,38.3,0,0,0,5.32-12.36c1.72-7,.26-14.55-3.48-23.69-4.79-11.7,5-2.95,12.76,10.41,5.85,10.11,15.52,11,29.13,18.81s26,17.75,35.82,14.08c6.49-2.43,8.1-11.63,2.61-19.86C270,274.1,268.88,278.5,268.43,286.39Z" style="fill:#BA68C8;opacity:0.15"></path><path d="M268.43,286.39a34.64,34.64,0,0,0-.06,6.41,96.42,96.42,0,0,1-27.79-9.67c-20.3-11.23-31-17.62-39.3-18.23l-1.3-.08c-5.13-.25-10.88,0-14.29-.77-1,2.23-2.05,4.13-3.06,5.86s-2,3.26-3.08,4.77a38.3,38.3,0,0,0,5.32-12.36c1.72-7,.26-14.55-3.48-23.69-4.79-11.7,5-2.95,12.76,10.41,5.85,10.11,15.52,11,29.13,18.81s26,17.75,35.82,14.08c6.49-2.43,8.1-11.63,2.61-19.86C270,274.1,268.88,278.5,268.43,286.39Z" style="opacity:0.05"></path><g style="opacity:0.15"><path d="M174.89,365.1c-9.43,2.77-17-4.67-16-8.54s5.26-3.65,5-7.64-3.49-4-4.87-6.23c.15.28.32.56.52.86,1.7,2.48,1.87,3.16,0,6.28s-4.59,4.36-4.59,8.85h0c-.11,1.8,1.35,3.64,4.06,5.21C163.62,366.54,170.13,367.44,174.89,365.1Z" style="fill:#BA68C8"></path><path d="M158.36,336.41c-.3,2.29-.42,3.81.31,5.53-.63-1.85.85-3.47,2.92-6.68,2.35-3.64-.43-6.56-3.7-13.14S145.48,303,141.8,299.2h0c2.9,4.24,4.75,6.12,8.94,14.72C155.29,323.29,158.76,333.44,158.36,336.41Z" style="fill:#BA68C8"></path><path d="M159,342.66l0,0Z" style="fill:#BA68C8"></path><path d="M148.08,293.09c2.52,5.08,11.27,21.13,11.27,21.13-2.64-5.52-8.16-18.3-5.95-21.63,2.38-3.58,13.85-4.06,22.71-13.51-3.08,2.87-9.06,6.63-18.84,7.49S145.57,288,148.08,293.09Z" style="fill:#BA68C8;opacity:0.15"></path></g><path d="M318.33,286.93c9.67-5.31,15.69-12.07,19.43-21.49-1.53,2.66-5.11,8.43-8.57,10.44-4.55,2.64-12.74,2.46-15.88-2.89s-6.78-9.85-12-12.44a31.81,31.81,0,0,1,10.09,15A28.81,28.81,0,0,0,318.33,286.93Z" style="fill:#BA68C8;opacity:0.15"></path><path d="M318.33,286.93c9.67-5.31,15.69-12.07,19.43-21.49-1.53,2.66-5.11,8.43-8.57,10.44-4.55,2.64-12.74,2.46-15.88-2.89s-6.78-9.85-12-12.44a31.81,31.81,0,0,1,10.09,15A28.81,28.81,0,0,0,318.33,286.93Z" style="opacity:0.05"></path><path d="M334.33,242c-.86,15.9-6.86,24.29-6.86,19.82s.83-11.73-6.54-21.63-18.19-10.51-16.68-18.56,9.28-14.26,10.92-26.46c1.52-11.17-1-14.07-6.49-19.49a24.39,24.39,0,0,1-6.81-19.07c2.45,9.32,10.64,14.62,16.42,16.59s8.59,3.32,11.41,5.48l0-.14c0,.05,0,.09,0,.14s0,.14,0,.21l0,.24a.06.06,0,0,0,0,0c-.28,1.63-.53,3.52-.72,5.56-.76,7.54-.88,17.23.66,24.71C331.66,219.58,335.2,226.09,334.33,242Z" style="fill:#BA68C8;opacity:0.15"></path><path d="M318.29,173.2c5.87,2,8.59,3.32,11.41,5.48,0,.13-.05.29-.07.45a.06.06,0,0,0,0,0c-.19,1.25-.44,3.23-.57,5.72-.05-.06-.11-.1-.15-.16a14.88,14.88,0,0,0-2.29-2c-4.13-2.85-12.18-3.78-17.95-9.6s-6.36-11.39-6.79-16.56C304.32,165.93,312.51,171.23,318.29,173.2Z" style="opacity:0.1"></path><g id="freepik--Ear--inject-60"><path d="M330.86,110.83c.57-4.82,3.67-6.33,6.94-8.37a17.16,17.16,0,0,0,5.55-5.18c1-1.27,2.21-.24,1.52,2.31s-1.73,3.79-3.08,6.92c-1.56,3.61-1,4.77-2.34,8.35C338.21,118.12,331,115.45,330.86,110.83Z" style="fill:#BA68C8"></path><path d="M330.86,110.83c.57-4.82,3.67-6.33,6.94-8.37a17.16,17.16,0,0,0,5.55-5.18c1-1.27,2.21-.24,1.52,2.31s-1.73,3.79-3.08,6.92c-1.56,3.61-1,4.77-2.34,8.35C338.21,118.12,331,115.45,330.86,110.83Z" style="fill:#fff;opacity:0.75"></path></g><g id="freepik--Head--inject-60"><path d="M359.1,197a15.07,15.07,0,0,1-8.58-.19c-7-2.49-5.09-8.91-8.95-12.23,1.43,2,1.83,4.49,2.33,6.62s1.64,6,6.65,6.86S355.87,198.25,359.1,197Z" style="fill:#BA68C8;opacity:0.35000000000000003"></path><path d="M359.1,197a15.07,15.07,0,0,1-8.58-.19c-7-2.49-5.09-8.91-8.95-12.23,1.43,2,1.83,4.49,2.33,6.62s1.64,6,6.65,6.86S355.87,198.25,359.1,197Z" style="opacity:0.15"></path><path d="M346,133.13c1.16-3.62-1.77-4.62-3.89-5.55s-1.36-4.19-1.64-8.24a11.21,11.21,0,0,0-2-5.21c-7.19-5-13.32-6.33-25.06-3.37,10.36,1.32,5.92,10.52,9.17,13.12s7,4.05,9.65,5.57-1.48,6.87,2.54,8.56,6.38,5.17,10.09,13.05,8.32,18.12,11.14,17c2.12-.86-3.54-11.42-6.53-18.69S344.85,136.75,346,133.13Z" style="fill:#fff"></path><path d="M349.23,174.94a4.75,4.75,0,0,0-3.5,4.69,9.65,9.65,0,0,0,1.38,4s-2.9-2.36-2.07-5.81A3.69,3.69,0,0,1,349.23,174.94Z" style="fill:#BA68C8;opacity:0.15"></path><path d="M349.23,174.94a4.75,4.75,0,0,0-3.5,4.69,9.65,9.65,0,0,0,1.38,4s-2.9-2.36-2.07-5.81A3.69,3.69,0,0,1,349.23,174.94Z" style="opacity:0.1"></path><path d="M367.14,183.91a7.37,7.37,0,0,0,.87-4.11c-.11.63-.59,2.87-1.44,1.06-1-2.08-3.46-7-3.09-6s3,8.51,3.09,11.91A6,6,0,0,1,367.14,183.91Z" style="fill:#BA68C8;opacity:0.15"></path><path d="M329.14,145.72a2.16,2.16,0,0,1-.18.56,3.54,3.54,0,0,1-6.46-2.81,1.51,1.51,0,0,1,.11-.22c1,.28,2-.26,3.66.18C327.76,143.82,328.41,145,329.14,145.72Z" style="fill:#455a64"></path><path d="M330.6,146.37a2,2,0,0,1-1.8-.68,14.42,14.42,0,0,0-1.37-1.27,4.72,4.72,0,0,0-3.36-.68,3.65,3.65,0,0,1-2.1-.27,4,4,0,0,1-.86-.65,2,2,0,0,1-.58-1,2.73,2.73,0,0,1,.63-2,5.54,5.54,0,0,0,1-1.6,2,2,0,0,1-.22.95l-.4.88a2.32,2.32,0,0,0-.32,1.6,1.4,1.4,0,0,0,.42.59,3.24,3.24,0,0,0,.7.46,2.76,2.76,0,0,0,1.64.14,5,5,0,0,1,3.89,1,9.16,9.16,0,0,1,1.25,1.52A2,2,0,0,0,330.6,146.37Z" style="fill:#263238"></path><circle cx="324.17" cy="144.96" r="0.87" style="fill:#fafafa"></circle><path d="M352.1,181.22c-.83-2.13-.1-4.66-2.49-4.26s-2.48,4.29-1.63,6.17c1.89,4.15,5.13,4.92,6.88,3.91S353,183.44,352.1,181.22Z" style="fill:#455a64"></path><path d="M354.1,187.34a3.17,3.17,0,0,0,.76-.3c1.75-1-1.9-3.6-2.76-5.82s-.1-4.66-2.49-4.26c-1.82.3-2.31,2.56-2.08,4.46,0-1.8,2.3-3.45,2.8-1.38a7.52,7.52,0,0,0,2.88,4.85C354.92,186.13,355.23,186.66,354.1,187.34Z" style="fill:#37474f"></path><path d="M315.78,116c-.32-2.3-.11-5.6,2.15-7.4s6.94-2.23,9.78-2c19.74-7.48,33.16,4.44,41.08,14.76s6.88,22.73,5.66,27.38c-2.24-9.48-5.88-15.8-18-17.62s-22.22-2.82-29-8.74S319.83,115.85,315.78,116Z" style="fill:#BA68C8"></path><path d="M370.33,78.75a1,1,0,0,1-2,.24,1,1,0,1,1,2-.24Z" style="fill:#455a64"></path><path d="M369.58,79.48a1.22,1.22,0,0,1-.74,1.6,1.3,1.3,0,0,1-1.61-.82,1.23,1.23,0,0,1,.74-1.6A1.29,1.29,0,0,1,369.58,79.48Z" style="fill:#455a64"></path><path d="M368.58,80.48a1.51,1.51,0,0,1-.6,2.1,1.62,1.62,0,0,1-2.11-.76,1.52,1.52,0,0,1,.6-2.1A1.62,1.62,0,0,1,368.58,80.48Z" style="fill:#455a64"></path><path d="M367.32,81.76a1.83,1.83,0,0,1-.45,2.59,2,2,0,0,1-2.61-.71,1.83,1.83,0,0,1,.46-2.59A1.94,1.94,0,0,1,367.32,81.76Z" style="fill:#455a64"></path><path d="M365.82,83.31a2.17,2.17,0,0,1-.32,3.09,2.3,2.3,0,0,1-3.11-.66,2.16,2.16,0,0,1,.32-3.08A2.3,2.3,0,0,1,365.82,83.31Z" style="fill:#455a64"></path><path d="M364.05,85.14a2.51,2.51,0,0,1-.17,3.58,2.64,2.64,0,0,1-3.61-.6,2.52,2.52,0,0,1,.18-3.58A2.63,2.63,0,0,1,364.05,85.14Z" style="fill:#455a64"></path><path d="M362,87.24a2.86,2.86,0,0,1,0,4.07,3,3,0,0,1-4.1-.55,2.85,2.85,0,0,1,0-4.07A3,3,0,0,1,362,87.24Z" style="fill:#455a64"></path><path d="M359.76,89.62a3.21,3.21,0,0,1,.11,4.56,3.31,3.31,0,0,1-4.6-.49,3.22,3.22,0,0,1-.11-4.57A3.32,3.32,0,0,1,359.76,89.62Z" style="fill:#455a64"></path><path d="M357.24,92.27a3.58,3.58,0,0,1,.24,5.06,3.67,3.67,0,0,1-5.1-.44,3.58,3.58,0,0,1-.24-5.06A3.66,3.66,0,0,1,357.24,92.27Z" style="fill:#455a64"></path><path d="M354.46,95.2a3.93,3.93,0,0,1,.38,5.55,4,4,0,0,1-5.6-.39,3.93,3.93,0,0,1-.38-5.55A4,4,0,0,1,354.46,95.2Z" style="fill:#455a64"></path><path d="M351.42,98.4c1.83,1.76,2.06,4.47.52,6s-4.27,1.43-6.09-.33-2.06-4.47-.53-6S349.59,96.64,351.42,98.4Z" style="fill:#455a64"></path><path d="M348.13,101.88c2,1.88,2.3,4.81.66,6.53s-4.59,1.61-6.59-.27-2.3-4.81-.67-6.54S346.12,100,348.13,101.88Z" style="fill:#455a64"></path><path d="M344.58,105.63c2.18,2,2.54,5.15.8,7s-4.91,1.78-7.09-.22-2.54-5.16-.8-7S342.4,103.63,344.58,105.63Z" style="fill:#455a64"></path><path d="M340.78,109.66c2.35,2.12,2.77,5.49.94,7.52s-5.24,2-7.59-.17-2.78-5.49-.94-7.52S338.42,107.53,340.78,109.66Z" style="fill:#455a64"></path><ellipse cx="333.23" cy="117.91" rx="5.28" ry="6.13" transform="translate(23.9 288.97) rotate(-48.43)" style="fill:#455a64"></ellipse><path d="M342.88,114c-4.77,1.08-7.73-1.85-10.83-1.7a8.1,8.1,0,0,1,4.76-.15C339.39,112.84,340.74,113.9,342.88,114Z" style="fill:#37474f"></path><path d="M346.48,109.59c-4.22.74-5.16-1.76-10.08-1.57a8,8,0,0,1,4.75-.14C343.73,108.61,344.34,109.53,346.48,109.59Z" style="fill:#37474f"></path><path d="M340.49,104.07a9.77,9.77,0,0,1,5.11.74,8,8,0,0,0,4.26.68,23.09,23.09,0,0,1-3.19-1.21A7.91,7.91,0,0,0,340.49,104.07Z" style="fill:#37474f"></path><path d="M344.32,100.38a9.85,9.85,0,0,1,5,.65c1.69.55,2.17.83,3.58.65-1.83-.44-2.38-1.26-4.22-1.62A8.27,8.27,0,0,0,344.32,100.38Z" style="fill:#37474f"></path><path d="M347.9,97a8,8,0,0,1,4.61.37c1.64.59,1.91,1,3.31.78-1.83-.45-2-1.06-3.88-1.54A6.82,6.82,0,0,0,347.9,97Z" style="fill:#37474f"></path><path d="M351.21,93.85a8.79,8.79,0,0,1,4,.42,5,5,0,0,0,3.22.6c-1.38-.32-2.17-.89-3.57-1.29A4.63,4.63,0,0,0,351.21,93.85Z" style="fill:#37474f"></path><path d="M331,115.8a2.93,2.93,0,0,0-2.26-.94c-.35,0-.89.22-1,.55a5.55,5.55,0,0,0,.17,3.9c-.21-1,.64-2,2.72-1.26,2.4.88,3.85,2.38,8.32.56h0C335.21,118.91,333,117.39,331,115.8Z" style="fill:#37474f"></path><path d="M354.27,91a6.51,6.51,0,0,1,3.24.31c1.42.44,2,1,3.25.58a23.52,23.52,0,0,1-2.86-1.12A4,4,0,0,0,354.27,91Z" style="fill:#37474f"></path><path d="M357.08,88.41a5.1,5.1,0,0,1,3,.48,3.65,3.65,0,0,0,2.78.27,8.19,8.19,0,0,1-2.55-.81A3,3,0,0,0,357.08,88.41Z" style="fill:#37474f"></path><path d="M359.62,86.1a4.35,4.35,0,0,1,2.75.35,2.66,2.66,0,0,0,2.34.28,7.24,7.24,0,0,1-2.28-.82A3.37,3.37,0,0,0,359.62,86.1Z" style="fill:#37474f"></path><path d="M361.91,84.06a3.59,3.59,0,0,1,2.19.41,2.46,2.46,0,0,0,2.2.1,2.91,2.91,0,0,1-2-.43A2.91,2.91,0,0,0,361.91,84.06Z" style="fill:#37474f"></path><path d="M363.93,82.3a4.73,4.73,0,0,1,1.92.31,3.18,3.18,0,0,0,1.81.09,4.34,4.34,0,0,1-1.7-.39A2.56,2.56,0,0,0,363.93,82.3Z" style="fill:#37474f"></path><path d="M365.69,80.8a3.29,3.29,0,0,1,1.53.27,2.27,2.27,0,0,0,1.55,0,3,3,0,0,1-1.5-.29A2.1,2.1,0,0,0,365.69,80.8Z" style="fill:#37474f"></path><path d="M367.18,79.57a3.5,3.5,0,0,1,1.22.22,2,2,0,0,0,1.25,0,2.77,2.77,0,0,1-1.1-.21A1.82,1.82,0,0,0,367.18,79.57Z" style="fill:#37474f"></path><path d="M367.32,79.19a2.84,2.84,0,0,1,1.9-1.32c.48-.05.34.85.34.85Z" style="fill:#455a64"></path><path d="M315.78,116c4.76.36,5.2,11.94,13.36,16.28,9.61,5.12,14,1.67,28.72,4.15,15.25,2.57,14.38,13.7,13.67,16.83a15.42,15.42,0,0,1-5.62,8.06c6.85-4.14,10.66-11.17,7.47-20.39-3.24-9.38-8.83-11.17-24.61-14-14.3-2.54-20-4.78-21.28-10.52C327.49,116.44,324,113.2,315.78,116Z" style="fill:#BA68C8"></path><path d="M315.78,116c4.76.36,5.2,11.94,13.36,16.28,9.61,5.12,14,1.67,28.72,4.15,15.25,2.57,14.38,13.7,13.67,16.83a15.42,15.42,0,0,1-5.62,8.06c6.75-5.35,10.66-11.17,7.47-20.39-3.24-9.38-8.83-11.17-24.61-14-14.3-2.54-20-4.78-21.28-10.52C327.49,116.44,324,113.2,315.78,116Z" style="fill:#fff;opacity:0.4"></path><path d="M313.93,97.35c.48-.14.95.23,1.23,3,.18,1.71,2.84,5.54,2.76,9.56-.09,5-4.84,9-5.22,11.84,0,0-5.24-6.68-5.81-10.36C306.06,105.94,308.82,99.09,313.93,97.35Z" style="fill:#BA68C8"></path><path d="M313.93,97.35c.48-.14.95.23,1.23,3,.18,1.71,2.84,5.54,2.76,9.56-.09,5-4.84,9-5.22,11.84,0,0-5.24-6.68-5.81-10.36C306.06,105.94,308.82,99.09,313.93,97.35Z" style="fill:#fff;opacity:0.5"></path><path d="M312.71,121.72c.13-1.84,1-3.94,0-9.26s.51-6.2.69-7.78-2.87-1.31-4.19,1.13-2.18,5-.59,10A13.65,13.65,0,0,0,312.71,121.72Z" style="opacity:0.1"></path><path d="M312.71,121.72c-.23-2.24-1.64-4.62-3.4-8.35a12.68,12.68,0,0,1,4.62-16s-2.75-.81-6.21,3.31c-4.28,5.12-2.26,11-1.55,14.11.39,1.75.87,2.68,0,3.93C306.74,121.29,310.14,123.65,312.71,121.72Z" style="fill:#BA68C8"></path><path d="M312.71,121.72c-.23-2.24-1.64-4.62-3.4-8.35a12.68,12.68,0,0,1,4.62-16s-2.75-.81-6.21,3.31c-4.28,5.12-2.26,11-1.55,14.11.39,1.75.87,2.68,0,3.93C306.74,121.29,310.14,123.65,312.71,121.72Z" style="fill:#fff;opacity:0.8"></path></g></g></g></g><g id="freepik--Rainbow--inject-60"><g id="freepik--Rainbown--inject-60"><g id="freepik--rainbown--inject-60"><path d="M133.42,95.87l-2.85,1.64c1.42-17.7-7.3-29.3-21.07-26.32a45.3,45.3,0,0,0-12.83,5.32A69.27,69.27,0,0,0,83.85,86c-13.77,12.92-22.49,34.59-21.07,50.66l-2.85,1.64C58.38,122.43,65.84,99,81.66,83.19q1.57-1.56,3.34-3.14c.52-.45,1-.91,1.58-1.36.69-.57,1.37-1.14,2.08-1.7a58.93,58.93,0,0,1,16-9.25c.71-.26,1.41-.49,2.09-.7s1.06-.33,1.59-.47a32.7,32.7,0,0,1,3.32-.71C127.5,63.42,135,78.21,133.42,95.87Z" style="fill:#BA68C8"></path><path d="M133.42,95.87l-2.85,1.64c1.42-17.7-7.3-29.3-21.07-26.32a45.3,45.3,0,0,0-12.83,5.32A69.27,69.27,0,0,0,83.85,86c-13.77,12.92-22.49,34.59-21.07,50.66l-2.85,1.64C58.38,122.43,65.84,99,81.66,83.19q1.57-1.56,3.34-3.14c.52-.45,1-.91,1.58-1.36.69-.57,1.37-1.14,2.08-1.7a58.93,58.93,0,0,1,16-9.25c.71-.26,1.41-.49,2.09-.7s1.06-.33,1.59-.47a32.7,32.7,0,0,1,3.32-.71C127.5,63.42,135,78.21,133.42,95.87Z" style="fill:#fff;opacity:0.7000000000000001"></path><path d="M120.52,43.17a33.22,33.22,0,0,0-3.34.24C104.25,45,89.1,53.75,76.18,67.09c-1.17,1.2-2.29,2.41-3.35,3.61-24,27.27-26.35,59.07-24.27,74.17l2.85-1.65c-2-15.29,1.75-45.36,23.75-69.76,1.08-1.21,2.23-2.42,3.43-3.63C90.07,58.33,103.29,50.7,114.76,49a31.17,31.17,0,0,1,3.43-.35c22-1,25.71,24.8,23.75,42.34l2.85-1.64C146.88,71.81,144.56,42.68,120.52,43.17Z" style="fill:#BA68C8"></path><path d="M120.52,43.17a33.22,33.22,0,0,0-3.34.24C104.25,45,89.1,53.75,76.18,67.09c-1.17,1.2-2.29,2.41-3.35,3.61-24,27.27-26.35,59.07-24.27,74.17l2.85-1.65c-2-15.29,1.75-45.36,23.75-69.76,1.08-1.21,2.23-2.42,3.43-3.63C90.07,58.33,103.29,50.7,114.76,49a31.17,31.17,0,0,1,3.43-.35c22-1,25.71,24.8,23.75,42.34l2.85-1.64C146.88,71.81,144.56,42.68,120.52,43.17Z" style="opacity:0.1"></path><path d="M141.94,91,139.1,92.6a.18.18,0,0,1,0,0c1.81-17.58-3.12-38.8-23-37.37-.65.06-1.34.13-2,.22-11,1.55-23.74,8.91-34.73,20.07-.71.7-1.39,1.42-2,2.13-19.89,21.55-24.83,48.46-23,64a.08.08,0,0,1,0,0l-2.85,1.65c-1.95-15.29,1.76-45.37,23.76-69.77q1.62-1.81,3.44-3.63C90.06,58.33,103.28,50.7,114.75,49a33.93,33.93,0,0,1,3.45-.33C140.18,47.62,143.9,73.41,141.94,91Z" style="fill:#BA68C8"></path><path d="M139.11,92.55a.18.18,0,0,0,0,0l-2.84,1.63a.16.16,0,0,1,0,0c1.68-17.62-4.53-35.58-22.38-33.68a35.68,35.68,0,0,0-4.35.79c-8.4,2.06-17.34,7.23-25.72,14.86-1.55,1.4-3,2.83-4.36,4.24-17.84,18.68-24,43.83-22.38,59.51l-2.84,1.64c-1.81-15.49,3.13-42.4,23-64,.66-.71,1.34-1.43,2-2.13C90.3,64.31,103.05,57,114,55.4c.71-.09,1.4-.16,2-.22C136,53.75,140.92,75,139.11,92.55Z" style="fill:#BA68C8"></path><path d="M139.11,92.55a.18.18,0,0,0,0,0l-2.84,1.63a.16.16,0,0,1,0,0c1.68-17.62-4.53-35.58-22.38-33.68a35.68,35.68,0,0,0-4.35.79c-8.4,2.06-17.34,7.23-25.72,14.86-1.55,1.4-3,2.83-4.36,4.24-17.84,18.68-24,43.83-22.38,59.51l-2.84,1.64c-1.81-15.49,3.13-42.4,23-64,.66-.71,1.34-1.43,2-2.13C90.3,64.31,103.05,57,114,55.4c.71-.09,1.4-.16,2-.22C136,53.75,140.92,75,139.11,92.55Z" style="fill:#fff;opacity:0.30000000000000004"></path><path d="M136.27,94.19a.16.16,0,0,0,0,0l-2.84,1.64c1.56-17.66-5.92-32.45-21.74-30a32.7,32.7,0,0,0-3.32.71c-.53.14-1,.29-1.59.47s-1.38.44-2.09.7a58.93,58.93,0,0,0-16,9.25c-.71.56-1.39,1.13-2.08,1.7-.54.45-1.06.91-1.58,1.36q-1.77,1.58-3.34,3.14C65.84,99,58.38,122.43,59.93,138.3l-2.85,1.61c-1.67-15.68,4.54-40.83,22.38-59.51,1.35-1.41,2.81-2.84,4.36-4.24,8.38-7.63,17.32-12.8,25.72-14.86a35.68,35.68,0,0,1,4.35-.79C131.74,58.61,138,76.57,136.27,94.19Z" style="fill:#BA68C8"></path><path d="M136.27,94.19a.16.16,0,0,0,0,0l-2.84,1.64c1.56-17.66-5.92-32.45-21.74-30a32.7,32.7,0,0,0-3.32.71c-.53.14-1,.29-1.59.47s-1.38.44-2.09.7a58.93,58.93,0,0,0-16,9.25c-.71.56-1.39,1.13-2.08,1.7-.54.45-1.06.91-1.58,1.36q-1.77,1.58-3.34,3.14C65.84,99,58.38,122.43,59.93,138.3l-2.85,1.61c-1.67-15.68,4.54-40.83,22.38-59.51,1.35-1.41,2.81-2.84,4.36-4.24,8.38-7.63,17.32-12.8,25.72-14.86a35.68,35.68,0,0,1,4.35-.79C131.74,58.61,138,76.57,136.27,94.19Z" style="fill:#fff;opacity:0.55"></path></g><g id="freepik--Clouds--inject-60"><g id="freepik--Cloud--inject-60"><path d="M120.17,108.15l5.67-3.27a5.12,5.12,0,0,1,0-.7v-1.64a10.14,10.14,0,0,1,4.58-7.94,3.61,3.61,0,0,1,2.73-.53,15.33,15.33,0,0,1,6.81-10.87c3.78-2.19,6.85-.42,6.85,4v2.45a12,12,0,0,1-.58,3.52l4.71-2.72c1.4-.81,2.54-.15,2.54,1.47a5.62,5.62,0,0,1-2.54,4.4L120.17,114c-1.41.81-2.54.15-2.54-1.47A5.6,5.6,0,0,1,120.17,108.15Z" style="fill:#BA68C8"></path><path d="M120.17,108.15l5.67-3.27a5.12,5.12,0,0,1,0-.7v-1.64a10.14,10.14,0,0,1,4.58-7.94,3.61,3.61,0,0,1,2.73-.53,15.33,15.33,0,0,1,6.81-10.87c3.78-2.19,6.85-.42,6.85,4v2.45a12,12,0,0,1-.58,3.52l4.71-2.72c1.4-.81,2.54-.15,2.54,1.47a5.62,5.62,0,0,1-2.54,4.4L120.17,114c-1.41.81-2.54.15-2.54-1.47A5.6,5.6,0,0,1,120.17,108.15Z" style="fill:#fff;opacity:0.85"></path></g><g id="freepik--cloud--inject-60"><path d="M169.87,105.2l-4,2.32a4.84,4.84,0,0,0,0-.53v-1.17c0-2.07-1.46-2.91-3.25-1.87a6.22,6.22,0,0,0-1.94,1.86c-.3-2.61-2.34-3.58-4.83-2.15A10.78,10.78,0,0,0,151,112.1v1.74a4.65,4.65,0,0,0,.41,2l-3.34,1.93a4,4,0,0,0-1.8,3.13c0,1.15.81,1.61,1.8,1l21.81-12.59a4,4,0,0,0,1.81-3.13C171.68,105.09,170.87,104.62,169.87,105.2Z" style="fill:#BA68C8"></path><path d="M169.87,105.2l-4,2.32a4.84,4.84,0,0,0,0-.53v-1.17c0-2.07-1.46-2.91-3.25-1.87a6.22,6.22,0,0,0-1.94,1.86c-.3-2.61-2.34-3.58-4.83-2.15A10.78,10.78,0,0,0,151,112.1v1.74a4.65,4.65,0,0,0,.41,2l-3.34,1.93a4,4,0,0,0-1.8,3.13c0,1.15.81,1.61,1.8,1l21.81-12.59a4,4,0,0,0,1.81-3.13C171.68,105.09,170.87,104.62,169.87,105.2Z" style="fill:#fff;opacity:0.85"></path></g><g id="freepik--cloud--inject-60"><path d="M40.47,147.76l3.79-2.92v-8.35c0-6.62,5.28-14.31,11-17.62h0c5.74-3.31,10.39-.63,10.39,6v1.22a14.79,14.79,0,0,1,4.82-4.82h0c4.12-2.39,7.47-.46,7.47,4.31v.55l5.29-3.05c2.71-1.57,4.92-.3,4.92,2.84a10.89,10.89,0,0,1-4.92,8.52l-42.77,24.7c-2.72,1.57-4.93.29-4.93-2.84A10.89,10.89,0,0,1,40.47,147.76Z" style="fill:#BA68C8"></path><path d="M40.47,147.76l3.79-2.92v-8.35c0-6.62,5.28-14.31,11-17.62h0c5.74-3.31,10.39-.63,10.39,6v1.22a14.79,14.79,0,0,1,4.82-4.82h0c4.12-2.39,7.47-.46,7.47,4.31v.55l5.29-3.05c2.71-1.57,4.92-.3,4.92,2.84a10.89,10.89,0,0,1-4.92,8.52l-42.77,24.7c-2.72,1.57-4.93.29-4.93-2.84A10.89,10.89,0,0,1,40.47,147.76Z" style="fill:#fff;opacity:0.85"></path></g></g></g></g><g id="freepik--Sparkles--inject-60"><g id="freepik--Shine--inject-60"><path d="M379,106.09a.58.58,0,0,1,.12-.78l.44-.36a3,3,0,0,0,.74-3.81l-.28-.5a.58.58,0,0,1,1-.65l.36.44h0a3,3,0,0,0,3.81.74l.5-.29a.59.59,0,0,1,.77.18h0a.57.57,0,0,1-.12.78l-.44.36a3,3,0,0,0-.74,3.81l.29.5a.59.59,0,0,1-1,.65l-.36-.44a3,3,0,0,0-3.81-.74l-.5.28a.57.57,0,0,1-.77-.18Zm2.86-3.77a4.14,4.14,0,0,1-.41,2.11,4.14,4.14,0,0,1,2.11.41,4.14,4.14,0,0,1,.41-2.11A4.14,4.14,0,0,1,381.82,102.32Z" style="fill:#BA68C8"></path><path d="M445.3,103.78a3.76,3.76,0,1,1,5.22,1A3.76,3.76,0,0,1,445.3,103.78Zm5.25-3.56a2.59,2.59,0,1,0-.69,3.6A2.59,2.59,0,0,0,450.55,100.22Z" style="fill:#BA68C8"></path><path d="M403.52,134.84a.6.6,0,0,1,.15-.82l1.62-1.09a.6.6,0,0,1,.82.15.59.59,0,0,1-.16.82l-1.62,1.1A.58.58,0,0,1,403.52,134.84Z" style="fill:#BA68C8"></path><path d="M401.89,134.53l-1.1-1.62a.59.59,0,0,1,1-.66l1.09,1.62a.59.59,0,0,1-1,.66Z" style="fill:#BA68C8"></path><path d="M399.86,137.31a.58.58,0,0,1,.16-.81l1.62-1.1a.59.59,0,0,1,.82.16.58.58,0,0,1-.16.81l-1.62,1.1A.59.59,0,0,1,399.86,137.31Z" style="fill:#BA68C8"></path><path d="M404.37,138.18l-1.1-1.62a.58.58,0,0,1,.16-.81.57.57,0,0,1,.81.15l1.1,1.62a.59.59,0,0,1-.16.82A.58.58,0,0,1,404.37,138.18Z" style="fill:#BA68C8"></path><path d="M449.28,142.3a.58.58,0,0,1,.15.78l-.3.49a3,3,0,0,0,.61,3.84l.43.37a.58.58,0,0,1-.68.94l-.49-.3h0a3,3,0,0,0-3.84.61l-.37.43a.58.58,0,0,1-.79.1h0a.59.59,0,0,1-.15-.79l.3-.48a3,3,0,0,0-.61-3.84l-.43-.37a.58.58,0,0,1,.69-.94l.48.3a3,3,0,0,0,3.84-.61l.37-.43a.58.58,0,0,1,.79-.1Zm-1.41,4.52a4.15,4.15,0,0,1-.34-2.12,4.15,4.15,0,0,1-2.12.34,4.15,4.15,0,0,1,.34,2.12A4.15,4.15,0,0,1,447.87,146.82Z" style="fill:#BA68C8"></path><path d="M413.6,176.18a3.76,3.76,0,1,1-5.25.83A3.76,3.76,0,0,1,413.6,176.18Zm-3.74,5.13a2.59,2.59,0,1,0-.56-3.61A2.6,2.6,0,0,0,409.86,181.31Z" style="fill:#BA68C8"></path><path d="M452.2,189a.58.58,0,0,1,.13.82l-1.15,1.58a.59.59,0,1,1-.95-.69l1.16-1.58A.58.58,0,0,1,452.2,189Z" style="fill:#BA68C8"></path><path d="M453.84,188.75l1.58,1.16a.58.58,0,1,1-.69.94l-1.58-1.15a.59.59,0,0,1,.69-.95Z" style="fill:#BA68C8"></path><path d="M454.8,185.44a.59.59,0,0,1,.13.82l-1.15,1.59a.59.59,0,0,1-.95-.69l1.15-1.59A.59.59,0,0,1,454.8,185.44Z" style="fill:#BA68C8"></path><path d="M450.27,186.16l1.58,1.15a.58.58,0,0,1,.13.82.59.59,0,0,1-.82.13l-1.58-1.15a.59.59,0,0,1-.13-.82A.58.58,0,0,1,450.27,186.16Z" style="fill:#BA68C8"></path><path d="M221.23,71.28a.59.59,0,0,1-.75.29l-.53-.21a3,3,0,0,0-3.67,1.27l-.29.49a.59.59,0,0,1-.76.23.58.58,0,0,1-.29-.74l.21-.53h0a3,3,0,0,0-1.27-3.68l-.49-.28a.6.6,0,0,1-.23-.77h0a.59.59,0,0,1,.75-.28l.52.21A3,3,0,0,0,218.11,66l.29-.49a.57.57,0,0,1,.76-.23.59.59,0,0,1,.29.74l-.21.53a3,3,0,0,0,1.26,3.67l.49.29a.59.59,0,0,1,.24.76Zm-4.7-.6a4.09,4.09,0,0,1,2-.7,4.09,4.09,0,0,1-.7-2,4.09,4.09,0,0,1-2,.7A4.16,4.16,0,0,1,216.53,70.68Z" style="fill:#BA68C8"></path><path d="M246,145.07a.59.59,0,0,1-.29.74l-.51.25a3,3,0,0,0-1.55,3.56l.16.55a.58.58,0,0,1-1.08.42l-.25-.51h0a3,3,0,0,0-3.57-1.55l-.54.17a.59.59,0,0,1-.72-.34h0a.6.6,0,0,1,.29-.75l.51-.24A3,3,0,0,0,240,143.8l-.17-.54a.59.59,0,0,1,.35-.72.58.58,0,0,1,.74.29l.25.51a3,3,0,0,0,3.57,1.55l.54-.17a.59.59,0,0,1,.72.35Zm-3.62,3.05a4.12,4.12,0,0,1,.86-2,4.1,4.1,0,0,1-2-.85,4.12,4.12,0,0,1-.86,2A4.2,4.2,0,0,1,242.37,148.12Z" style="fill:#BA68C8"></path><path d="M261.56,108.25a3.76,3.76,0,1,1-1.73-5A3.75,3.75,0,0,1,261.56,108.25Zm-5.7-2.78a2.59,2.59,0,1,0,3.46-1.19A2.59,2.59,0,0,0,255.86,105.47Z" style="fill:#BA68C8"></path><path d="M198.91,154.48a3.76,3.76,0,1,1-1.74-5A3.76,3.76,0,0,1,198.91,154.48Zm-5.71-2.78a2.59,2.59,0,1,0,3.46-1.19A2.59,2.59,0,0,0,193.2,151.7Z" style="fill:#BA68C8"></path><path d="M196.24,105.48a.6.6,0,0,1-.79.27l-1.76-.86a.58.58,0,0,1-.27-.78.6.6,0,0,1,.79-.27l1.76.86A.58.58,0,0,1,196.24,105.48Z" style="fill:#BA68C8"></path><path d="M196.78,107l-.86,1.76a.58.58,0,0,1-.78.27.57.57,0,0,1-.27-.78l.85-1.76a.6.6,0,0,1,.79-.27A.58.58,0,0,1,196.78,107Z" style="fill:#BA68C8"></path><path d="M200.2,107.41a.58.58,0,0,1-.78.27l-1.76-.86a.58.58,0,1,1,.51-1l1.76.86A.58.58,0,0,1,200.2,107.41Z" style="fill:#BA68C8"></path><path d="M198.71,103.08l-.86,1.76a.58.58,0,0,1-.78.27.6.6,0,0,1-.27-.79l.86-1.76a.58.58,0,0,1,.78-.27A.6.6,0,0,1,198.71,103.08Z" style="fill:#BA68C8"></path><path d="M386.92,52.18a.6.6,0,0,1-.69-.4l-.17-.55a3,3,0,0,0-3.3-2l-.56.08a.59.59,0,0,1-.26-1.14l.54-.17h0a3,3,0,0,0,2.06-3.29l-.09-.57a.59.59,0,0,1,1.14-.26l.17.54a3,3,0,0,0,3.3,2.06l.56-.08a.59.59,0,0,1,.66.45.58.58,0,0,1-.4.69l-.54.17A3,3,0,0,0,387.28,51l.09.57A.6.6,0,0,1,386.92,52.18Zm-2.49-4a4,4,0,0,1,1.82,1.14,4.18,4.18,0,0,1,1.14-1.83,4,4,0,0,1-1.82-1.14A4.18,4.18,0,0,1,384.43,48.15Z" style="fill:#BA68C8"></path><path d="M416.66,75.58a3.76,3.76,0,1,1,2.82-4.51A3.76,3.76,0,0,1,416.66,75.58Zm-1.43-6.18a2.59,2.59,0,1,0,3.11,1.94A2.59,2.59,0,0,0,415.23,69.4Z" style="fill:#BA68C8"></path><path d="M350.56,43.91a.57.57,0,0,1-.7-.44l-.44-1.9a.59.59,0,1,1,1.14-.27l.44,1.91A.58.58,0,0,1,350.56,43.91Z" style="fill:#BA68C8"></path><path d="M349.68,45.32l-1.9.44a.59.59,0,1,1-.27-1.15l1.91-.44a.59.59,0,0,1,.26,1.15Z" style="fill:#BA68C8"></path><path d="M351.55,48.21a.58.58,0,0,1-.7-.44l-.44-1.9a.59.59,0,1,1,1.14-.27l.44,1.91A.58.58,0,0,1,351.55,48.21Z" style="fill:#BA68C8"></path><path d="M354,44.32l-1.91.44a.58.58,0,0,1-.7-.44.59.59,0,0,1,.44-.7l1.91-.44a.59.59,0,0,1,.7.44A.58.58,0,0,1,354,44.32Z" style="fill:#BA68C8"></path><path d="M293.56,78.7v0a.59.59,0,0,1,.18-.78l.47-.32h0a3,3,0,0,0,1.05-3.74l-.25-.51a.59.59,0,0,1,1-.58l.32.47a3,3,0,0,0,3.74,1l.52-.25a.6.6,0,0,1,.76.25.58.58,0,0,1-.19.77l-.47.32a3,3,0,0,0-1,3.74l.24.52a.59.59,0,0,1-1,.57l-.32-.47a3,3,0,0,0-3.74-1l-.51.24A.58.58,0,0,1,293.56,78.7Zm3.14-3.55a4.08,4.08,0,0,1-.57,2.07,4.08,4.08,0,0,1,2.07.57,4,4,0,0,1,.57-2.06A4.22,4.22,0,0,1,296.7,75.15Z" style="fill:#BA68C8"></path><path d="M330,69A3.76,3.76,0,1,1,333,70.76,3.75,3.75,0,0,1,330,69Zm5.4-3.33a1.91,1.91,0,0,0-.25-.33,2.54,2.54,0,0,0-1.76-.89,2.61,2.61,0,0,0-1.89.62,2.59,2.59,0,0,0,1.51,4.54,2.59,2.59,0,0,0,2.77-2.39A2.55,2.55,0,0,0,335.44,65.65Z" style="fill:#BA68C8"></path><path d="M272.49,44.48h0l-1-1.68a.59.59,0,0,1,.21-.8.58.58,0,0,1,.8.2l1,1.69a.59.59,0,0,1-.21.8A.6.6,0,0,1,272.49,44.48Z" style="fill:#BA68C8"></path><path d="M270.4,47.08h0a.59.59,0,0,1,.21-.8l1.68-1a.61.61,0,0,1,.81.21.59.59,0,0,1-.21.8l-1.68,1A.59.59,0,0,1,270.4,47.08Z" style="fill:#BA68C8"></path><path d="M274.74,48.28h0l-1-1.69a.59.59,0,0,1,.2-.8.61.61,0,0,1,.81.21l1,1.68a.59.59,0,0,1-.2.81A.59.59,0,0,1,274.74,48.28Z" style="fill:#BA68C8"></path><path d="M274.2,44.83h0a.59.59,0,0,1,.21-.8l1.68-1a.58.58,0,0,1,.6,1L275,45A.57.57,0,0,1,274.2,44.83Z" style="fill:#BA68C8"></path></g></g></svg>
